G04 #@! TF.GenerationSoftware,KiCad,Pcbnew,5.0.2+dfsg1-1*
G04 #@! TF.CreationDate,2020-04-17T14:26:07+02:00*
G04 #@! TF.ProjectId,inc-dec,696e632d-6465-4632-9e6b-696361645f70,rev?*
G04 #@! TF.SameCoordinates,Original*
G04 #@! TF.FileFunction,Soldermask,Top*
G04 #@! TF.FilePolarity,Negative*
%FSLAX46Y46*%
G04 Gerber Fmt 4.6, Leading zero omitted, Abs format (unit mm)*
G04 Created by KiCad (PCBNEW 5.0.2+dfsg1-1) date Fri 17 Apr 2020 02:26:07 PM CEST*
%MOMM*%
%LPD*%
G01*
G04 APERTURE LIST*
%ADD10C,0.100000*%
G04 APERTURE END LIST*
D10*
G36*
X40819294Y-63868633D02*
X40991694Y-63920931D01*
X40991696Y-63920932D01*
X41150583Y-64005859D01*
X41150585Y-64005860D01*
X41150584Y-64005860D01*
X41289849Y-64120151D01*
X41404140Y-64259416D01*
X41489069Y-64418306D01*
X41541367Y-64590706D01*
X41559025Y-64770000D01*
X41541367Y-64949294D01*
X41489069Y-65121694D01*
X41489068Y-65121696D01*
X41404141Y-65280583D01*
X41289849Y-65419849D01*
X41150583Y-65534141D01*
X40991696Y-65619068D01*
X40991694Y-65619069D01*
X40819294Y-65671367D01*
X40684931Y-65684600D01*
X40595069Y-65684600D01*
X40460706Y-65671367D01*
X40288306Y-65619069D01*
X40288304Y-65619068D01*
X40129417Y-65534141D01*
X39990151Y-65419849D01*
X39875859Y-65280583D01*
X39790932Y-65121696D01*
X39790931Y-65121694D01*
X39738633Y-64949294D01*
X39720975Y-64770000D01*
X39738633Y-64590706D01*
X39790931Y-64418306D01*
X39875860Y-64259416D01*
X39990151Y-64120151D01*
X40129416Y-64005860D01*
X40129415Y-64005860D01*
X40129417Y-64005859D01*
X40288304Y-63920932D01*
X40288306Y-63920931D01*
X40460706Y-63868633D01*
X40595069Y-63855400D01*
X40684931Y-63855400D01*
X40819294Y-63868633D01*
X40819294Y-63868633D01*
G37*
G36*
X35739294Y-63868633D02*
X35911694Y-63920931D01*
X35911696Y-63920932D01*
X36070583Y-64005859D01*
X36070585Y-64005860D01*
X36070584Y-64005860D01*
X36209849Y-64120151D01*
X36324140Y-64259416D01*
X36409069Y-64418306D01*
X36461367Y-64590706D01*
X36479025Y-64770000D01*
X36461367Y-64949294D01*
X36409069Y-65121694D01*
X36409068Y-65121696D01*
X36324141Y-65280583D01*
X36209849Y-65419849D01*
X36070583Y-65534141D01*
X35911696Y-65619068D01*
X35911694Y-65619069D01*
X35739294Y-65671367D01*
X35604931Y-65684600D01*
X35515069Y-65684600D01*
X35380706Y-65671367D01*
X35208306Y-65619069D01*
X35208304Y-65619068D01*
X35049417Y-65534141D01*
X34910151Y-65419849D01*
X34795859Y-65280583D01*
X34710932Y-65121696D01*
X34710931Y-65121694D01*
X34658633Y-64949294D01*
X34640975Y-64770000D01*
X34658633Y-64590706D01*
X34710931Y-64418306D01*
X34795860Y-64259416D01*
X34910151Y-64120151D01*
X35049416Y-64005860D01*
X35049415Y-64005860D01*
X35049417Y-64005859D01*
X35208304Y-63920932D01*
X35208306Y-63920931D01*
X35380706Y-63868633D01*
X35515069Y-63855400D01*
X35604931Y-63855400D01*
X35739294Y-63868633D01*
X35739294Y-63868633D01*
G37*
G36*
X33199294Y-63868633D02*
X33371694Y-63920931D01*
X33371696Y-63920932D01*
X33530583Y-64005859D01*
X33530585Y-64005860D01*
X33530584Y-64005860D01*
X33669849Y-64120151D01*
X33784140Y-64259416D01*
X33869069Y-64418306D01*
X33921367Y-64590706D01*
X33939025Y-64770000D01*
X33921367Y-64949294D01*
X33869069Y-65121694D01*
X33869068Y-65121696D01*
X33784141Y-65280583D01*
X33669849Y-65419849D01*
X33530583Y-65534141D01*
X33371696Y-65619068D01*
X33371694Y-65619069D01*
X33199294Y-65671367D01*
X33064931Y-65684600D01*
X32975069Y-65684600D01*
X32840706Y-65671367D01*
X32668306Y-65619069D01*
X32668304Y-65619068D01*
X32509417Y-65534141D01*
X32370151Y-65419849D01*
X32255859Y-65280583D01*
X32170932Y-65121696D01*
X32170931Y-65121694D01*
X32118633Y-64949294D01*
X32100975Y-64770000D01*
X32118633Y-64590706D01*
X32170931Y-64418306D01*
X32255860Y-64259416D01*
X32370151Y-64120151D01*
X32509416Y-64005860D01*
X32509415Y-64005860D01*
X32509417Y-64005859D01*
X32668304Y-63920932D01*
X32668306Y-63920931D01*
X32840706Y-63868633D01*
X32975069Y-63855400D01*
X33064931Y-63855400D01*
X33199294Y-63868633D01*
X33199294Y-63868633D01*
G37*
G36*
X30659294Y-63868633D02*
X30831694Y-63920931D01*
X30831696Y-63920932D01*
X30990583Y-64005859D01*
X30990585Y-64005860D01*
X30990584Y-64005860D01*
X31129849Y-64120151D01*
X31244140Y-64259416D01*
X31329069Y-64418306D01*
X31381367Y-64590706D01*
X31399025Y-64770000D01*
X31381367Y-64949294D01*
X31329069Y-65121694D01*
X31329068Y-65121696D01*
X31244141Y-65280583D01*
X31129849Y-65419849D01*
X30990583Y-65534141D01*
X30831696Y-65619068D01*
X30831694Y-65619069D01*
X30659294Y-65671367D01*
X30524931Y-65684600D01*
X30435069Y-65684600D01*
X30300706Y-65671367D01*
X30128306Y-65619069D01*
X30128304Y-65619068D01*
X29969417Y-65534141D01*
X29830151Y-65419849D01*
X29715859Y-65280583D01*
X29630932Y-65121696D01*
X29630931Y-65121694D01*
X29578633Y-64949294D01*
X29560975Y-64770000D01*
X29578633Y-64590706D01*
X29630931Y-64418306D01*
X29715860Y-64259416D01*
X29830151Y-64120151D01*
X29969416Y-64005860D01*
X29969415Y-64005860D01*
X29969417Y-64005859D01*
X30128304Y-63920932D01*
X30128306Y-63920931D01*
X30300706Y-63868633D01*
X30435069Y-63855400D01*
X30524931Y-63855400D01*
X30659294Y-63868633D01*
X30659294Y-63868633D01*
G37*
G36*
X28119294Y-63868633D02*
X28291694Y-63920931D01*
X28291696Y-63920932D01*
X28450583Y-64005859D01*
X28450585Y-64005860D01*
X28450584Y-64005860D01*
X28589849Y-64120151D01*
X28704140Y-64259416D01*
X28789069Y-64418306D01*
X28841367Y-64590706D01*
X28859025Y-64770000D01*
X28841367Y-64949294D01*
X28789069Y-65121694D01*
X28789068Y-65121696D01*
X28704141Y-65280583D01*
X28589849Y-65419849D01*
X28450583Y-65534141D01*
X28291696Y-65619068D01*
X28291694Y-65619069D01*
X28119294Y-65671367D01*
X27984931Y-65684600D01*
X27895069Y-65684600D01*
X27760706Y-65671367D01*
X27588306Y-65619069D01*
X27588304Y-65619068D01*
X27429417Y-65534141D01*
X27290151Y-65419849D01*
X27175859Y-65280583D01*
X27090932Y-65121696D01*
X27090931Y-65121694D01*
X27038633Y-64949294D01*
X27020975Y-64770000D01*
X27038633Y-64590706D01*
X27090931Y-64418306D01*
X27175860Y-64259416D01*
X27290151Y-64120151D01*
X27429416Y-64005860D01*
X27429415Y-64005860D01*
X27429417Y-64005859D01*
X27588304Y-63920932D01*
X27588306Y-63920931D01*
X27760706Y-63868633D01*
X27895069Y-63855400D01*
X27984931Y-63855400D01*
X28119294Y-63868633D01*
X28119294Y-63868633D01*
G37*
G36*
X38279294Y-63868633D02*
X38451694Y-63920931D01*
X38451696Y-63920932D01*
X38610583Y-64005859D01*
X38610585Y-64005860D01*
X38610584Y-64005860D01*
X38749849Y-64120151D01*
X38864140Y-64259416D01*
X38949069Y-64418306D01*
X39001367Y-64590706D01*
X39019025Y-64770000D01*
X39001367Y-64949294D01*
X38949069Y-65121694D01*
X38949068Y-65121696D01*
X38864141Y-65280583D01*
X38749849Y-65419849D01*
X38610583Y-65534141D01*
X38451696Y-65619068D01*
X38451694Y-65619069D01*
X38279294Y-65671367D01*
X38144931Y-65684600D01*
X38055069Y-65684600D01*
X37920706Y-65671367D01*
X37748306Y-65619069D01*
X37748304Y-65619068D01*
X37589417Y-65534141D01*
X37450151Y-65419849D01*
X37335859Y-65280583D01*
X37250932Y-65121696D01*
X37250931Y-65121694D01*
X37198633Y-64949294D01*
X37180975Y-64770000D01*
X37198633Y-64590706D01*
X37250931Y-64418306D01*
X37335860Y-64259416D01*
X37450151Y-64120151D01*
X37589416Y-64005860D01*
X37589415Y-64005860D01*
X37589417Y-64005859D01*
X37748304Y-63920932D01*
X37748306Y-63920931D01*
X37920706Y-63868633D01*
X38055069Y-63855400D01*
X38144931Y-63855400D01*
X38279294Y-63868633D01*
X38279294Y-63868633D01*
G37*
G36*
X84771000Y-63181000D02*
X82869000Y-63181000D01*
X82869000Y-61279000D01*
X84771000Y-61279000D01*
X84771000Y-63181000D01*
X84771000Y-63181000D01*
G37*
G36*
X77151000Y-63181000D02*
X75249000Y-63181000D01*
X75249000Y-61279000D01*
X77151000Y-61279000D01*
X77151000Y-63181000D01*
X77151000Y-63181000D01*
G37*
G36*
X100011000Y-63181000D02*
X98109000Y-63181000D01*
X98109000Y-61279000D01*
X100011000Y-61279000D01*
X100011000Y-63181000D01*
X100011000Y-63181000D01*
G37*
G36*
X101877396Y-61315546D02*
X102050466Y-61387234D01*
X102206230Y-61491312D01*
X102338688Y-61623770D01*
X102442766Y-61779534D01*
X102514454Y-61952604D01*
X102551000Y-62136333D01*
X102551000Y-62323667D01*
X102514454Y-62507396D01*
X102442766Y-62680466D01*
X102338688Y-62836230D01*
X102206230Y-62968688D01*
X102050466Y-63072766D01*
X101877396Y-63144454D01*
X101693667Y-63181000D01*
X101506333Y-63181000D01*
X101322604Y-63144454D01*
X101149534Y-63072766D01*
X100993770Y-62968688D01*
X100861312Y-62836230D01*
X100757234Y-62680466D01*
X100685546Y-62507396D01*
X100649000Y-62323667D01*
X100649000Y-62136333D01*
X100685546Y-61952604D01*
X100757234Y-61779534D01*
X100861312Y-61623770D01*
X100993770Y-61491312D01*
X101149534Y-61387234D01*
X101322604Y-61315546D01*
X101506333Y-61279000D01*
X101693667Y-61279000D01*
X101877396Y-61315546D01*
X101877396Y-61315546D01*
G37*
G36*
X94257396Y-61315546D02*
X94430466Y-61387234D01*
X94586230Y-61491312D01*
X94718688Y-61623770D01*
X94822766Y-61779534D01*
X94894454Y-61952604D01*
X94931000Y-62136333D01*
X94931000Y-62323667D01*
X94894454Y-62507396D01*
X94822766Y-62680466D01*
X94718688Y-62836230D01*
X94586230Y-62968688D01*
X94430466Y-63072766D01*
X94257396Y-63144454D01*
X94073667Y-63181000D01*
X93886333Y-63181000D01*
X93702604Y-63144454D01*
X93529534Y-63072766D01*
X93373770Y-62968688D01*
X93241312Y-62836230D01*
X93137234Y-62680466D01*
X93065546Y-62507396D01*
X93029000Y-62323667D01*
X93029000Y-62136333D01*
X93065546Y-61952604D01*
X93137234Y-61779534D01*
X93241312Y-61623770D01*
X93373770Y-61491312D01*
X93529534Y-61387234D01*
X93702604Y-61315546D01*
X93886333Y-61279000D01*
X94073667Y-61279000D01*
X94257396Y-61315546D01*
X94257396Y-61315546D01*
G37*
G36*
X92391000Y-63181000D02*
X90489000Y-63181000D01*
X90489000Y-61279000D01*
X92391000Y-61279000D01*
X92391000Y-63181000D01*
X92391000Y-63181000D01*
G37*
G36*
X86637396Y-61315546D02*
X86810466Y-61387234D01*
X86966230Y-61491312D01*
X87098688Y-61623770D01*
X87202766Y-61779534D01*
X87274454Y-61952604D01*
X87311000Y-62136333D01*
X87311000Y-62323667D01*
X87274454Y-62507396D01*
X87202766Y-62680466D01*
X87098688Y-62836230D01*
X86966230Y-62968688D01*
X86810466Y-63072766D01*
X86637396Y-63144454D01*
X86453667Y-63181000D01*
X86266333Y-63181000D01*
X86082604Y-63144454D01*
X85909534Y-63072766D01*
X85753770Y-62968688D01*
X85621312Y-62836230D01*
X85517234Y-62680466D01*
X85445546Y-62507396D01*
X85409000Y-62323667D01*
X85409000Y-62136333D01*
X85445546Y-61952604D01*
X85517234Y-61779534D01*
X85621312Y-61623770D01*
X85753770Y-61491312D01*
X85909534Y-61387234D01*
X86082604Y-61315546D01*
X86266333Y-61279000D01*
X86453667Y-61279000D01*
X86637396Y-61315546D01*
X86637396Y-61315546D01*
G37*
G36*
X79017396Y-61315546D02*
X79190466Y-61387234D01*
X79346230Y-61491312D01*
X79478688Y-61623770D01*
X79582766Y-61779534D01*
X79654454Y-61952604D01*
X79691000Y-62136333D01*
X79691000Y-62323667D01*
X79654454Y-62507396D01*
X79582766Y-62680466D01*
X79478688Y-62836230D01*
X79346230Y-62968688D01*
X79190466Y-63072766D01*
X79017396Y-63144454D01*
X78833667Y-63181000D01*
X78646333Y-63181000D01*
X78462604Y-63144454D01*
X78289534Y-63072766D01*
X78133770Y-62968688D01*
X78001312Y-62836230D01*
X77897234Y-62680466D01*
X77825546Y-62507396D01*
X77789000Y-62323667D01*
X77789000Y-62136333D01*
X77825546Y-61952604D01*
X77897234Y-61779534D01*
X78001312Y-61623770D01*
X78133770Y-61491312D01*
X78289534Y-61387234D01*
X78462604Y-61315546D01*
X78646333Y-61279000D01*
X78833667Y-61279000D01*
X79017396Y-61315546D01*
X79017396Y-61315546D01*
G37*
G36*
X38279294Y-61328633D02*
X38451694Y-61380931D01*
X38451696Y-61380932D01*
X38610583Y-61465859D01*
X38749849Y-61580151D01*
X38864141Y-61719417D01*
X38896274Y-61779534D01*
X38949069Y-61878306D01*
X39001367Y-62050706D01*
X39019025Y-62230000D01*
X39001367Y-62409294D01*
X38971607Y-62507396D01*
X38949068Y-62581696D01*
X38864141Y-62740583D01*
X38749849Y-62879849D01*
X38610583Y-62994141D01*
X38463488Y-63072765D01*
X38451694Y-63079069D01*
X38279294Y-63131367D01*
X38144931Y-63144600D01*
X38055069Y-63144600D01*
X37920706Y-63131367D01*
X37748306Y-63079069D01*
X37736512Y-63072765D01*
X37589417Y-62994141D01*
X37450151Y-62879849D01*
X37335859Y-62740583D01*
X37250932Y-62581696D01*
X37228393Y-62507396D01*
X37198633Y-62409294D01*
X37180975Y-62230000D01*
X37198633Y-62050706D01*
X37250931Y-61878306D01*
X37303726Y-61779534D01*
X37335859Y-61719417D01*
X37450151Y-61580151D01*
X37589417Y-61465859D01*
X37748304Y-61380932D01*
X37748306Y-61380931D01*
X37920706Y-61328633D01*
X38055069Y-61315400D01*
X38144931Y-61315400D01*
X38279294Y-61328633D01*
X38279294Y-61328633D01*
G37*
G36*
X35739294Y-61328633D02*
X35911694Y-61380931D01*
X35911696Y-61380932D01*
X36070583Y-61465859D01*
X36209849Y-61580151D01*
X36324141Y-61719417D01*
X36356274Y-61779534D01*
X36409069Y-61878306D01*
X36461367Y-62050706D01*
X36479025Y-62230000D01*
X36461367Y-62409294D01*
X36431607Y-62507396D01*
X36409068Y-62581696D01*
X36324141Y-62740583D01*
X36209849Y-62879849D01*
X36070583Y-62994141D01*
X35923488Y-63072765D01*
X35911694Y-63079069D01*
X35739294Y-63131367D01*
X35604931Y-63144600D01*
X35515069Y-63144600D01*
X35380706Y-63131367D01*
X35208306Y-63079069D01*
X35196512Y-63072765D01*
X35049417Y-62994141D01*
X34910151Y-62879849D01*
X34795859Y-62740583D01*
X34710932Y-62581696D01*
X34688393Y-62507396D01*
X34658633Y-62409294D01*
X34640975Y-62230000D01*
X34658633Y-62050706D01*
X34710931Y-61878306D01*
X34763726Y-61779534D01*
X34795859Y-61719417D01*
X34910151Y-61580151D01*
X35049417Y-61465859D01*
X35208304Y-61380932D01*
X35208306Y-61380931D01*
X35380706Y-61328633D01*
X35515069Y-61315400D01*
X35604931Y-61315400D01*
X35739294Y-61328633D01*
X35739294Y-61328633D01*
G37*
G36*
X30659294Y-61328633D02*
X30831694Y-61380931D01*
X30831696Y-61380932D01*
X30990583Y-61465859D01*
X31129849Y-61580151D01*
X31244141Y-61719417D01*
X31276274Y-61779534D01*
X31329069Y-61878306D01*
X31381367Y-62050706D01*
X31399025Y-62230000D01*
X31381367Y-62409294D01*
X31351607Y-62507396D01*
X31329068Y-62581696D01*
X31244141Y-62740583D01*
X31129849Y-62879849D01*
X30990583Y-62994141D01*
X30843488Y-63072765D01*
X30831694Y-63079069D01*
X30659294Y-63131367D01*
X30524931Y-63144600D01*
X30435069Y-63144600D01*
X30300706Y-63131367D01*
X30128306Y-63079069D01*
X30116512Y-63072765D01*
X29969417Y-62994141D01*
X29830151Y-62879849D01*
X29715859Y-62740583D01*
X29630932Y-62581696D01*
X29608393Y-62507396D01*
X29578633Y-62409294D01*
X29560975Y-62230000D01*
X29578633Y-62050706D01*
X29630931Y-61878306D01*
X29683726Y-61779534D01*
X29715859Y-61719417D01*
X29830151Y-61580151D01*
X29969417Y-61465859D01*
X30128304Y-61380932D01*
X30128306Y-61380931D01*
X30300706Y-61328633D01*
X30435069Y-61315400D01*
X30524931Y-61315400D01*
X30659294Y-61328633D01*
X30659294Y-61328633D01*
G37*
G36*
X28119294Y-61328633D02*
X28291694Y-61380931D01*
X28291696Y-61380932D01*
X28450583Y-61465859D01*
X28589849Y-61580151D01*
X28704141Y-61719417D01*
X28736274Y-61779534D01*
X28789069Y-61878306D01*
X28841367Y-62050706D01*
X28859025Y-62230000D01*
X28841367Y-62409294D01*
X28811607Y-62507396D01*
X28789068Y-62581696D01*
X28704141Y-62740583D01*
X28589849Y-62879849D01*
X28450583Y-62994141D01*
X28303488Y-63072765D01*
X28291694Y-63079069D01*
X28119294Y-63131367D01*
X27984931Y-63144600D01*
X27895069Y-63144600D01*
X27760706Y-63131367D01*
X27588306Y-63079069D01*
X27576512Y-63072765D01*
X27429417Y-62994141D01*
X27290151Y-62879849D01*
X27175859Y-62740583D01*
X27090932Y-62581696D01*
X27068393Y-62507396D01*
X27038633Y-62409294D01*
X27020975Y-62230000D01*
X27038633Y-62050706D01*
X27090931Y-61878306D01*
X27143726Y-61779534D01*
X27175859Y-61719417D01*
X27290151Y-61580151D01*
X27429417Y-61465859D01*
X27588304Y-61380932D01*
X27588306Y-61380931D01*
X27760706Y-61328633D01*
X27895069Y-61315400D01*
X27984931Y-61315400D01*
X28119294Y-61328633D01*
X28119294Y-61328633D01*
G37*
G36*
X33199294Y-61328633D02*
X33371694Y-61380931D01*
X33371696Y-61380932D01*
X33530583Y-61465859D01*
X33669849Y-61580151D01*
X33784141Y-61719417D01*
X33816274Y-61779534D01*
X33869069Y-61878306D01*
X33921367Y-62050706D01*
X33939025Y-62230000D01*
X33921367Y-62409294D01*
X33891607Y-62507396D01*
X33869068Y-62581696D01*
X33784141Y-62740583D01*
X33669849Y-62879849D01*
X33530583Y-62994141D01*
X33383488Y-63072765D01*
X33371694Y-63079069D01*
X33199294Y-63131367D01*
X33064931Y-63144600D01*
X32975069Y-63144600D01*
X32840706Y-63131367D01*
X32668306Y-63079069D01*
X32656512Y-63072765D01*
X32509417Y-62994141D01*
X32370151Y-62879849D01*
X32255859Y-62740583D01*
X32170932Y-62581696D01*
X32148393Y-62507396D01*
X32118633Y-62409294D01*
X32100975Y-62230000D01*
X32118633Y-62050706D01*
X32170931Y-61878306D01*
X32223726Y-61779534D01*
X32255859Y-61719417D01*
X32370151Y-61580151D01*
X32509417Y-61465859D01*
X32668304Y-61380932D01*
X32668306Y-61380931D01*
X32840706Y-61328633D01*
X32975069Y-61315400D01*
X33064931Y-61315400D01*
X33199294Y-61328633D01*
X33199294Y-61328633D01*
G37*
G36*
X41554600Y-63144600D02*
X39725400Y-63144600D01*
X39725400Y-61315400D01*
X41554600Y-61315400D01*
X41554600Y-63144600D01*
X41554600Y-63144600D01*
G37*
G36*
X53450443Y-52445519D02*
X53516627Y-52452037D01*
X53629853Y-52486384D01*
X53686467Y-52503557D01*
X53825087Y-52577652D01*
X53842991Y-52587222D01*
X53878729Y-52616552D01*
X53980186Y-52699814D01*
X54063448Y-52801271D01*
X54092778Y-52837009D01*
X54092779Y-52837011D01*
X54176443Y-52993533D01*
X54176443Y-52993534D01*
X54227963Y-53163373D01*
X54245359Y-53340000D01*
X54227963Y-53516627D01*
X54193616Y-53629853D01*
X54176443Y-53686467D01*
X54102348Y-53825087D01*
X54092778Y-53842991D01*
X54063448Y-53878729D01*
X53980186Y-53980186D01*
X53878729Y-54063448D01*
X53842991Y-54092778D01*
X53842989Y-54092779D01*
X53686467Y-54176443D01*
X53638478Y-54191000D01*
X53516627Y-54227963D01*
X53450442Y-54234482D01*
X53384260Y-54241000D01*
X53295740Y-54241000D01*
X53229558Y-54234482D01*
X53163373Y-54227963D01*
X53041522Y-54191000D01*
X52993533Y-54176443D01*
X52837011Y-54092779D01*
X52837009Y-54092778D01*
X52801271Y-54063448D01*
X52699814Y-53980186D01*
X52616552Y-53878729D01*
X52587222Y-53842991D01*
X52577652Y-53825087D01*
X52503557Y-53686467D01*
X52486384Y-53629853D01*
X52452037Y-53516627D01*
X52434641Y-53340000D01*
X52452037Y-53163373D01*
X52503557Y-52993534D01*
X52503557Y-52993533D01*
X52587221Y-52837011D01*
X52587222Y-52837009D01*
X52616552Y-52801271D01*
X52699814Y-52699814D01*
X52801271Y-52616552D01*
X52837009Y-52587222D01*
X52854913Y-52577652D01*
X52993533Y-52503557D01*
X53050147Y-52486384D01*
X53163373Y-52452037D01*
X53229558Y-52445518D01*
X53295740Y-52439000D01*
X53384260Y-52439000D01*
X53450443Y-52445519D01*
X53450443Y-52445519D01*
G37*
G36*
X30590443Y-52445519D02*
X30656627Y-52452037D01*
X30769853Y-52486384D01*
X30826467Y-52503557D01*
X30965087Y-52577652D01*
X30982991Y-52587222D01*
X31018729Y-52616552D01*
X31120186Y-52699814D01*
X31203448Y-52801271D01*
X31232778Y-52837009D01*
X31232779Y-52837011D01*
X31316443Y-52993533D01*
X31316443Y-52993534D01*
X31367963Y-53163373D01*
X31385359Y-53340000D01*
X31367963Y-53516627D01*
X31333616Y-53629853D01*
X31316443Y-53686467D01*
X31242348Y-53825087D01*
X31232778Y-53842991D01*
X31203448Y-53878729D01*
X31120186Y-53980186D01*
X31018729Y-54063448D01*
X30982991Y-54092778D01*
X30982989Y-54092779D01*
X30826467Y-54176443D01*
X30778478Y-54191000D01*
X30656627Y-54227963D01*
X30590442Y-54234482D01*
X30524260Y-54241000D01*
X30435740Y-54241000D01*
X30369558Y-54234482D01*
X30303373Y-54227963D01*
X30181522Y-54191000D01*
X30133533Y-54176443D01*
X29977011Y-54092779D01*
X29977009Y-54092778D01*
X29941271Y-54063448D01*
X29839814Y-53980186D01*
X29756552Y-53878729D01*
X29727222Y-53842991D01*
X29717652Y-53825087D01*
X29643557Y-53686467D01*
X29626384Y-53629853D01*
X29592037Y-53516627D01*
X29574641Y-53340000D01*
X29592037Y-53163373D01*
X29643557Y-52993534D01*
X29643557Y-52993533D01*
X29727221Y-52837011D01*
X29727222Y-52837009D01*
X29756552Y-52801271D01*
X29839814Y-52699814D01*
X29941271Y-52616552D01*
X29977009Y-52587222D01*
X29994913Y-52577652D01*
X30133533Y-52503557D01*
X30190147Y-52486384D01*
X30303373Y-52452037D01*
X30369558Y-52445518D01*
X30435740Y-52439000D01*
X30524260Y-52439000D01*
X30590443Y-52445519D01*
X30590443Y-52445519D01*
G37*
G36*
X20430443Y-52445519D02*
X20496627Y-52452037D01*
X20609853Y-52486384D01*
X20666467Y-52503557D01*
X20805087Y-52577652D01*
X20822991Y-52587222D01*
X20858729Y-52616552D01*
X20960186Y-52699814D01*
X21043448Y-52801271D01*
X21072778Y-52837009D01*
X21072779Y-52837011D01*
X21156443Y-52993533D01*
X21156443Y-52993534D01*
X21207963Y-53163373D01*
X21225359Y-53340000D01*
X21207963Y-53516627D01*
X21173616Y-53629853D01*
X21156443Y-53686467D01*
X21082348Y-53825087D01*
X21072778Y-53842991D01*
X21043448Y-53878729D01*
X20960186Y-53980186D01*
X20858729Y-54063448D01*
X20822991Y-54092778D01*
X20822989Y-54092779D01*
X20666467Y-54176443D01*
X20618478Y-54191000D01*
X20496627Y-54227963D01*
X20430442Y-54234482D01*
X20364260Y-54241000D01*
X20275740Y-54241000D01*
X20209558Y-54234482D01*
X20143373Y-54227963D01*
X20021522Y-54191000D01*
X19973533Y-54176443D01*
X19817011Y-54092779D01*
X19817009Y-54092778D01*
X19781271Y-54063448D01*
X19679814Y-53980186D01*
X19596552Y-53878729D01*
X19567222Y-53842991D01*
X19557652Y-53825087D01*
X19483557Y-53686467D01*
X19466384Y-53629853D01*
X19432037Y-53516627D01*
X19414641Y-53340000D01*
X19432037Y-53163373D01*
X19483557Y-52993534D01*
X19483557Y-52993533D01*
X19567221Y-52837011D01*
X19567222Y-52837009D01*
X19596552Y-52801271D01*
X19679814Y-52699814D01*
X19781271Y-52616552D01*
X19817009Y-52587222D01*
X19834913Y-52577652D01*
X19973533Y-52503557D01*
X20030147Y-52486384D01*
X20143373Y-52452037D01*
X20209558Y-52445518D01*
X20275740Y-52439000D01*
X20364260Y-52439000D01*
X20430443Y-52445519D01*
X20430443Y-52445519D01*
G37*
G36*
X96630443Y-52445519D02*
X96696627Y-52452037D01*
X96809853Y-52486384D01*
X96866467Y-52503557D01*
X97005087Y-52577652D01*
X97022991Y-52587222D01*
X97058729Y-52616552D01*
X97160186Y-52699814D01*
X97243448Y-52801271D01*
X97272778Y-52837009D01*
X97272779Y-52837011D01*
X97356443Y-52993533D01*
X97356443Y-52993534D01*
X97407963Y-53163373D01*
X97425359Y-53340000D01*
X97407963Y-53516627D01*
X97373616Y-53629853D01*
X97356443Y-53686467D01*
X97282348Y-53825087D01*
X97272778Y-53842991D01*
X97243448Y-53878729D01*
X97160186Y-53980186D01*
X97058729Y-54063448D01*
X97022991Y-54092778D01*
X97022989Y-54092779D01*
X96866467Y-54176443D01*
X96818478Y-54191000D01*
X96696627Y-54227963D01*
X96630442Y-54234482D01*
X96564260Y-54241000D01*
X96475740Y-54241000D01*
X96409558Y-54234482D01*
X96343373Y-54227963D01*
X96221522Y-54191000D01*
X96173533Y-54176443D01*
X96017011Y-54092779D01*
X96017009Y-54092778D01*
X95981271Y-54063448D01*
X95879814Y-53980186D01*
X95796552Y-53878729D01*
X95767222Y-53842991D01*
X95757652Y-53825087D01*
X95683557Y-53686467D01*
X95666384Y-53629853D01*
X95632037Y-53516627D01*
X95614641Y-53340000D01*
X95632037Y-53163373D01*
X95683557Y-52993534D01*
X95683557Y-52993533D01*
X95767221Y-52837011D01*
X95767222Y-52837009D01*
X95796552Y-52801271D01*
X95879814Y-52699814D01*
X95981271Y-52616552D01*
X96017009Y-52587222D01*
X96034913Y-52577652D01*
X96173533Y-52503557D01*
X96230147Y-52486384D01*
X96343373Y-52452037D01*
X96409558Y-52445518D01*
X96475740Y-52439000D01*
X96564260Y-52439000D01*
X96630443Y-52445519D01*
X96630443Y-52445519D01*
G37*
G36*
X63610443Y-52445519D02*
X63676627Y-52452037D01*
X63789853Y-52486384D01*
X63846467Y-52503557D01*
X63985087Y-52577652D01*
X64002991Y-52587222D01*
X64038729Y-52616552D01*
X64140186Y-52699814D01*
X64223448Y-52801271D01*
X64252778Y-52837009D01*
X64252779Y-52837011D01*
X64336443Y-52993533D01*
X64336443Y-52993534D01*
X64387963Y-53163373D01*
X64405359Y-53340000D01*
X64387963Y-53516627D01*
X64353616Y-53629853D01*
X64336443Y-53686467D01*
X64262348Y-53825087D01*
X64252778Y-53842991D01*
X64223448Y-53878729D01*
X64140186Y-53980186D01*
X64038729Y-54063448D01*
X64002991Y-54092778D01*
X64002989Y-54092779D01*
X63846467Y-54176443D01*
X63798478Y-54191000D01*
X63676627Y-54227963D01*
X63610442Y-54234482D01*
X63544260Y-54241000D01*
X63455740Y-54241000D01*
X63389558Y-54234482D01*
X63323373Y-54227963D01*
X63201522Y-54191000D01*
X63153533Y-54176443D01*
X62997011Y-54092779D01*
X62997009Y-54092778D01*
X62961271Y-54063448D01*
X62859814Y-53980186D01*
X62776552Y-53878729D01*
X62747222Y-53842991D01*
X62737652Y-53825087D01*
X62663557Y-53686467D01*
X62646384Y-53629853D01*
X62612037Y-53516627D01*
X62594641Y-53340000D01*
X62612037Y-53163373D01*
X62663557Y-52993534D01*
X62663557Y-52993533D01*
X62747221Y-52837011D01*
X62747222Y-52837009D01*
X62776552Y-52801271D01*
X62859814Y-52699814D01*
X62961271Y-52616552D01*
X62997009Y-52587222D01*
X63014913Y-52577652D01*
X63153533Y-52503557D01*
X63210147Y-52486384D01*
X63323373Y-52452037D01*
X63389558Y-52445518D01*
X63455740Y-52439000D01*
X63544260Y-52439000D01*
X63610443Y-52445519D01*
X63610443Y-52445519D01*
G37*
G36*
X106790443Y-52445519D02*
X106856627Y-52452037D01*
X106969853Y-52486384D01*
X107026467Y-52503557D01*
X107165087Y-52577652D01*
X107182991Y-52587222D01*
X107218729Y-52616552D01*
X107320186Y-52699814D01*
X107403448Y-52801271D01*
X107432778Y-52837009D01*
X107432779Y-52837011D01*
X107516443Y-52993533D01*
X107516443Y-52993534D01*
X107567963Y-53163373D01*
X107585359Y-53340000D01*
X107567963Y-53516627D01*
X107533616Y-53629853D01*
X107516443Y-53686467D01*
X107442348Y-53825087D01*
X107432778Y-53842991D01*
X107403448Y-53878729D01*
X107320186Y-53980186D01*
X107218729Y-54063448D01*
X107182991Y-54092778D01*
X107182989Y-54092779D01*
X107026467Y-54176443D01*
X106978478Y-54191000D01*
X106856627Y-54227963D01*
X106790442Y-54234482D01*
X106724260Y-54241000D01*
X106635740Y-54241000D01*
X106569558Y-54234482D01*
X106503373Y-54227963D01*
X106381522Y-54191000D01*
X106333533Y-54176443D01*
X106177011Y-54092779D01*
X106177009Y-54092778D01*
X106141271Y-54063448D01*
X106039814Y-53980186D01*
X105956552Y-53878729D01*
X105927222Y-53842991D01*
X105917652Y-53825087D01*
X105843557Y-53686467D01*
X105826384Y-53629853D01*
X105792037Y-53516627D01*
X105774641Y-53340000D01*
X105792037Y-53163373D01*
X105843557Y-52993534D01*
X105843557Y-52993533D01*
X105927221Y-52837011D01*
X105927222Y-52837009D01*
X105956552Y-52801271D01*
X106039814Y-52699814D01*
X106141271Y-52616552D01*
X106177009Y-52587222D01*
X106194913Y-52577652D01*
X106333533Y-52503557D01*
X106390147Y-52486384D01*
X106503373Y-52452037D01*
X106569558Y-52445518D01*
X106635740Y-52439000D01*
X106724260Y-52439000D01*
X106790443Y-52445519D01*
X106790443Y-52445519D01*
G37*
G36*
X86470443Y-52445519D02*
X86536627Y-52452037D01*
X86649853Y-52486384D01*
X86706467Y-52503557D01*
X86845087Y-52577652D01*
X86862991Y-52587222D01*
X86898729Y-52616552D01*
X87000186Y-52699814D01*
X87083448Y-52801271D01*
X87112778Y-52837009D01*
X87112779Y-52837011D01*
X87196443Y-52993533D01*
X87196443Y-52993534D01*
X87247963Y-53163373D01*
X87265359Y-53340000D01*
X87247963Y-53516627D01*
X87213616Y-53629853D01*
X87196443Y-53686467D01*
X87122348Y-53825087D01*
X87112778Y-53842991D01*
X87083448Y-53878729D01*
X87000186Y-53980186D01*
X86898729Y-54063448D01*
X86862991Y-54092778D01*
X86862989Y-54092779D01*
X86706467Y-54176443D01*
X86658478Y-54191000D01*
X86536627Y-54227963D01*
X86470442Y-54234482D01*
X86404260Y-54241000D01*
X86315740Y-54241000D01*
X86249558Y-54234482D01*
X86183373Y-54227963D01*
X86061522Y-54191000D01*
X86013533Y-54176443D01*
X85857011Y-54092779D01*
X85857009Y-54092778D01*
X85821271Y-54063448D01*
X85719814Y-53980186D01*
X85636552Y-53878729D01*
X85607222Y-53842991D01*
X85597652Y-53825087D01*
X85523557Y-53686467D01*
X85506384Y-53629853D01*
X85472037Y-53516627D01*
X85454641Y-53340000D01*
X85472037Y-53163373D01*
X85523557Y-52993534D01*
X85523557Y-52993533D01*
X85607221Y-52837011D01*
X85607222Y-52837009D01*
X85636552Y-52801271D01*
X85719814Y-52699814D01*
X85821271Y-52616552D01*
X85857009Y-52587222D01*
X85874913Y-52577652D01*
X86013533Y-52503557D01*
X86070147Y-52486384D01*
X86183373Y-52452037D01*
X86249558Y-52445518D01*
X86315740Y-52439000D01*
X86404260Y-52439000D01*
X86470443Y-52445519D01*
X86470443Y-52445519D01*
G37*
G36*
X73770443Y-52445519D02*
X73836627Y-52452037D01*
X73949853Y-52486384D01*
X74006467Y-52503557D01*
X74145087Y-52577652D01*
X74162991Y-52587222D01*
X74198729Y-52616552D01*
X74300186Y-52699814D01*
X74383448Y-52801271D01*
X74412778Y-52837009D01*
X74412779Y-52837011D01*
X74496443Y-52993533D01*
X74496443Y-52993534D01*
X74547963Y-53163373D01*
X74565359Y-53340000D01*
X74547963Y-53516627D01*
X74513616Y-53629853D01*
X74496443Y-53686467D01*
X74422348Y-53825087D01*
X74412778Y-53842991D01*
X74383448Y-53878729D01*
X74300186Y-53980186D01*
X74198729Y-54063448D01*
X74162991Y-54092778D01*
X74162989Y-54092779D01*
X74006467Y-54176443D01*
X73958478Y-54191000D01*
X73836627Y-54227963D01*
X73770442Y-54234482D01*
X73704260Y-54241000D01*
X73615740Y-54241000D01*
X73549558Y-54234482D01*
X73483373Y-54227963D01*
X73361522Y-54191000D01*
X73313533Y-54176443D01*
X73157011Y-54092779D01*
X73157009Y-54092778D01*
X73121271Y-54063448D01*
X73019814Y-53980186D01*
X72936552Y-53878729D01*
X72907222Y-53842991D01*
X72897652Y-53825087D01*
X72823557Y-53686467D01*
X72806384Y-53629853D01*
X72772037Y-53516627D01*
X72754641Y-53340000D01*
X72772037Y-53163373D01*
X72823557Y-52993534D01*
X72823557Y-52993533D01*
X72907221Y-52837011D01*
X72907222Y-52837009D01*
X72936552Y-52801271D01*
X73019814Y-52699814D01*
X73121271Y-52616552D01*
X73157009Y-52587222D01*
X73174913Y-52577652D01*
X73313533Y-52503557D01*
X73370147Y-52486384D01*
X73483373Y-52452037D01*
X73549558Y-52445518D01*
X73615740Y-52439000D01*
X73704260Y-52439000D01*
X73770443Y-52445519D01*
X73770443Y-52445519D01*
G37*
G36*
X40750443Y-52445519D02*
X40816627Y-52452037D01*
X40929853Y-52486384D01*
X40986467Y-52503557D01*
X41125087Y-52577652D01*
X41142991Y-52587222D01*
X41178729Y-52616552D01*
X41280186Y-52699814D01*
X41363448Y-52801271D01*
X41392778Y-52837009D01*
X41392779Y-52837011D01*
X41476443Y-52993533D01*
X41476443Y-52993534D01*
X41527963Y-53163373D01*
X41545359Y-53340000D01*
X41527963Y-53516627D01*
X41493616Y-53629853D01*
X41476443Y-53686467D01*
X41402348Y-53825087D01*
X41392778Y-53842991D01*
X41363448Y-53878729D01*
X41280186Y-53980186D01*
X41178729Y-54063448D01*
X41142991Y-54092778D01*
X41142989Y-54092779D01*
X40986467Y-54176443D01*
X40938478Y-54191000D01*
X40816627Y-54227963D01*
X40750442Y-54234482D01*
X40684260Y-54241000D01*
X40595740Y-54241000D01*
X40529558Y-54234482D01*
X40463373Y-54227963D01*
X40341522Y-54191000D01*
X40293533Y-54176443D01*
X40137011Y-54092779D01*
X40137009Y-54092778D01*
X40101271Y-54063448D01*
X39999814Y-53980186D01*
X39916552Y-53878729D01*
X39887222Y-53842991D01*
X39877652Y-53825087D01*
X39803557Y-53686467D01*
X39786384Y-53629853D01*
X39752037Y-53516627D01*
X39734641Y-53340000D01*
X39752037Y-53163373D01*
X39803557Y-52993534D01*
X39803557Y-52993533D01*
X39887221Y-52837011D01*
X39887222Y-52837009D01*
X39916552Y-52801271D01*
X39999814Y-52699814D01*
X40101271Y-52616552D01*
X40137009Y-52587222D01*
X40154913Y-52577652D01*
X40293533Y-52503557D01*
X40350147Y-52486384D01*
X40463373Y-52452037D01*
X40529558Y-52445518D01*
X40595740Y-52439000D01*
X40684260Y-52439000D01*
X40750443Y-52445519D01*
X40750443Y-52445519D01*
G37*
G36*
X47841000Y-54191000D02*
X46139000Y-54191000D01*
X46139000Y-52489000D01*
X47841000Y-52489000D01*
X47841000Y-54191000D01*
X47841000Y-54191000D01*
G37*
G36*
X20430442Y-49905518D02*
X20496627Y-49912037D01*
X20609853Y-49946384D01*
X20666467Y-49963557D01*
X20775249Y-50021703D01*
X20822991Y-50047222D01*
X20858729Y-50076552D01*
X20960186Y-50159814D01*
X21043448Y-50261271D01*
X21072778Y-50297009D01*
X21072779Y-50297011D01*
X21156443Y-50453533D01*
X21156443Y-50453534D01*
X21207963Y-50623373D01*
X21225359Y-50800000D01*
X21207963Y-50976627D01*
X21174109Y-51088228D01*
X21156443Y-51146467D01*
X21104791Y-51243100D01*
X21072778Y-51302991D01*
X21043448Y-51338729D01*
X20960186Y-51440186D01*
X20858729Y-51523448D01*
X20822991Y-51552778D01*
X20822989Y-51552779D01*
X20666467Y-51636443D01*
X20618478Y-51651000D01*
X20496627Y-51687963D01*
X20430442Y-51694482D01*
X20364260Y-51701000D01*
X20275740Y-51701000D01*
X20209558Y-51694482D01*
X20143373Y-51687963D01*
X20021522Y-51651000D01*
X19973533Y-51636443D01*
X19817011Y-51552779D01*
X19817009Y-51552778D01*
X19781271Y-51523448D01*
X19679814Y-51440186D01*
X19596552Y-51338729D01*
X19567222Y-51302991D01*
X19535209Y-51243100D01*
X19483557Y-51146467D01*
X19465891Y-51088228D01*
X19432037Y-50976627D01*
X19414641Y-50800000D01*
X19432037Y-50623373D01*
X19483557Y-50453534D01*
X19483557Y-50453533D01*
X19567221Y-50297011D01*
X19567222Y-50297009D01*
X19596552Y-50261271D01*
X19679814Y-50159814D01*
X19781271Y-50076552D01*
X19817009Y-50047222D01*
X19864751Y-50021703D01*
X19973533Y-49963557D01*
X20030147Y-49946384D01*
X20143373Y-49912037D01*
X20209558Y-49905518D01*
X20275740Y-49899000D01*
X20364260Y-49899000D01*
X20430442Y-49905518D01*
X20430442Y-49905518D01*
G37*
G36*
X30590442Y-49905518D02*
X30656627Y-49912037D01*
X30769853Y-49946384D01*
X30826467Y-49963557D01*
X30935249Y-50021703D01*
X30982991Y-50047222D01*
X31018729Y-50076552D01*
X31120186Y-50159814D01*
X31203448Y-50261271D01*
X31232778Y-50297009D01*
X31232779Y-50297011D01*
X31316443Y-50453533D01*
X31316443Y-50453534D01*
X31367963Y-50623373D01*
X31385359Y-50800000D01*
X31367963Y-50976627D01*
X31334109Y-51088228D01*
X31316443Y-51146467D01*
X31264791Y-51243100D01*
X31232778Y-51302991D01*
X31203448Y-51338729D01*
X31120186Y-51440186D01*
X31018729Y-51523448D01*
X30982991Y-51552778D01*
X30982989Y-51552779D01*
X30826467Y-51636443D01*
X30778478Y-51651000D01*
X30656627Y-51687963D01*
X30590442Y-51694482D01*
X30524260Y-51701000D01*
X30435740Y-51701000D01*
X30369558Y-51694482D01*
X30303373Y-51687963D01*
X30181522Y-51651000D01*
X30133533Y-51636443D01*
X29977011Y-51552779D01*
X29977009Y-51552778D01*
X29941271Y-51523448D01*
X29839814Y-51440186D01*
X29756552Y-51338729D01*
X29727222Y-51302991D01*
X29695209Y-51243100D01*
X29643557Y-51146467D01*
X29625891Y-51088228D01*
X29592037Y-50976627D01*
X29574641Y-50800000D01*
X29592037Y-50623373D01*
X29643557Y-50453534D01*
X29643557Y-50453533D01*
X29727221Y-50297011D01*
X29727222Y-50297009D01*
X29756552Y-50261271D01*
X29839814Y-50159814D01*
X29941271Y-50076552D01*
X29977009Y-50047222D01*
X30024751Y-50021703D01*
X30133533Y-49963557D01*
X30190147Y-49946384D01*
X30303373Y-49912037D01*
X30369557Y-49905519D01*
X30435740Y-49899000D01*
X30524260Y-49899000D01*
X30590442Y-49905518D01*
X30590442Y-49905518D01*
G37*
G36*
X40750442Y-49905518D02*
X40816627Y-49912037D01*
X40929853Y-49946384D01*
X40986467Y-49963557D01*
X41095249Y-50021703D01*
X41142991Y-50047222D01*
X41178729Y-50076552D01*
X41280186Y-50159814D01*
X41363448Y-50261271D01*
X41392778Y-50297009D01*
X41392779Y-50297011D01*
X41476443Y-50453533D01*
X41476443Y-50453534D01*
X41527963Y-50623373D01*
X41545359Y-50800000D01*
X41527963Y-50976627D01*
X41494109Y-51088228D01*
X41476443Y-51146467D01*
X41424791Y-51243100D01*
X41392778Y-51302991D01*
X41363448Y-51338729D01*
X41280186Y-51440186D01*
X41178729Y-51523448D01*
X41142991Y-51552778D01*
X41142989Y-51552779D01*
X40986467Y-51636443D01*
X40938478Y-51651000D01*
X40816627Y-51687963D01*
X40750442Y-51694482D01*
X40684260Y-51701000D01*
X40595740Y-51701000D01*
X40529558Y-51694482D01*
X40463373Y-51687963D01*
X40341522Y-51651000D01*
X40293533Y-51636443D01*
X40137011Y-51552779D01*
X40137009Y-51552778D01*
X40101271Y-51523448D01*
X39999814Y-51440186D01*
X39916552Y-51338729D01*
X39887222Y-51302991D01*
X39855209Y-51243100D01*
X39803557Y-51146467D01*
X39785891Y-51088228D01*
X39752037Y-50976627D01*
X39734641Y-50800000D01*
X39752037Y-50623373D01*
X39803557Y-50453534D01*
X39803557Y-50453533D01*
X39887221Y-50297011D01*
X39887222Y-50297009D01*
X39916552Y-50261271D01*
X39999814Y-50159814D01*
X40101271Y-50076552D01*
X40137009Y-50047222D01*
X40184751Y-50021703D01*
X40293533Y-49963557D01*
X40350147Y-49946384D01*
X40463373Y-49912037D01*
X40529557Y-49905519D01*
X40595740Y-49899000D01*
X40684260Y-49899000D01*
X40750442Y-49905518D01*
X40750442Y-49905518D01*
G37*
G36*
X53450442Y-49905518D02*
X53516627Y-49912037D01*
X53629853Y-49946384D01*
X53686467Y-49963557D01*
X53795249Y-50021703D01*
X53842991Y-50047222D01*
X53878729Y-50076552D01*
X53980186Y-50159814D01*
X54063448Y-50261271D01*
X54092778Y-50297009D01*
X54092779Y-50297011D01*
X54176443Y-50453533D01*
X54176443Y-50453534D01*
X54227963Y-50623373D01*
X54245359Y-50800000D01*
X54227963Y-50976627D01*
X54194109Y-51088228D01*
X54176443Y-51146467D01*
X54124791Y-51243100D01*
X54092778Y-51302991D01*
X54063448Y-51338729D01*
X53980186Y-51440186D01*
X53878729Y-51523448D01*
X53842991Y-51552778D01*
X53842989Y-51552779D01*
X53686467Y-51636443D01*
X53638478Y-51651000D01*
X53516627Y-51687963D01*
X53450442Y-51694482D01*
X53384260Y-51701000D01*
X53295740Y-51701000D01*
X53229558Y-51694482D01*
X53163373Y-51687963D01*
X53041522Y-51651000D01*
X52993533Y-51636443D01*
X52837011Y-51552779D01*
X52837009Y-51552778D01*
X52801271Y-51523448D01*
X52699814Y-51440186D01*
X52616552Y-51338729D01*
X52587222Y-51302991D01*
X52555209Y-51243100D01*
X52503557Y-51146467D01*
X52485891Y-51088228D01*
X52452037Y-50976627D01*
X52434641Y-50800000D01*
X52452037Y-50623373D01*
X52503557Y-50453534D01*
X52503557Y-50453533D01*
X52587221Y-50297011D01*
X52587222Y-50297009D01*
X52616552Y-50261271D01*
X52699814Y-50159814D01*
X52801271Y-50076552D01*
X52837009Y-50047222D01*
X52884751Y-50021703D01*
X52993533Y-49963557D01*
X53050147Y-49946384D01*
X53163373Y-49912037D01*
X53229557Y-49905519D01*
X53295740Y-49899000D01*
X53384260Y-49899000D01*
X53450442Y-49905518D01*
X53450442Y-49905518D01*
G37*
G36*
X106790442Y-49905518D02*
X106856627Y-49912037D01*
X106969853Y-49946384D01*
X107026467Y-49963557D01*
X107135249Y-50021703D01*
X107182991Y-50047222D01*
X107218729Y-50076552D01*
X107320186Y-50159814D01*
X107403448Y-50261271D01*
X107432778Y-50297009D01*
X107432779Y-50297011D01*
X107516443Y-50453533D01*
X107516443Y-50453534D01*
X107567963Y-50623373D01*
X107585359Y-50800000D01*
X107567963Y-50976627D01*
X107534109Y-51088228D01*
X107516443Y-51146467D01*
X107464791Y-51243100D01*
X107432778Y-51302991D01*
X107403448Y-51338729D01*
X107320186Y-51440186D01*
X107218729Y-51523448D01*
X107182991Y-51552778D01*
X107182989Y-51552779D01*
X107026467Y-51636443D01*
X106978478Y-51651000D01*
X106856627Y-51687963D01*
X106790442Y-51694482D01*
X106724260Y-51701000D01*
X106635740Y-51701000D01*
X106569558Y-51694482D01*
X106503373Y-51687963D01*
X106381522Y-51651000D01*
X106333533Y-51636443D01*
X106177011Y-51552779D01*
X106177009Y-51552778D01*
X106141271Y-51523448D01*
X106039814Y-51440186D01*
X105956552Y-51338729D01*
X105927222Y-51302991D01*
X105895209Y-51243100D01*
X105843557Y-51146467D01*
X105825891Y-51088228D01*
X105792037Y-50976627D01*
X105774641Y-50800000D01*
X105792037Y-50623373D01*
X105843557Y-50453534D01*
X105843557Y-50453533D01*
X105927221Y-50297011D01*
X105927222Y-50297009D01*
X105956552Y-50261271D01*
X106039814Y-50159814D01*
X106141271Y-50076552D01*
X106177009Y-50047222D01*
X106224751Y-50021703D01*
X106333533Y-49963557D01*
X106390147Y-49946384D01*
X106503373Y-49912037D01*
X106569557Y-49905519D01*
X106635740Y-49899000D01*
X106724260Y-49899000D01*
X106790442Y-49905518D01*
X106790442Y-49905518D01*
G37*
G36*
X96630442Y-49905518D02*
X96696627Y-49912037D01*
X96809853Y-49946384D01*
X96866467Y-49963557D01*
X96975249Y-50021703D01*
X97022991Y-50047222D01*
X97058729Y-50076552D01*
X97160186Y-50159814D01*
X97243448Y-50261271D01*
X97272778Y-50297009D01*
X97272779Y-50297011D01*
X97356443Y-50453533D01*
X97356443Y-50453534D01*
X97407963Y-50623373D01*
X97425359Y-50800000D01*
X97407963Y-50976627D01*
X97374109Y-51088228D01*
X97356443Y-51146467D01*
X97304791Y-51243100D01*
X97272778Y-51302991D01*
X97243448Y-51338729D01*
X97160186Y-51440186D01*
X97058729Y-51523448D01*
X97022991Y-51552778D01*
X97022989Y-51552779D01*
X96866467Y-51636443D01*
X96818478Y-51651000D01*
X96696627Y-51687963D01*
X96630442Y-51694482D01*
X96564260Y-51701000D01*
X96475740Y-51701000D01*
X96409558Y-51694482D01*
X96343373Y-51687963D01*
X96221522Y-51651000D01*
X96173533Y-51636443D01*
X96017011Y-51552779D01*
X96017009Y-51552778D01*
X95981271Y-51523448D01*
X95879814Y-51440186D01*
X95796552Y-51338729D01*
X95767222Y-51302991D01*
X95735209Y-51243100D01*
X95683557Y-51146467D01*
X95665891Y-51088228D01*
X95632037Y-50976627D01*
X95614641Y-50800000D01*
X95632037Y-50623373D01*
X95683557Y-50453534D01*
X95683557Y-50453533D01*
X95767221Y-50297011D01*
X95767222Y-50297009D01*
X95796552Y-50261271D01*
X95879814Y-50159814D01*
X95981271Y-50076552D01*
X96017009Y-50047222D01*
X96064751Y-50021703D01*
X96173533Y-49963557D01*
X96230147Y-49946384D01*
X96343373Y-49912037D01*
X96409557Y-49905519D01*
X96475740Y-49899000D01*
X96564260Y-49899000D01*
X96630442Y-49905518D01*
X96630442Y-49905518D01*
G37*
G36*
X73770442Y-49905518D02*
X73836627Y-49912037D01*
X73949853Y-49946384D01*
X74006467Y-49963557D01*
X74115249Y-50021703D01*
X74162991Y-50047222D01*
X74198729Y-50076552D01*
X74300186Y-50159814D01*
X74383448Y-50261271D01*
X74412778Y-50297009D01*
X74412779Y-50297011D01*
X74496443Y-50453533D01*
X74496443Y-50453534D01*
X74547963Y-50623373D01*
X74565359Y-50800000D01*
X74547963Y-50976627D01*
X74514109Y-51088228D01*
X74496443Y-51146467D01*
X74444791Y-51243100D01*
X74412778Y-51302991D01*
X74383448Y-51338729D01*
X74300186Y-51440186D01*
X74198729Y-51523448D01*
X74162991Y-51552778D01*
X74162989Y-51552779D01*
X74006467Y-51636443D01*
X73958478Y-51651000D01*
X73836627Y-51687963D01*
X73770442Y-51694482D01*
X73704260Y-51701000D01*
X73615740Y-51701000D01*
X73549558Y-51694482D01*
X73483373Y-51687963D01*
X73361522Y-51651000D01*
X73313533Y-51636443D01*
X73157011Y-51552779D01*
X73157009Y-51552778D01*
X73121271Y-51523448D01*
X73019814Y-51440186D01*
X72936552Y-51338729D01*
X72907222Y-51302991D01*
X72875209Y-51243100D01*
X72823557Y-51146467D01*
X72805891Y-51088228D01*
X72772037Y-50976627D01*
X72754641Y-50800000D01*
X72772037Y-50623373D01*
X72823557Y-50453534D01*
X72823557Y-50453533D01*
X72907221Y-50297011D01*
X72907222Y-50297009D01*
X72936552Y-50261271D01*
X73019814Y-50159814D01*
X73121271Y-50076552D01*
X73157009Y-50047222D01*
X73204751Y-50021703D01*
X73313533Y-49963557D01*
X73370147Y-49946384D01*
X73483373Y-49912037D01*
X73549557Y-49905519D01*
X73615740Y-49899000D01*
X73704260Y-49899000D01*
X73770442Y-49905518D01*
X73770442Y-49905518D01*
G37*
G36*
X86470442Y-49905518D02*
X86536627Y-49912037D01*
X86649853Y-49946384D01*
X86706467Y-49963557D01*
X86815249Y-50021703D01*
X86862991Y-50047222D01*
X86898729Y-50076552D01*
X87000186Y-50159814D01*
X87083448Y-50261271D01*
X87112778Y-50297009D01*
X87112779Y-50297011D01*
X87196443Y-50453533D01*
X87196443Y-50453534D01*
X87247963Y-50623373D01*
X87265359Y-50800000D01*
X87247963Y-50976627D01*
X87214109Y-51088228D01*
X87196443Y-51146467D01*
X87144791Y-51243100D01*
X87112778Y-51302991D01*
X87083448Y-51338729D01*
X87000186Y-51440186D01*
X86898729Y-51523448D01*
X86862991Y-51552778D01*
X86862989Y-51552779D01*
X86706467Y-51636443D01*
X86658478Y-51651000D01*
X86536627Y-51687963D01*
X86470442Y-51694482D01*
X86404260Y-51701000D01*
X86315740Y-51701000D01*
X86249558Y-51694482D01*
X86183373Y-51687963D01*
X86061522Y-51651000D01*
X86013533Y-51636443D01*
X85857011Y-51552779D01*
X85857009Y-51552778D01*
X85821271Y-51523448D01*
X85719814Y-51440186D01*
X85636552Y-51338729D01*
X85607222Y-51302991D01*
X85575209Y-51243100D01*
X85523557Y-51146467D01*
X85505891Y-51088228D01*
X85472037Y-50976627D01*
X85454641Y-50800000D01*
X85472037Y-50623373D01*
X85523557Y-50453534D01*
X85523557Y-50453533D01*
X85607221Y-50297011D01*
X85607222Y-50297009D01*
X85636552Y-50261271D01*
X85719814Y-50159814D01*
X85821271Y-50076552D01*
X85857009Y-50047222D01*
X85904751Y-50021703D01*
X86013533Y-49963557D01*
X86070147Y-49946384D01*
X86183373Y-49912037D01*
X86249557Y-49905519D01*
X86315740Y-49899000D01*
X86404260Y-49899000D01*
X86470442Y-49905518D01*
X86470442Y-49905518D01*
G37*
G36*
X63610442Y-49905518D02*
X63676627Y-49912037D01*
X63789853Y-49946384D01*
X63846467Y-49963557D01*
X63955249Y-50021703D01*
X64002991Y-50047222D01*
X64038729Y-50076552D01*
X64140186Y-50159814D01*
X64223448Y-50261271D01*
X64252778Y-50297009D01*
X64252779Y-50297011D01*
X64336443Y-50453533D01*
X64336443Y-50453534D01*
X64387963Y-50623373D01*
X64405359Y-50800000D01*
X64387963Y-50976627D01*
X64354109Y-51088228D01*
X64336443Y-51146467D01*
X64284791Y-51243100D01*
X64252778Y-51302991D01*
X64223448Y-51338729D01*
X64140186Y-51440186D01*
X64038729Y-51523448D01*
X64002991Y-51552778D01*
X64002989Y-51552779D01*
X63846467Y-51636443D01*
X63798478Y-51651000D01*
X63676627Y-51687963D01*
X63610442Y-51694482D01*
X63544260Y-51701000D01*
X63455740Y-51701000D01*
X63389558Y-51694482D01*
X63323373Y-51687963D01*
X63201522Y-51651000D01*
X63153533Y-51636443D01*
X62997011Y-51552779D01*
X62997009Y-51552778D01*
X62961271Y-51523448D01*
X62859814Y-51440186D01*
X62776552Y-51338729D01*
X62747222Y-51302991D01*
X62715209Y-51243100D01*
X62663557Y-51146467D01*
X62645891Y-51088228D01*
X62612037Y-50976627D01*
X62594641Y-50800000D01*
X62612037Y-50623373D01*
X62663557Y-50453534D01*
X62663557Y-50453533D01*
X62747221Y-50297011D01*
X62747222Y-50297009D01*
X62776552Y-50261271D01*
X62859814Y-50159814D01*
X62961271Y-50076552D01*
X62997009Y-50047222D01*
X63044751Y-50021703D01*
X63153533Y-49963557D01*
X63210147Y-49946384D01*
X63323373Y-49912037D01*
X63389557Y-49905519D01*
X63455740Y-49899000D01*
X63544260Y-49899000D01*
X63610442Y-49905518D01*
X63610442Y-49905518D01*
G37*
G36*
X47238228Y-50021703D02*
X47393100Y-50085853D01*
X47532481Y-50178985D01*
X47651015Y-50297519D01*
X47744147Y-50436900D01*
X47808297Y-50591772D01*
X47841000Y-50756184D01*
X47841000Y-50923816D01*
X47808297Y-51088228D01*
X47744147Y-51243100D01*
X47651015Y-51382481D01*
X47532481Y-51501015D01*
X47393100Y-51594147D01*
X47238228Y-51658297D01*
X47073816Y-51691000D01*
X46906184Y-51691000D01*
X46741772Y-51658297D01*
X46586900Y-51594147D01*
X46447519Y-51501015D01*
X46328985Y-51382481D01*
X46235853Y-51243100D01*
X46171703Y-51088228D01*
X46139000Y-50923816D01*
X46139000Y-50756184D01*
X46171703Y-50591772D01*
X46235853Y-50436900D01*
X46328985Y-50297519D01*
X46447519Y-50178985D01*
X46586900Y-50085853D01*
X46741772Y-50021703D01*
X46906184Y-49989000D01*
X47073816Y-49989000D01*
X47238228Y-50021703D01*
X47238228Y-50021703D01*
G37*
G36*
X80861000Y-51651000D02*
X79159000Y-51651000D01*
X79159000Y-49949000D01*
X80861000Y-49949000D01*
X80861000Y-51651000D01*
X80861000Y-51651000D01*
G37*
G36*
X106790443Y-47365519D02*
X106856627Y-47372037D01*
X106969853Y-47406384D01*
X107026467Y-47423557D01*
X107135249Y-47481703D01*
X107182991Y-47507222D01*
X107218729Y-47536552D01*
X107320186Y-47619814D01*
X107403448Y-47721271D01*
X107432778Y-47757009D01*
X107432779Y-47757011D01*
X107516443Y-47913533D01*
X107516443Y-47913534D01*
X107567963Y-48083373D01*
X107585359Y-48260000D01*
X107567963Y-48436627D01*
X107534109Y-48548228D01*
X107516443Y-48606467D01*
X107464791Y-48703100D01*
X107432778Y-48762991D01*
X107403448Y-48798729D01*
X107320186Y-48900186D01*
X107218729Y-48983448D01*
X107182991Y-49012778D01*
X107182989Y-49012779D01*
X107026467Y-49096443D01*
X106969853Y-49113616D01*
X106856627Y-49147963D01*
X106790443Y-49154481D01*
X106724260Y-49161000D01*
X106635740Y-49161000D01*
X106569557Y-49154481D01*
X106503373Y-49147963D01*
X106390147Y-49113616D01*
X106333533Y-49096443D01*
X106177011Y-49012779D01*
X106177009Y-49012778D01*
X106141271Y-48983448D01*
X106039814Y-48900186D01*
X105956552Y-48798729D01*
X105927222Y-48762991D01*
X105895209Y-48703100D01*
X105843557Y-48606467D01*
X105825891Y-48548228D01*
X105792037Y-48436627D01*
X105774641Y-48260000D01*
X105792037Y-48083373D01*
X105843557Y-47913534D01*
X105843557Y-47913533D01*
X105927221Y-47757011D01*
X105927222Y-47757009D01*
X105956552Y-47721271D01*
X106039814Y-47619814D01*
X106141271Y-47536552D01*
X106177009Y-47507222D01*
X106224751Y-47481703D01*
X106333533Y-47423557D01*
X106390147Y-47406384D01*
X106503373Y-47372037D01*
X106569557Y-47365519D01*
X106635740Y-47359000D01*
X106724260Y-47359000D01*
X106790443Y-47365519D01*
X106790443Y-47365519D01*
G37*
G36*
X30590443Y-47365519D02*
X30656627Y-47372037D01*
X30769853Y-47406384D01*
X30826467Y-47423557D01*
X30935249Y-47481703D01*
X30982991Y-47507222D01*
X31018729Y-47536552D01*
X31120186Y-47619814D01*
X31203448Y-47721271D01*
X31232778Y-47757009D01*
X31232779Y-47757011D01*
X31316443Y-47913533D01*
X31316443Y-47913534D01*
X31367963Y-48083373D01*
X31385359Y-48260000D01*
X31367963Y-48436627D01*
X31334109Y-48548228D01*
X31316443Y-48606467D01*
X31264791Y-48703100D01*
X31232778Y-48762991D01*
X31203448Y-48798729D01*
X31120186Y-48900186D01*
X31018729Y-48983448D01*
X30982991Y-49012778D01*
X30982989Y-49012779D01*
X30826467Y-49096443D01*
X30769853Y-49113616D01*
X30656627Y-49147963D01*
X30590443Y-49154481D01*
X30524260Y-49161000D01*
X30435740Y-49161000D01*
X30369557Y-49154481D01*
X30303373Y-49147963D01*
X30190147Y-49113616D01*
X30133533Y-49096443D01*
X29977011Y-49012779D01*
X29977009Y-49012778D01*
X29941271Y-48983448D01*
X29839814Y-48900186D01*
X29756552Y-48798729D01*
X29727222Y-48762991D01*
X29695209Y-48703100D01*
X29643557Y-48606467D01*
X29625891Y-48548228D01*
X29592037Y-48436627D01*
X29574641Y-48260000D01*
X29592037Y-48083373D01*
X29643557Y-47913534D01*
X29643557Y-47913533D01*
X29727221Y-47757011D01*
X29727222Y-47757009D01*
X29756552Y-47721271D01*
X29839814Y-47619814D01*
X29941271Y-47536552D01*
X29977009Y-47507222D01*
X30024751Y-47481703D01*
X30133533Y-47423557D01*
X30190147Y-47406384D01*
X30303373Y-47372037D01*
X30369557Y-47365519D01*
X30435740Y-47359000D01*
X30524260Y-47359000D01*
X30590443Y-47365519D01*
X30590443Y-47365519D01*
G37*
G36*
X40750443Y-47365519D02*
X40816627Y-47372037D01*
X40929853Y-47406384D01*
X40986467Y-47423557D01*
X41095249Y-47481703D01*
X41142991Y-47507222D01*
X41178729Y-47536552D01*
X41280186Y-47619814D01*
X41363448Y-47721271D01*
X41392778Y-47757009D01*
X41392779Y-47757011D01*
X41476443Y-47913533D01*
X41476443Y-47913534D01*
X41527963Y-48083373D01*
X41545359Y-48260000D01*
X41527963Y-48436627D01*
X41494109Y-48548228D01*
X41476443Y-48606467D01*
X41424791Y-48703100D01*
X41392778Y-48762991D01*
X41363448Y-48798729D01*
X41280186Y-48900186D01*
X41178729Y-48983448D01*
X41142991Y-49012778D01*
X41142989Y-49012779D01*
X40986467Y-49096443D01*
X40929853Y-49113616D01*
X40816627Y-49147963D01*
X40750443Y-49154481D01*
X40684260Y-49161000D01*
X40595740Y-49161000D01*
X40529557Y-49154481D01*
X40463373Y-49147963D01*
X40350147Y-49113616D01*
X40293533Y-49096443D01*
X40137011Y-49012779D01*
X40137009Y-49012778D01*
X40101271Y-48983448D01*
X39999814Y-48900186D01*
X39916552Y-48798729D01*
X39887222Y-48762991D01*
X39855209Y-48703100D01*
X39803557Y-48606467D01*
X39785891Y-48548228D01*
X39752037Y-48436627D01*
X39734641Y-48260000D01*
X39752037Y-48083373D01*
X39803557Y-47913534D01*
X39803557Y-47913533D01*
X39887221Y-47757011D01*
X39887222Y-47757009D01*
X39916552Y-47721271D01*
X39999814Y-47619814D01*
X40101271Y-47536552D01*
X40137009Y-47507222D01*
X40184751Y-47481703D01*
X40293533Y-47423557D01*
X40350147Y-47406384D01*
X40463373Y-47372037D01*
X40529557Y-47365519D01*
X40595740Y-47359000D01*
X40684260Y-47359000D01*
X40750443Y-47365519D01*
X40750443Y-47365519D01*
G37*
G36*
X53450443Y-47365519D02*
X53516627Y-47372037D01*
X53629853Y-47406384D01*
X53686467Y-47423557D01*
X53795249Y-47481703D01*
X53842991Y-47507222D01*
X53878729Y-47536552D01*
X53980186Y-47619814D01*
X54063448Y-47721271D01*
X54092778Y-47757009D01*
X54092779Y-47757011D01*
X54176443Y-47913533D01*
X54176443Y-47913534D01*
X54227963Y-48083373D01*
X54245359Y-48260000D01*
X54227963Y-48436627D01*
X54194109Y-48548228D01*
X54176443Y-48606467D01*
X54124791Y-48703100D01*
X54092778Y-48762991D01*
X54063448Y-48798729D01*
X53980186Y-48900186D01*
X53878729Y-48983448D01*
X53842991Y-49012778D01*
X53842989Y-49012779D01*
X53686467Y-49096443D01*
X53629853Y-49113616D01*
X53516627Y-49147963D01*
X53450443Y-49154481D01*
X53384260Y-49161000D01*
X53295740Y-49161000D01*
X53229557Y-49154481D01*
X53163373Y-49147963D01*
X53050147Y-49113616D01*
X52993533Y-49096443D01*
X52837011Y-49012779D01*
X52837009Y-49012778D01*
X52801271Y-48983448D01*
X52699814Y-48900186D01*
X52616552Y-48798729D01*
X52587222Y-48762991D01*
X52555209Y-48703100D01*
X52503557Y-48606467D01*
X52485891Y-48548228D01*
X52452037Y-48436627D01*
X52434641Y-48260000D01*
X52452037Y-48083373D01*
X52503557Y-47913534D01*
X52503557Y-47913533D01*
X52587221Y-47757011D01*
X52587222Y-47757009D01*
X52616552Y-47721271D01*
X52699814Y-47619814D01*
X52801271Y-47536552D01*
X52837009Y-47507222D01*
X52884751Y-47481703D01*
X52993533Y-47423557D01*
X53050147Y-47406384D01*
X53163373Y-47372037D01*
X53229557Y-47365519D01*
X53295740Y-47359000D01*
X53384260Y-47359000D01*
X53450443Y-47365519D01*
X53450443Y-47365519D01*
G37*
G36*
X20430443Y-47365519D02*
X20496627Y-47372037D01*
X20609853Y-47406384D01*
X20666467Y-47423557D01*
X20775249Y-47481703D01*
X20822991Y-47507222D01*
X20858729Y-47536552D01*
X20960186Y-47619814D01*
X21043448Y-47721271D01*
X21072778Y-47757009D01*
X21072779Y-47757011D01*
X21156443Y-47913533D01*
X21156443Y-47913534D01*
X21207963Y-48083373D01*
X21225359Y-48260000D01*
X21207963Y-48436627D01*
X21174109Y-48548228D01*
X21156443Y-48606467D01*
X21104791Y-48703100D01*
X21072778Y-48762991D01*
X21043448Y-48798729D01*
X20960186Y-48900186D01*
X20858729Y-48983448D01*
X20822991Y-49012778D01*
X20822989Y-49012779D01*
X20666467Y-49096443D01*
X20609853Y-49113616D01*
X20496627Y-49147963D01*
X20430443Y-49154481D01*
X20364260Y-49161000D01*
X20275740Y-49161000D01*
X20209557Y-49154481D01*
X20143373Y-49147963D01*
X20030147Y-49113616D01*
X19973533Y-49096443D01*
X19817011Y-49012779D01*
X19817009Y-49012778D01*
X19781271Y-48983448D01*
X19679814Y-48900186D01*
X19596552Y-48798729D01*
X19567222Y-48762991D01*
X19535209Y-48703100D01*
X19483557Y-48606467D01*
X19465891Y-48548228D01*
X19432037Y-48436627D01*
X19414641Y-48260000D01*
X19432037Y-48083373D01*
X19483557Y-47913534D01*
X19483557Y-47913533D01*
X19567221Y-47757011D01*
X19567222Y-47757009D01*
X19596552Y-47721271D01*
X19679814Y-47619814D01*
X19781271Y-47536552D01*
X19817009Y-47507222D01*
X19864751Y-47481703D01*
X19973533Y-47423557D01*
X20030147Y-47406384D01*
X20143373Y-47372037D01*
X20209557Y-47365519D01*
X20275740Y-47359000D01*
X20364260Y-47359000D01*
X20430443Y-47365519D01*
X20430443Y-47365519D01*
G37*
G36*
X63610443Y-47365519D02*
X63676627Y-47372037D01*
X63789853Y-47406384D01*
X63846467Y-47423557D01*
X63955249Y-47481703D01*
X64002991Y-47507222D01*
X64038729Y-47536552D01*
X64140186Y-47619814D01*
X64223448Y-47721271D01*
X64252778Y-47757009D01*
X64252779Y-47757011D01*
X64336443Y-47913533D01*
X64336443Y-47913534D01*
X64387963Y-48083373D01*
X64405359Y-48260000D01*
X64387963Y-48436627D01*
X64354109Y-48548228D01*
X64336443Y-48606467D01*
X64284791Y-48703100D01*
X64252778Y-48762991D01*
X64223448Y-48798729D01*
X64140186Y-48900186D01*
X64038729Y-48983448D01*
X64002991Y-49012778D01*
X64002989Y-49012779D01*
X63846467Y-49096443D01*
X63789853Y-49113616D01*
X63676627Y-49147963D01*
X63610443Y-49154481D01*
X63544260Y-49161000D01*
X63455740Y-49161000D01*
X63389557Y-49154481D01*
X63323373Y-49147963D01*
X63210147Y-49113616D01*
X63153533Y-49096443D01*
X62997011Y-49012779D01*
X62997009Y-49012778D01*
X62961271Y-48983448D01*
X62859814Y-48900186D01*
X62776552Y-48798729D01*
X62747222Y-48762991D01*
X62715209Y-48703100D01*
X62663557Y-48606467D01*
X62645891Y-48548228D01*
X62612037Y-48436627D01*
X62594641Y-48260000D01*
X62612037Y-48083373D01*
X62663557Y-47913534D01*
X62663557Y-47913533D01*
X62747221Y-47757011D01*
X62747222Y-47757009D01*
X62776552Y-47721271D01*
X62859814Y-47619814D01*
X62961271Y-47536552D01*
X62997009Y-47507222D01*
X63044751Y-47481703D01*
X63153533Y-47423557D01*
X63210147Y-47406384D01*
X63323373Y-47372037D01*
X63389557Y-47365519D01*
X63455740Y-47359000D01*
X63544260Y-47359000D01*
X63610443Y-47365519D01*
X63610443Y-47365519D01*
G37*
G36*
X96630443Y-47365519D02*
X96696627Y-47372037D01*
X96809853Y-47406384D01*
X96866467Y-47423557D01*
X96975249Y-47481703D01*
X97022991Y-47507222D01*
X97058729Y-47536552D01*
X97160186Y-47619814D01*
X97243448Y-47721271D01*
X97272778Y-47757009D01*
X97272779Y-47757011D01*
X97356443Y-47913533D01*
X97356443Y-47913534D01*
X97407963Y-48083373D01*
X97425359Y-48260000D01*
X97407963Y-48436627D01*
X97374109Y-48548228D01*
X97356443Y-48606467D01*
X97304791Y-48703100D01*
X97272778Y-48762991D01*
X97243448Y-48798729D01*
X97160186Y-48900186D01*
X97058729Y-48983448D01*
X97022991Y-49012778D01*
X97022989Y-49012779D01*
X96866467Y-49096443D01*
X96809853Y-49113616D01*
X96696627Y-49147963D01*
X96630443Y-49154481D01*
X96564260Y-49161000D01*
X96475740Y-49161000D01*
X96409557Y-49154481D01*
X96343373Y-49147963D01*
X96230147Y-49113616D01*
X96173533Y-49096443D01*
X96017011Y-49012779D01*
X96017009Y-49012778D01*
X95981271Y-48983448D01*
X95879814Y-48900186D01*
X95796552Y-48798729D01*
X95767222Y-48762991D01*
X95735209Y-48703100D01*
X95683557Y-48606467D01*
X95665891Y-48548228D01*
X95632037Y-48436627D01*
X95614641Y-48260000D01*
X95632037Y-48083373D01*
X95683557Y-47913534D01*
X95683557Y-47913533D01*
X95767221Y-47757011D01*
X95767222Y-47757009D01*
X95796552Y-47721271D01*
X95879814Y-47619814D01*
X95981271Y-47536552D01*
X96017009Y-47507222D01*
X96064751Y-47481703D01*
X96173533Y-47423557D01*
X96230147Y-47406384D01*
X96343373Y-47372037D01*
X96409557Y-47365519D01*
X96475740Y-47359000D01*
X96564260Y-47359000D01*
X96630443Y-47365519D01*
X96630443Y-47365519D01*
G37*
G36*
X86470443Y-47365519D02*
X86536627Y-47372037D01*
X86649853Y-47406384D01*
X86706467Y-47423557D01*
X86815249Y-47481703D01*
X86862991Y-47507222D01*
X86898729Y-47536552D01*
X87000186Y-47619814D01*
X87083448Y-47721271D01*
X87112778Y-47757009D01*
X87112779Y-47757011D01*
X87196443Y-47913533D01*
X87196443Y-47913534D01*
X87247963Y-48083373D01*
X87265359Y-48260000D01*
X87247963Y-48436627D01*
X87214109Y-48548228D01*
X87196443Y-48606467D01*
X87144791Y-48703100D01*
X87112778Y-48762991D01*
X87083448Y-48798729D01*
X87000186Y-48900186D01*
X86898729Y-48983448D01*
X86862991Y-49012778D01*
X86862989Y-49012779D01*
X86706467Y-49096443D01*
X86649853Y-49113616D01*
X86536627Y-49147963D01*
X86470443Y-49154481D01*
X86404260Y-49161000D01*
X86315740Y-49161000D01*
X86249557Y-49154481D01*
X86183373Y-49147963D01*
X86070147Y-49113616D01*
X86013533Y-49096443D01*
X85857011Y-49012779D01*
X85857009Y-49012778D01*
X85821271Y-48983448D01*
X85719814Y-48900186D01*
X85636552Y-48798729D01*
X85607222Y-48762991D01*
X85575209Y-48703100D01*
X85523557Y-48606467D01*
X85505891Y-48548228D01*
X85472037Y-48436627D01*
X85454641Y-48260000D01*
X85472037Y-48083373D01*
X85523557Y-47913534D01*
X85523557Y-47913533D01*
X85607221Y-47757011D01*
X85607222Y-47757009D01*
X85636552Y-47721271D01*
X85719814Y-47619814D01*
X85821271Y-47536552D01*
X85857009Y-47507222D01*
X85904751Y-47481703D01*
X86013533Y-47423557D01*
X86070147Y-47406384D01*
X86183373Y-47372037D01*
X86249557Y-47365519D01*
X86315740Y-47359000D01*
X86404260Y-47359000D01*
X86470443Y-47365519D01*
X86470443Y-47365519D01*
G37*
G36*
X73770443Y-47365519D02*
X73836627Y-47372037D01*
X73949853Y-47406384D01*
X74006467Y-47423557D01*
X74115249Y-47481703D01*
X74162991Y-47507222D01*
X74198729Y-47536552D01*
X74300186Y-47619814D01*
X74383448Y-47721271D01*
X74412778Y-47757009D01*
X74412779Y-47757011D01*
X74496443Y-47913533D01*
X74496443Y-47913534D01*
X74547963Y-48083373D01*
X74565359Y-48260000D01*
X74547963Y-48436627D01*
X74514109Y-48548228D01*
X74496443Y-48606467D01*
X74444791Y-48703100D01*
X74412778Y-48762991D01*
X74383448Y-48798729D01*
X74300186Y-48900186D01*
X74198729Y-48983448D01*
X74162991Y-49012778D01*
X74162989Y-49012779D01*
X74006467Y-49096443D01*
X73949853Y-49113616D01*
X73836627Y-49147963D01*
X73770443Y-49154481D01*
X73704260Y-49161000D01*
X73615740Y-49161000D01*
X73549557Y-49154481D01*
X73483373Y-49147963D01*
X73370147Y-49113616D01*
X73313533Y-49096443D01*
X73157011Y-49012779D01*
X73157009Y-49012778D01*
X73121271Y-48983448D01*
X73019814Y-48900186D01*
X72936552Y-48798729D01*
X72907222Y-48762991D01*
X72875209Y-48703100D01*
X72823557Y-48606467D01*
X72805891Y-48548228D01*
X72772037Y-48436627D01*
X72754641Y-48260000D01*
X72772037Y-48083373D01*
X72823557Y-47913534D01*
X72823557Y-47913533D01*
X72907221Y-47757011D01*
X72907222Y-47757009D01*
X72936552Y-47721271D01*
X73019814Y-47619814D01*
X73121271Y-47536552D01*
X73157009Y-47507222D01*
X73204751Y-47481703D01*
X73313533Y-47423557D01*
X73370147Y-47406384D01*
X73483373Y-47372037D01*
X73549557Y-47365519D01*
X73615740Y-47359000D01*
X73704260Y-47359000D01*
X73770443Y-47365519D01*
X73770443Y-47365519D01*
G37*
G36*
X80258228Y-47481703D02*
X80413100Y-47545853D01*
X80552481Y-47638985D01*
X80671015Y-47757519D01*
X80764147Y-47896900D01*
X80828297Y-48051772D01*
X80861000Y-48216184D01*
X80861000Y-48383816D01*
X80828297Y-48548228D01*
X80764147Y-48703100D01*
X80671015Y-48842481D01*
X80552481Y-48961015D01*
X80413100Y-49054147D01*
X80258228Y-49118297D01*
X80093816Y-49151000D01*
X79926184Y-49151000D01*
X79761772Y-49118297D01*
X79606900Y-49054147D01*
X79467519Y-48961015D01*
X79348985Y-48842481D01*
X79255853Y-48703100D01*
X79191703Y-48548228D01*
X79159000Y-48383816D01*
X79159000Y-48216184D01*
X79191703Y-48051772D01*
X79255853Y-47896900D01*
X79348985Y-47757519D01*
X79467519Y-47638985D01*
X79606900Y-47545853D01*
X79761772Y-47481703D01*
X79926184Y-47449000D01*
X80093816Y-47449000D01*
X80258228Y-47481703D01*
X80258228Y-47481703D01*
G37*
G36*
X106790442Y-42285518D02*
X106856627Y-42292037D01*
X106969853Y-42326384D01*
X107026467Y-42343557D01*
X107165087Y-42417652D01*
X107182991Y-42427222D01*
X107218729Y-42456552D01*
X107320186Y-42539814D01*
X107403448Y-42641271D01*
X107432778Y-42677009D01*
X107432779Y-42677011D01*
X107516443Y-42833533D01*
X107516443Y-42833534D01*
X107567963Y-43003373D01*
X107585359Y-43180000D01*
X107567963Y-43356627D01*
X107533616Y-43469853D01*
X107516443Y-43526467D01*
X107442348Y-43665087D01*
X107432778Y-43682991D01*
X107403448Y-43718729D01*
X107320186Y-43820186D01*
X107218729Y-43903448D01*
X107182991Y-43932778D01*
X107182989Y-43932779D01*
X107026467Y-44016443D01*
X106969853Y-44033616D01*
X106856627Y-44067963D01*
X106790443Y-44074481D01*
X106724260Y-44081000D01*
X106635740Y-44081000D01*
X106569557Y-44074481D01*
X106503373Y-44067963D01*
X106390147Y-44033616D01*
X106333533Y-44016443D01*
X106177011Y-43932779D01*
X106177009Y-43932778D01*
X106141271Y-43903448D01*
X106039814Y-43820186D01*
X105956552Y-43718729D01*
X105927222Y-43682991D01*
X105917652Y-43665087D01*
X105843557Y-43526467D01*
X105826384Y-43469853D01*
X105792037Y-43356627D01*
X105774641Y-43180000D01*
X105792037Y-43003373D01*
X105843557Y-42833534D01*
X105843557Y-42833533D01*
X105927221Y-42677011D01*
X105927222Y-42677009D01*
X105956552Y-42641271D01*
X106039814Y-42539814D01*
X106141271Y-42456552D01*
X106177009Y-42427222D01*
X106194913Y-42417652D01*
X106333533Y-42343557D01*
X106390147Y-42326384D01*
X106503373Y-42292037D01*
X106569558Y-42285518D01*
X106635740Y-42279000D01*
X106724260Y-42279000D01*
X106790442Y-42285518D01*
X106790442Y-42285518D01*
G37*
G36*
X96630442Y-42285518D02*
X96696627Y-42292037D01*
X96809853Y-42326384D01*
X96866467Y-42343557D01*
X97005087Y-42417652D01*
X97022991Y-42427222D01*
X97058729Y-42456552D01*
X97160186Y-42539814D01*
X97243448Y-42641271D01*
X97272778Y-42677009D01*
X97272779Y-42677011D01*
X97356443Y-42833533D01*
X97356443Y-42833534D01*
X97407963Y-43003373D01*
X97425359Y-43180000D01*
X97407963Y-43356627D01*
X97373616Y-43469853D01*
X97356443Y-43526467D01*
X97282348Y-43665087D01*
X97272778Y-43682991D01*
X97243448Y-43718729D01*
X97160186Y-43820186D01*
X97058729Y-43903448D01*
X97022991Y-43932778D01*
X97022989Y-43932779D01*
X96866467Y-44016443D01*
X96809853Y-44033616D01*
X96696627Y-44067963D01*
X96630443Y-44074481D01*
X96564260Y-44081000D01*
X96475740Y-44081000D01*
X96409557Y-44074481D01*
X96343373Y-44067963D01*
X96230147Y-44033616D01*
X96173533Y-44016443D01*
X96017011Y-43932779D01*
X96017009Y-43932778D01*
X95981271Y-43903448D01*
X95879814Y-43820186D01*
X95796552Y-43718729D01*
X95767222Y-43682991D01*
X95757652Y-43665087D01*
X95683557Y-43526467D01*
X95666384Y-43469853D01*
X95632037Y-43356627D01*
X95614641Y-43180000D01*
X95632037Y-43003373D01*
X95683557Y-42833534D01*
X95683557Y-42833533D01*
X95767221Y-42677011D01*
X95767222Y-42677009D01*
X95796552Y-42641271D01*
X95879814Y-42539814D01*
X95981271Y-42456552D01*
X96017009Y-42427222D01*
X96034913Y-42417652D01*
X96173533Y-42343557D01*
X96230147Y-42326384D01*
X96343373Y-42292037D01*
X96409558Y-42285518D01*
X96475740Y-42279000D01*
X96564260Y-42279000D01*
X96630442Y-42285518D01*
X96630442Y-42285518D01*
G37*
G36*
X53450442Y-42285518D02*
X53516627Y-42292037D01*
X53629853Y-42326384D01*
X53686467Y-42343557D01*
X53825087Y-42417652D01*
X53842991Y-42427222D01*
X53878729Y-42456552D01*
X53980186Y-42539814D01*
X54063448Y-42641271D01*
X54092778Y-42677009D01*
X54092779Y-42677011D01*
X54176443Y-42833533D01*
X54176443Y-42833534D01*
X54227963Y-43003373D01*
X54245359Y-43180000D01*
X54227963Y-43356627D01*
X54193616Y-43469853D01*
X54176443Y-43526467D01*
X54102348Y-43665087D01*
X54092778Y-43682991D01*
X54063448Y-43718729D01*
X53980186Y-43820186D01*
X53878729Y-43903448D01*
X53842991Y-43932778D01*
X53842989Y-43932779D01*
X53686467Y-44016443D01*
X53629853Y-44033616D01*
X53516627Y-44067963D01*
X53450443Y-44074481D01*
X53384260Y-44081000D01*
X53295740Y-44081000D01*
X53229557Y-44074481D01*
X53163373Y-44067963D01*
X53050147Y-44033616D01*
X52993533Y-44016443D01*
X52837011Y-43932779D01*
X52837009Y-43932778D01*
X52801271Y-43903448D01*
X52699814Y-43820186D01*
X52616552Y-43718729D01*
X52587222Y-43682991D01*
X52577652Y-43665087D01*
X52503557Y-43526467D01*
X52486384Y-43469853D01*
X52452037Y-43356627D01*
X52434641Y-43180000D01*
X52452037Y-43003373D01*
X52503557Y-42833534D01*
X52503557Y-42833533D01*
X52587221Y-42677011D01*
X52587222Y-42677009D01*
X52616552Y-42641271D01*
X52699814Y-42539814D01*
X52801271Y-42456552D01*
X52837009Y-42427222D01*
X52854913Y-42417652D01*
X52993533Y-42343557D01*
X53050147Y-42326384D01*
X53163373Y-42292037D01*
X53229558Y-42285518D01*
X53295740Y-42279000D01*
X53384260Y-42279000D01*
X53450442Y-42285518D01*
X53450442Y-42285518D01*
G37*
G36*
X20430442Y-42285518D02*
X20496627Y-42292037D01*
X20609853Y-42326384D01*
X20666467Y-42343557D01*
X20805087Y-42417652D01*
X20822991Y-42427222D01*
X20858729Y-42456552D01*
X20960186Y-42539814D01*
X21043448Y-42641271D01*
X21072778Y-42677009D01*
X21072779Y-42677011D01*
X21156443Y-42833533D01*
X21156443Y-42833534D01*
X21207963Y-43003373D01*
X21225359Y-43180000D01*
X21207963Y-43356627D01*
X21173616Y-43469853D01*
X21156443Y-43526467D01*
X21082348Y-43665087D01*
X21072778Y-43682991D01*
X21043448Y-43718729D01*
X20960186Y-43820186D01*
X20858729Y-43903448D01*
X20822991Y-43932778D01*
X20822989Y-43932779D01*
X20666467Y-44016443D01*
X20609853Y-44033616D01*
X20496627Y-44067963D01*
X20430443Y-44074481D01*
X20364260Y-44081000D01*
X20275740Y-44081000D01*
X20209557Y-44074481D01*
X20143373Y-44067963D01*
X20030147Y-44033616D01*
X19973533Y-44016443D01*
X19817011Y-43932779D01*
X19817009Y-43932778D01*
X19781271Y-43903448D01*
X19679814Y-43820186D01*
X19596552Y-43718729D01*
X19567222Y-43682991D01*
X19557652Y-43665087D01*
X19483557Y-43526467D01*
X19466384Y-43469853D01*
X19432037Y-43356627D01*
X19414641Y-43180000D01*
X19432037Y-43003373D01*
X19483557Y-42833534D01*
X19483557Y-42833533D01*
X19567221Y-42677011D01*
X19567222Y-42677009D01*
X19596552Y-42641271D01*
X19679814Y-42539814D01*
X19781271Y-42456552D01*
X19817009Y-42427222D01*
X19834913Y-42417652D01*
X19973533Y-42343557D01*
X20030147Y-42326384D01*
X20143373Y-42292037D01*
X20209558Y-42285518D01*
X20275740Y-42279000D01*
X20364260Y-42279000D01*
X20430442Y-42285518D01*
X20430442Y-42285518D01*
G37*
G36*
X30590442Y-42285518D02*
X30656627Y-42292037D01*
X30769853Y-42326384D01*
X30826467Y-42343557D01*
X30965087Y-42417652D01*
X30982991Y-42427222D01*
X31018729Y-42456552D01*
X31120186Y-42539814D01*
X31203448Y-42641271D01*
X31232778Y-42677009D01*
X31232779Y-42677011D01*
X31316443Y-42833533D01*
X31316443Y-42833534D01*
X31367963Y-43003373D01*
X31385359Y-43180000D01*
X31367963Y-43356627D01*
X31333616Y-43469853D01*
X31316443Y-43526467D01*
X31242348Y-43665087D01*
X31232778Y-43682991D01*
X31203448Y-43718729D01*
X31120186Y-43820186D01*
X31018729Y-43903448D01*
X30982991Y-43932778D01*
X30982989Y-43932779D01*
X30826467Y-44016443D01*
X30769853Y-44033616D01*
X30656627Y-44067963D01*
X30590443Y-44074481D01*
X30524260Y-44081000D01*
X30435740Y-44081000D01*
X30369557Y-44074481D01*
X30303373Y-44067963D01*
X30190147Y-44033616D01*
X30133533Y-44016443D01*
X29977011Y-43932779D01*
X29977009Y-43932778D01*
X29941271Y-43903448D01*
X29839814Y-43820186D01*
X29756552Y-43718729D01*
X29727222Y-43682991D01*
X29717652Y-43665087D01*
X29643557Y-43526467D01*
X29626384Y-43469853D01*
X29592037Y-43356627D01*
X29574641Y-43180000D01*
X29592037Y-43003373D01*
X29643557Y-42833534D01*
X29643557Y-42833533D01*
X29727221Y-42677011D01*
X29727222Y-42677009D01*
X29756552Y-42641271D01*
X29839814Y-42539814D01*
X29941271Y-42456552D01*
X29977009Y-42427222D01*
X29994913Y-42417652D01*
X30133533Y-42343557D01*
X30190147Y-42326384D01*
X30303373Y-42292037D01*
X30369558Y-42285518D01*
X30435740Y-42279000D01*
X30524260Y-42279000D01*
X30590442Y-42285518D01*
X30590442Y-42285518D01*
G37*
G36*
X40750442Y-42285518D02*
X40816627Y-42292037D01*
X40929853Y-42326384D01*
X40986467Y-42343557D01*
X41125087Y-42417652D01*
X41142991Y-42427222D01*
X41178729Y-42456552D01*
X41280186Y-42539814D01*
X41363448Y-42641271D01*
X41392778Y-42677009D01*
X41392779Y-42677011D01*
X41476443Y-42833533D01*
X41476443Y-42833534D01*
X41527963Y-43003373D01*
X41545359Y-43180000D01*
X41527963Y-43356627D01*
X41493616Y-43469853D01*
X41476443Y-43526467D01*
X41402348Y-43665087D01*
X41392778Y-43682991D01*
X41363448Y-43718729D01*
X41280186Y-43820186D01*
X41178729Y-43903448D01*
X41142991Y-43932778D01*
X41142989Y-43932779D01*
X40986467Y-44016443D01*
X40929853Y-44033616D01*
X40816627Y-44067963D01*
X40750443Y-44074481D01*
X40684260Y-44081000D01*
X40595740Y-44081000D01*
X40529557Y-44074481D01*
X40463373Y-44067963D01*
X40350147Y-44033616D01*
X40293533Y-44016443D01*
X40137011Y-43932779D01*
X40137009Y-43932778D01*
X40101271Y-43903448D01*
X39999814Y-43820186D01*
X39916552Y-43718729D01*
X39887222Y-43682991D01*
X39877652Y-43665087D01*
X39803557Y-43526467D01*
X39786384Y-43469853D01*
X39752037Y-43356627D01*
X39734641Y-43180000D01*
X39752037Y-43003373D01*
X39803557Y-42833534D01*
X39803557Y-42833533D01*
X39887221Y-42677011D01*
X39887222Y-42677009D01*
X39916552Y-42641271D01*
X39999814Y-42539814D01*
X40101271Y-42456552D01*
X40137009Y-42427222D01*
X40154913Y-42417652D01*
X40293533Y-42343557D01*
X40350147Y-42326384D01*
X40463373Y-42292037D01*
X40529558Y-42285518D01*
X40595740Y-42279000D01*
X40684260Y-42279000D01*
X40750442Y-42285518D01*
X40750442Y-42285518D01*
G37*
G36*
X63610442Y-42285518D02*
X63676627Y-42292037D01*
X63789853Y-42326384D01*
X63846467Y-42343557D01*
X63985087Y-42417652D01*
X64002991Y-42427222D01*
X64038729Y-42456552D01*
X64140186Y-42539814D01*
X64223448Y-42641271D01*
X64252778Y-42677009D01*
X64252779Y-42677011D01*
X64336443Y-42833533D01*
X64336443Y-42833534D01*
X64387963Y-43003373D01*
X64405359Y-43180000D01*
X64387963Y-43356627D01*
X64353616Y-43469853D01*
X64336443Y-43526467D01*
X64262348Y-43665087D01*
X64252778Y-43682991D01*
X64223448Y-43718729D01*
X64140186Y-43820186D01*
X64038729Y-43903448D01*
X64002991Y-43932778D01*
X64002989Y-43932779D01*
X63846467Y-44016443D01*
X63789853Y-44033616D01*
X63676627Y-44067963D01*
X63610443Y-44074481D01*
X63544260Y-44081000D01*
X63455740Y-44081000D01*
X63389557Y-44074481D01*
X63323373Y-44067963D01*
X63210147Y-44033616D01*
X63153533Y-44016443D01*
X62997011Y-43932779D01*
X62997009Y-43932778D01*
X62961271Y-43903448D01*
X62859814Y-43820186D01*
X62776552Y-43718729D01*
X62747222Y-43682991D01*
X62737652Y-43665087D01*
X62663557Y-43526467D01*
X62646384Y-43469853D01*
X62612037Y-43356627D01*
X62594641Y-43180000D01*
X62612037Y-43003373D01*
X62663557Y-42833534D01*
X62663557Y-42833533D01*
X62747221Y-42677011D01*
X62747222Y-42677009D01*
X62776552Y-42641271D01*
X62859814Y-42539814D01*
X62961271Y-42456552D01*
X62997009Y-42427222D01*
X63014913Y-42417652D01*
X63153533Y-42343557D01*
X63210147Y-42326384D01*
X63323373Y-42292037D01*
X63389558Y-42285518D01*
X63455740Y-42279000D01*
X63544260Y-42279000D01*
X63610442Y-42285518D01*
X63610442Y-42285518D01*
G37*
G36*
X86470442Y-42285518D02*
X86536627Y-42292037D01*
X86649853Y-42326384D01*
X86706467Y-42343557D01*
X86845087Y-42417652D01*
X86862991Y-42427222D01*
X86898729Y-42456552D01*
X87000186Y-42539814D01*
X87083448Y-42641271D01*
X87112778Y-42677009D01*
X87112779Y-42677011D01*
X87196443Y-42833533D01*
X87196443Y-42833534D01*
X87247963Y-43003373D01*
X87265359Y-43180000D01*
X87247963Y-43356627D01*
X87213616Y-43469853D01*
X87196443Y-43526467D01*
X87122348Y-43665087D01*
X87112778Y-43682991D01*
X87083448Y-43718729D01*
X87000186Y-43820186D01*
X86898729Y-43903448D01*
X86862991Y-43932778D01*
X86862989Y-43932779D01*
X86706467Y-44016443D01*
X86649853Y-44033616D01*
X86536627Y-44067963D01*
X86470443Y-44074481D01*
X86404260Y-44081000D01*
X86315740Y-44081000D01*
X86249557Y-44074481D01*
X86183373Y-44067963D01*
X86070147Y-44033616D01*
X86013533Y-44016443D01*
X85857011Y-43932779D01*
X85857009Y-43932778D01*
X85821271Y-43903448D01*
X85719814Y-43820186D01*
X85636552Y-43718729D01*
X85607222Y-43682991D01*
X85597652Y-43665087D01*
X85523557Y-43526467D01*
X85506384Y-43469853D01*
X85472037Y-43356627D01*
X85454641Y-43180000D01*
X85472037Y-43003373D01*
X85523557Y-42833534D01*
X85523557Y-42833533D01*
X85607221Y-42677011D01*
X85607222Y-42677009D01*
X85636552Y-42641271D01*
X85719814Y-42539814D01*
X85821271Y-42456552D01*
X85857009Y-42427222D01*
X85874913Y-42417652D01*
X86013533Y-42343557D01*
X86070147Y-42326384D01*
X86183373Y-42292037D01*
X86249558Y-42285518D01*
X86315740Y-42279000D01*
X86404260Y-42279000D01*
X86470442Y-42285518D01*
X86470442Y-42285518D01*
G37*
G36*
X73770442Y-42285518D02*
X73836627Y-42292037D01*
X73949853Y-42326384D01*
X74006467Y-42343557D01*
X74145087Y-42417652D01*
X74162991Y-42427222D01*
X74198729Y-42456552D01*
X74300186Y-42539814D01*
X74383448Y-42641271D01*
X74412778Y-42677009D01*
X74412779Y-42677011D01*
X74496443Y-42833533D01*
X74496443Y-42833534D01*
X74547963Y-43003373D01*
X74565359Y-43180000D01*
X74547963Y-43356627D01*
X74513616Y-43469853D01*
X74496443Y-43526467D01*
X74422348Y-43665087D01*
X74412778Y-43682991D01*
X74383448Y-43718729D01*
X74300186Y-43820186D01*
X74198729Y-43903448D01*
X74162991Y-43932778D01*
X74162989Y-43932779D01*
X74006467Y-44016443D01*
X73949853Y-44033616D01*
X73836627Y-44067963D01*
X73770443Y-44074481D01*
X73704260Y-44081000D01*
X73615740Y-44081000D01*
X73549557Y-44074481D01*
X73483373Y-44067963D01*
X73370147Y-44033616D01*
X73313533Y-44016443D01*
X73157011Y-43932779D01*
X73157009Y-43932778D01*
X73121271Y-43903448D01*
X73019814Y-43820186D01*
X72936552Y-43718729D01*
X72907222Y-43682991D01*
X72897652Y-43665087D01*
X72823557Y-43526467D01*
X72806384Y-43469853D01*
X72772037Y-43356627D01*
X72754641Y-43180000D01*
X72772037Y-43003373D01*
X72823557Y-42833534D01*
X72823557Y-42833533D01*
X72907221Y-42677011D01*
X72907222Y-42677009D01*
X72936552Y-42641271D01*
X73019814Y-42539814D01*
X73121271Y-42456552D01*
X73157009Y-42427222D01*
X73174913Y-42417652D01*
X73313533Y-42343557D01*
X73370147Y-42326384D01*
X73483373Y-42292037D01*
X73549558Y-42285518D01*
X73615740Y-42279000D01*
X73704260Y-42279000D01*
X73770442Y-42285518D01*
X73770442Y-42285518D01*
G37*
G36*
X63610442Y-39745518D02*
X63676627Y-39752037D01*
X63789853Y-39786384D01*
X63846467Y-39803557D01*
X63985087Y-39877652D01*
X64002991Y-39887222D01*
X64038729Y-39916552D01*
X64140186Y-39999814D01*
X64223448Y-40101271D01*
X64252778Y-40137009D01*
X64252779Y-40137011D01*
X64336443Y-40293533D01*
X64336443Y-40293534D01*
X64387963Y-40463373D01*
X64405359Y-40640000D01*
X64387963Y-40816627D01*
X64353616Y-40929853D01*
X64336443Y-40986467D01*
X64262348Y-41125087D01*
X64252778Y-41142991D01*
X64223448Y-41178729D01*
X64140186Y-41280186D01*
X64038729Y-41363448D01*
X64002991Y-41392778D01*
X64002989Y-41392779D01*
X63846467Y-41476443D01*
X63789853Y-41493616D01*
X63676627Y-41527963D01*
X63610442Y-41534482D01*
X63544260Y-41541000D01*
X63455740Y-41541000D01*
X63389558Y-41534482D01*
X63323373Y-41527963D01*
X63210147Y-41493616D01*
X63153533Y-41476443D01*
X62997011Y-41392779D01*
X62997009Y-41392778D01*
X62961271Y-41363448D01*
X62859814Y-41280186D01*
X62776552Y-41178729D01*
X62747222Y-41142991D01*
X62737652Y-41125087D01*
X62663557Y-40986467D01*
X62646384Y-40929853D01*
X62612037Y-40816627D01*
X62594641Y-40640000D01*
X62612037Y-40463373D01*
X62663557Y-40293534D01*
X62663557Y-40293533D01*
X62747221Y-40137011D01*
X62747222Y-40137009D01*
X62776552Y-40101271D01*
X62859814Y-39999814D01*
X62961271Y-39916552D01*
X62997009Y-39887222D01*
X63014913Y-39877652D01*
X63153533Y-39803557D01*
X63210147Y-39786384D01*
X63323373Y-39752037D01*
X63389558Y-39745518D01*
X63455740Y-39739000D01*
X63544260Y-39739000D01*
X63610442Y-39745518D01*
X63610442Y-39745518D01*
G37*
G36*
X106790442Y-39745518D02*
X106856627Y-39752037D01*
X106969853Y-39786384D01*
X107026467Y-39803557D01*
X107165087Y-39877652D01*
X107182991Y-39887222D01*
X107218729Y-39916552D01*
X107320186Y-39999814D01*
X107403448Y-40101271D01*
X107432778Y-40137009D01*
X107432779Y-40137011D01*
X107516443Y-40293533D01*
X107516443Y-40293534D01*
X107567963Y-40463373D01*
X107585359Y-40640000D01*
X107567963Y-40816627D01*
X107533616Y-40929853D01*
X107516443Y-40986467D01*
X107442348Y-41125087D01*
X107432778Y-41142991D01*
X107403448Y-41178729D01*
X107320186Y-41280186D01*
X107218729Y-41363448D01*
X107182991Y-41392778D01*
X107182989Y-41392779D01*
X107026467Y-41476443D01*
X106969853Y-41493616D01*
X106856627Y-41527963D01*
X106790442Y-41534482D01*
X106724260Y-41541000D01*
X106635740Y-41541000D01*
X106569558Y-41534482D01*
X106503373Y-41527963D01*
X106390147Y-41493616D01*
X106333533Y-41476443D01*
X106177011Y-41392779D01*
X106177009Y-41392778D01*
X106141271Y-41363448D01*
X106039814Y-41280186D01*
X105956552Y-41178729D01*
X105927222Y-41142991D01*
X105917652Y-41125087D01*
X105843557Y-40986467D01*
X105826384Y-40929853D01*
X105792037Y-40816627D01*
X105774641Y-40640000D01*
X105792037Y-40463373D01*
X105843557Y-40293534D01*
X105843557Y-40293533D01*
X105927221Y-40137011D01*
X105927222Y-40137009D01*
X105956552Y-40101271D01*
X106039814Y-39999814D01*
X106141271Y-39916552D01*
X106177009Y-39887222D01*
X106194913Y-39877652D01*
X106333533Y-39803557D01*
X106390147Y-39786384D01*
X106503373Y-39752037D01*
X106569558Y-39745518D01*
X106635740Y-39739000D01*
X106724260Y-39739000D01*
X106790442Y-39745518D01*
X106790442Y-39745518D01*
G37*
G36*
X96630442Y-39745518D02*
X96696627Y-39752037D01*
X96809853Y-39786384D01*
X96866467Y-39803557D01*
X97005087Y-39877652D01*
X97022991Y-39887222D01*
X97058729Y-39916552D01*
X97160186Y-39999814D01*
X97243448Y-40101271D01*
X97272778Y-40137009D01*
X97272779Y-40137011D01*
X97356443Y-40293533D01*
X97356443Y-40293534D01*
X97407963Y-40463373D01*
X97425359Y-40640000D01*
X97407963Y-40816627D01*
X97373616Y-40929853D01*
X97356443Y-40986467D01*
X97282348Y-41125087D01*
X97272778Y-41142991D01*
X97243448Y-41178729D01*
X97160186Y-41280186D01*
X97058729Y-41363448D01*
X97022991Y-41392778D01*
X97022989Y-41392779D01*
X96866467Y-41476443D01*
X96809853Y-41493616D01*
X96696627Y-41527963D01*
X96630442Y-41534482D01*
X96564260Y-41541000D01*
X96475740Y-41541000D01*
X96409558Y-41534482D01*
X96343373Y-41527963D01*
X96230147Y-41493616D01*
X96173533Y-41476443D01*
X96017011Y-41392779D01*
X96017009Y-41392778D01*
X95981271Y-41363448D01*
X95879814Y-41280186D01*
X95796552Y-41178729D01*
X95767222Y-41142991D01*
X95757652Y-41125087D01*
X95683557Y-40986467D01*
X95666384Y-40929853D01*
X95632037Y-40816627D01*
X95614641Y-40640000D01*
X95632037Y-40463373D01*
X95683557Y-40293534D01*
X95683557Y-40293533D01*
X95767221Y-40137011D01*
X95767222Y-40137009D01*
X95796552Y-40101271D01*
X95879814Y-39999814D01*
X95981271Y-39916552D01*
X96017009Y-39887222D01*
X96034913Y-39877652D01*
X96173533Y-39803557D01*
X96230147Y-39786384D01*
X96343373Y-39752037D01*
X96409558Y-39745518D01*
X96475740Y-39739000D01*
X96564260Y-39739000D01*
X96630442Y-39745518D01*
X96630442Y-39745518D01*
G37*
G36*
X86470442Y-39745518D02*
X86536627Y-39752037D01*
X86649853Y-39786384D01*
X86706467Y-39803557D01*
X86845087Y-39877652D01*
X86862991Y-39887222D01*
X86898729Y-39916552D01*
X87000186Y-39999814D01*
X87083448Y-40101271D01*
X87112778Y-40137009D01*
X87112779Y-40137011D01*
X87196443Y-40293533D01*
X87196443Y-40293534D01*
X87247963Y-40463373D01*
X87265359Y-40640000D01*
X87247963Y-40816627D01*
X87213616Y-40929853D01*
X87196443Y-40986467D01*
X87122348Y-41125087D01*
X87112778Y-41142991D01*
X87083448Y-41178729D01*
X87000186Y-41280186D01*
X86898729Y-41363448D01*
X86862991Y-41392778D01*
X86862989Y-41392779D01*
X86706467Y-41476443D01*
X86649853Y-41493616D01*
X86536627Y-41527963D01*
X86470442Y-41534482D01*
X86404260Y-41541000D01*
X86315740Y-41541000D01*
X86249558Y-41534482D01*
X86183373Y-41527963D01*
X86070147Y-41493616D01*
X86013533Y-41476443D01*
X85857011Y-41392779D01*
X85857009Y-41392778D01*
X85821271Y-41363448D01*
X85719814Y-41280186D01*
X85636552Y-41178729D01*
X85607222Y-41142991D01*
X85597652Y-41125087D01*
X85523557Y-40986467D01*
X85506384Y-40929853D01*
X85472037Y-40816627D01*
X85454641Y-40640000D01*
X85472037Y-40463373D01*
X85523557Y-40293534D01*
X85523557Y-40293533D01*
X85607221Y-40137011D01*
X85607222Y-40137009D01*
X85636552Y-40101271D01*
X85719814Y-39999814D01*
X85821271Y-39916552D01*
X85857009Y-39887222D01*
X85874913Y-39877652D01*
X86013533Y-39803557D01*
X86070147Y-39786384D01*
X86183373Y-39752037D01*
X86249558Y-39745518D01*
X86315740Y-39739000D01*
X86404260Y-39739000D01*
X86470442Y-39745518D01*
X86470442Y-39745518D01*
G37*
G36*
X40750442Y-39745518D02*
X40816627Y-39752037D01*
X40929853Y-39786384D01*
X40986467Y-39803557D01*
X41125087Y-39877652D01*
X41142991Y-39887222D01*
X41178729Y-39916552D01*
X41280186Y-39999814D01*
X41363448Y-40101271D01*
X41392778Y-40137009D01*
X41392779Y-40137011D01*
X41476443Y-40293533D01*
X41476443Y-40293534D01*
X41527963Y-40463373D01*
X41545359Y-40640000D01*
X41527963Y-40816627D01*
X41493616Y-40929853D01*
X41476443Y-40986467D01*
X41402348Y-41125087D01*
X41392778Y-41142991D01*
X41363448Y-41178729D01*
X41280186Y-41280186D01*
X41178729Y-41363448D01*
X41142991Y-41392778D01*
X41142989Y-41392779D01*
X40986467Y-41476443D01*
X40929853Y-41493616D01*
X40816627Y-41527963D01*
X40750442Y-41534482D01*
X40684260Y-41541000D01*
X40595740Y-41541000D01*
X40529558Y-41534482D01*
X40463373Y-41527963D01*
X40350147Y-41493616D01*
X40293533Y-41476443D01*
X40137011Y-41392779D01*
X40137009Y-41392778D01*
X40101271Y-41363448D01*
X39999814Y-41280186D01*
X39916552Y-41178729D01*
X39887222Y-41142991D01*
X39877652Y-41125087D01*
X39803557Y-40986467D01*
X39786384Y-40929853D01*
X39752037Y-40816627D01*
X39734641Y-40640000D01*
X39752037Y-40463373D01*
X39803557Y-40293534D01*
X39803557Y-40293533D01*
X39887221Y-40137011D01*
X39887222Y-40137009D01*
X39916552Y-40101271D01*
X39999814Y-39999814D01*
X40101271Y-39916552D01*
X40137009Y-39887222D01*
X40154913Y-39877652D01*
X40293533Y-39803557D01*
X40350147Y-39786384D01*
X40463373Y-39752037D01*
X40529558Y-39745518D01*
X40595740Y-39739000D01*
X40684260Y-39739000D01*
X40750442Y-39745518D01*
X40750442Y-39745518D01*
G37*
G36*
X20430442Y-39745518D02*
X20496627Y-39752037D01*
X20609853Y-39786384D01*
X20666467Y-39803557D01*
X20805087Y-39877652D01*
X20822991Y-39887222D01*
X20858729Y-39916552D01*
X20960186Y-39999814D01*
X21043448Y-40101271D01*
X21072778Y-40137009D01*
X21072779Y-40137011D01*
X21156443Y-40293533D01*
X21156443Y-40293534D01*
X21207963Y-40463373D01*
X21225359Y-40640000D01*
X21207963Y-40816627D01*
X21173616Y-40929853D01*
X21156443Y-40986467D01*
X21082348Y-41125087D01*
X21072778Y-41142991D01*
X21043448Y-41178729D01*
X20960186Y-41280186D01*
X20858729Y-41363448D01*
X20822991Y-41392778D01*
X20822989Y-41392779D01*
X20666467Y-41476443D01*
X20609853Y-41493616D01*
X20496627Y-41527963D01*
X20430442Y-41534482D01*
X20364260Y-41541000D01*
X20275740Y-41541000D01*
X20209558Y-41534482D01*
X20143373Y-41527963D01*
X20030147Y-41493616D01*
X19973533Y-41476443D01*
X19817011Y-41392779D01*
X19817009Y-41392778D01*
X19781271Y-41363448D01*
X19679814Y-41280186D01*
X19596552Y-41178729D01*
X19567222Y-41142991D01*
X19557652Y-41125087D01*
X19483557Y-40986467D01*
X19466384Y-40929853D01*
X19432037Y-40816627D01*
X19414641Y-40640000D01*
X19432037Y-40463373D01*
X19483557Y-40293534D01*
X19483557Y-40293533D01*
X19567221Y-40137011D01*
X19567222Y-40137009D01*
X19596552Y-40101271D01*
X19679814Y-39999814D01*
X19781271Y-39916552D01*
X19817009Y-39887222D01*
X19834913Y-39877652D01*
X19973533Y-39803557D01*
X20030147Y-39786384D01*
X20143373Y-39752037D01*
X20209558Y-39745518D01*
X20275740Y-39739000D01*
X20364260Y-39739000D01*
X20430442Y-39745518D01*
X20430442Y-39745518D01*
G37*
G36*
X73770442Y-39745518D02*
X73836627Y-39752037D01*
X73949853Y-39786384D01*
X74006467Y-39803557D01*
X74145087Y-39877652D01*
X74162991Y-39887222D01*
X74198729Y-39916552D01*
X74300186Y-39999814D01*
X74383448Y-40101271D01*
X74412778Y-40137009D01*
X74412779Y-40137011D01*
X74496443Y-40293533D01*
X74496443Y-40293534D01*
X74547963Y-40463373D01*
X74565359Y-40640000D01*
X74547963Y-40816627D01*
X74513616Y-40929853D01*
X74496443Y-40986467D01*
X74422348Y-41125087D01*
X74412778Y-41142991D01*
X74383448Y-41178729D01*
X74300186Y-41280186D01*
X74198729Y-41363448D01*
X74162991Y-41392778D01*
X74162989Y-41392779D01*
X74006467Y-41476443D01*
X73949853Y-41493616D01*
X73836627Y-41527963D01*
X73770442Y-41534482D01*
X73704260Y-41541000D01*
X73615740Y-41541000D01*
X73549558Y-41534482D01*
X73483373Y-41527963D01*
X73370147Y-41493616D01*
X73313533Y-41476443D01*
X73157011Y-41392779D01*
X73157009Y-41392778D01*
X73121271Y-41363448D01*
X73019814Y-41280186D01*
X72936552Y-41178729D01*
X72907222Y-41142991D01*
X72897652Y-41125087D01*
X72823557Y-40986467D01*
X72806384Y-40929853D01*
X72772037Y-40816627D01*
X72754641Y-40640000D01*
X72772037Y-40463373D01*
X72823557Y-40293534D01*
X72823557Y-40293533D01*
X72907221Y-40137011D01*
X72907222Y-40137009D01*
X72936552Y-40101271D01*
X73019814Y-39999814D01*
X73121271Y-39916552D01*
X73157009Y-39887222D01*
X73174913Y-39877652D01*
X73313533Y-39803557D01*
X73370147Y-39786384D01*
X73483373Y-39752037D01*
X73549558Y-39745518D01*
X73615740Y-39739000D01*
X73704260Y-39739000D01*
X73770442Y-39745518D01*
X73770442Y-39745518D01*
G37*
G36*
X53450442Y-39745518D02*
X53516627Y-39752037D01*
X53629853Y-39786384D01*
X53686467Y-39803557D01*
X53825087Y-39877652D01*
X53842991Y-39887222D01*
X53878729Y-39916552D01*
X53980186Y-39999814D01*
X54063448Y-40101271D01*
X54092778Y-40137009D01*
X54092779Y-40137011D01*
X54176443Y-40293533D01*
X54176443Y-40293534D01*
X54227963Y-40463373D01*
X54245359Y-40640000D01*
X54227963Y-40816627D01*
X54193616Y-40929853D01*
X54176443Y-40986467D01*
X54102348Y-41125087D01*
X54092778Y-41142991D01*
X54063448Y-41178729D01*
X53980186Y-41280186D01*
X53878729Y-41363448D01*
X53842991Y-41392778D01*
X53842989Y-41392779D01*
X53686467Y-41476443D01*
X53629853Y-41493616D01*
X53516627Y-41527963D01*
X53450442Y-41534482D01*
X53384260Y-41541000D01*
X53295740Y-41541000D01*
X53229558Y-41534482D01*
X53163373Y-41527963D01*
X53050147Y-41493616D01*
X52993533Y-41476443D01*
X52837011Y-41392779D01*
X52837009Y-41392778D01*
X52801271Y-41363448D01*
X52699814Y-41280186D01*
X52616552Y-41178729D01*
X52587222Y-41142991D01*
X52577652Y-41125087D01*
X52503557Y-40986467D01*
X52486384Y-40929853D01*
X52452037Y-40816627D01*
X52434641Y-40640000D01*
X52452037Y-40463373D01*
X52503557Y-40293534D01*
X52503557Y-40293533D01*
X52587221Y-40137011D01*
X52587222Y-40137009D01*
X52616552Y-40101271D01*
X52699814Y-39999814D01*
X52801271Y-39916552D01*
X52837009Y-39887222D01*
X52854913Y-39877652D01*
X52993533Y-39803557D01*
X53050147Y-39786384D01*
X53163373Y-39752037D01*
X53229558Y-39745518D01*
X53295740Y-39739000D01*
X53384260Y-39739000D01*
X53450442Y-39745518D01*
X53450442Y-39745518D01*
G37*
G36*
X30590442Y-39745518D02*
X30656627Y-39752037D01*
X30769853Y-39786384D01*
X30826467Y-39803557D01*
X30965087Y-39877652D01*
X30982991Y-39887222D01*
X31018729Y-39916552D01*
X31120186Y-39999814D01*
X31203448Y-40101271D01*
X31232778Y-40137009D01*
X31232779Y-40137011D01*
X31316443Y-40293533D01*
X31316443Y-40293534D01*
X31367963Y-40463373D01*
X31385359Y-40640000D01*
X31367963Y-40816627D01*
X31333616Y-40929853D01*
X31316443Y-40986467D01*
X31242348Y-41125087D01*
X31232778Y-41142991D01*
X31203448Y-41178729D01*
X31120186Y-41280186D01*
X31018729Y-41363448D01*
X30982991Y-41392778D01*
X30982989Y-41392779D01*
X30826467Y-41476443D01*
X30769853Y-41493616D01*
X30656627Y-41527963D01*
X30590442Y-41534482D01*
X30524260Y-41541000D01*
X30435740Y-41541000D01*
X30369558Y-41534482D01*
X30303373Y-41527963D01*
X30190147Y-41493616D01*
X30133533Y-41476443D01*
X29977011Y-41392779D01*
X29977009Y-41392778D01*
X29941271Y-41363448D01*
X29839814Y-41280186D01*
X29756552Y-41178729D01*
X29727222Y-41142991D01*
X29717652Y-41125087D01*
X29643557Y-40986467D01*
X29626384Y-40929853D01*
X29592037Y-40816627D01*
X29574641Y-40640000D01*
X29592037Y-40463373D01*
X29643557Y-40293534D01*
X29643557Y-40293533D01*
X29727221Y-40137011D01*
X29727222Y-40137009D01*
X29756552Y-40101271D01*
X29839814Y-39999814D01*
X29941271Y-39916552D01*
X29977009Y-39887222D01*
X29994913Y-39877652D01*
X30133533Y-39803557D01*
X30190147Y-39786384D01*
X30303373Y-39752037D01*
X30369558Y-39745518D01*
X30435740Y-39739000D01*
X30524260Y-39739000D01*
X30590442Y-39745518D01*
X30590442Y-39745518D01*
G37*
G36*
X20430442Y-37205518D02*
X20496627Y-37212037D01*
X20609853Y-37246384D01*
X20666467Y-37263557D01*
X20805087Y-37337652D01*
X20822991Y-37347222D01*
X20858729Y-37376552D01*
X20960186Y-37459814D01*
X21043448Y-37561271D01*
X21072778Y-37597009D01*
X21072779Y-37597011D01*
X21156443Y-37753533D01*
X21156443Y-37753534D01*
X21207963Y-37923373D01*
X21225359Y-38100000D01*
X21207963Y-38276627D01*
X21173616Y-38389853D01*
X21156443Y-38446467D01*
X21082348Y-38585087D01*
X21072778Y-38602991D01*
X21043448Y-38638729D01*
X20960186Y-38740186D01*
X20858729Y-38823448D01*
X20822991Y-38852778D01*
X20822989Y-38852779D01*
X20666467Y-38936443D01*
X20609853Y-38953616D01*
X20496627Y-38987963D01*
X20430443Y-38994481D01*
X20364260Y-39001000D01*
X20275740Y-39001000D01*
X20209557Y-38994481D01*
X20143373Y-38987963D01*
X20030147Y-38953616D01*
X19973533Y-38936443D01*
X19817011Y-38852779D01*
X19817009Y-38852778D01*
X19781271Y-38823448D01*
X19679814Y-38740186D01*
X19596552Y-38638729D01*
X19567222Y-38602991D01*
X19557652Y-38585087D01*
X19483557Y-38446467D01*
X19466384Y-38389853D01*
X19432037Y-38276627D01*
X19414641Y-38100000D01*
X19432037Y-37923373D01*
X19483557Y-37753534D01*
X19483557Y-37753533D01*
X19567221Y-37597011D01*
X19567222Y-37597009D01*
X19596552Y-37561271D01*
X19679814Y-37459814D01*
X19781271Y-37376552D01*
X19817009Y-37347222D01*
X19834913Y-37337652D01*
X19973533Y-37263557D01*
X20030147Y-37246384D01*
X20143373Y-37212037D01*
X20209558Y-37205518D01*
X20275740Y-37199000D01*
X20364260Y-37199000D01*
X20430442Y-37205518D01*
X20430442Y-37205518D01*
G37*
G36*
X86470442Y-37205518D02*
X86536627Y-37212037D01*
X86649853Y-37246384D01*
X86706467Y-37263557D01*
X86845087Y-37337652D01*
X86862991Y-37347222D01*
X86898729Y-37376552D01*
X87000186Y-37459814D01*
X87083448Y-37561271D01*
X87112778Y-37597009D01*
X87112779Y-37597011D01*
X87196443Y-37753533D01*
X87196443Y-37753534D01*
X87247963Y-37923373D01*
X87265359Y-38100000D01*
X87247963Y-38276627D01*
X87213616Y-38389853D01*
X87196443Y-38446467D01*
X87122348Y-38585087D01*
X87112778Y-38602991D01*
X87083448Y-38638729D01*
X87000186Y-38740186D01*
X86898729Y-38823448D01*
X86862991Y-38852778D01*
X86862989Y-38852779D01*
X86706467Y-38936443D01*
X86649853Y-38953616D01*
X86536627Y-38987963D01*
X86470443Y-38994481D01*
X86404260Y-39001000D01*
X86315740Y-39001000D01*
X86249557Y-38994481D01*
X86183373Y-38987963D01*
X86070147Y-38953616D01*
X86013533Y-38936443D01*
X85857011Y-38852779D01*
X85857009Y-38852778D01*
X85821271Y-38823448D01*
X85719814Y-38740186D01*
X85636552Y-38638729D01*
X85607222Y-38602991D01*
X85597652Y-38585087D01*
X85523557Y-38446467D01*
X85506384Y-38389853D01*
X85472037Y-38276627D01*
X85454641Y-38100000D01*
X85472037Y-37923373D01*
X85523557Y-37753534D01*
X85523557Y-37753533D01*
X85607221Y-37597011D01*
X85607222Y-37597009D01*
X85636552Y-37561271D01*
X85719814Y-37459814D01*
X85821271Y-37376552D01*
X85857009Y-37347222D01*
X85874913Y-37337652D01*
X86013533Y-37263557D01*
X86070147Y-37246384D01*
X86183373Y-37212037D01*
X86249558Y-37205518D01*
X86315740Y-37199000D01*
X86404260Y-37199000D01*
X86470442Y-37205518D01*
X86470442Y-37205518D01*
G37*
G36*
X40750442Y-37205518D02*
X40816627Y-37212037D01*
X40929853Y-37246384D01*
X40986467Y-37263557D01*
X41125087Y-37337652D01*
X41142991Y-37347222D01*
X41178729Y-37376552D01*
X41280186Y-37459814D01*
X41363448Y-37561271D01*
X41392778Y-37597009D01*
X41392779Y-37597011D01*
X41476443Y-37753533D01*
X41476443Y-37753534D01*
X41527963Y-37923373D01*
X41545359Y-38100000D01*
X41527963Y-38276627D01*
X41493616Y-38389853D01*
X41476443Y-38446467D01*
X41402348Y-38585087D01*
X41392778Y-38602991D01*
X41363448Y-38638729D01*
X41280186Y-38740186D01*
X41178729Y-38823448D01*
X41142991Y-38852778D01*
X41142989Y-38852779D01*
X40986467Y-38936443D01*
X40929853Y-38953616D01*
X40816627Y-38987963D01*
X40750443Y-38994481D01*
X40684260Y-39001000D01*
X40595740Y-39001000D01*
X40529557Y-38994481D01*
X40463373Y-38987963D01*
X40350147Y-38953616D01*
X40293533Y-38936443D01*
X40137011Y-38852779D01*
X40137009Y-38852778D01*
X40101271Y-38823448D01*
X39999814Y-38740186D01*
X39916552Y-38638729D01*
X39887222Y-38602991D01*
X39877652Y-38585087D01*
X39803557Y-38446467D01*
X39786384Y-38389853D01*
X39752037Y-38276627D01*
X39734641Y-38100000D01*
X39752037Y-37923373D01*
X39803557Y-37753534D01*
X39803557Y-37753533D01*
X39887221Y-37597011D01*
X39887222Y-37597009D01*
X39916552Y-37561271D01*
X39999814Y-37459814D01*
X40101271Y-37376552D01*
X40137009Y-37347222D01*
X40154913Y-37337652D01*
X40293533Y-37263557D01*
X40350147Y-37246384D01*
X40463373Y-37212037D01*
X40529558Y-37205518D01*
X40595740Y-37199000D01*
X40684260Y-37199000D01*
X40750442Y-37205518D01*
X40750442Y-37205518D01*
G37*
G36*
X30590442Y-37205518D02*
X30656627Y-37212037D01*
X30769853Y-37246384D01*
X30826467Y-37263557D01*
X30965087Y-37337652D01*
X30982991Y-37347222D01*
X31018729Y-37376552D01*
X31120186Y-37459814D01*
X31203448Y-37561271D01*
X31232778Y-37597009D01*
X31232779Y-37597011D01*
X31316443Y-37753533D01*
X31316443Y-37753534D01*
X31367963Y-37923373D01*
X31385359Y-38100000D01*
X31367963Y-38276627D01*
X31333616Y-38389853D01*
X31316443Y-38446467D01*
X31242348Y-38585087D01*
X31232778Y-38602991D01*
X31203448Y-38638729D01*
X31120186Y-38740186D01*
X31018729Y-38823448D01*
X30982991Y-38852778D01*
X30982989Y-38852779D01*
X30826467Y-38936443D01*
X30769853Y-38953616D01*
X30656627Y-38987963D01*
X30590443Y-38994481D01*
X30524260Y-39001000D01*
X30435740Y-39001000D01*
X30369557Y-38994481D01*
X30303373Y-38987963D01*
X30190147Y-38953616D01*
X30133533Y-38936443D01*
X29977011Y-38852779D01*
X29977009Y-38852778D01*
X29941271Y-38823448D01*
X29839814Y-38740186D01*
X29756552Y-38638729D01*
X29727222Y-38602991D01*
X29717652Y-38585087D01*
X29643557Y-38446467D01*
X29626384Y-38389853D01*
X29592037Y-38276627D01*
X29574641Y-38100000D01*
X29592037Y-37923373D01*
X29643557Y-37753534D01*
X29643557Y-37753533D01*
X29727221Y-37597011D01*
X29727222Y-37597009D01*
X29756552Y-37561271D01*
X29839814Y-37459814D01*
X29941271Y-37376552D01*
X29977009Y-37347222D01*
X29994913Y-37337652D01*
X30133533Y-37263557D01*
X30190147Y-37246384D01*
X30303373Y-37212037D01*
X30369558Y-37205518D01*
X30435740Y-37199000D01*
X30524260Y-37199000D01*
X30590442Y-37205518D01*
X30590442Y-37205518D01*
G37*
G36*
X106790442Y-37205518D02*
X106856627Y-37212037D01*
X106969853Y-37246384D01*
X107026467Y-37263557D01*
X107165087Y-37337652D01*
X107182991Y-37347222D01*
X107218729Y-37376552D01*
X107320186Y-37459814D01*
X107403448Y-37561271D01*
X107432778Y-37597009D01*
X107432779Y-37597011D01*
X107516443Y-37753533D01*
X107516443Y-37753534D01*
X107567963Y-37923373D01*
X107585359Y-38100000D01*
X107567963Y-38276627D01*
X107533616Y-38389853D01*
X107516443Y-38446467D01*
X107442348Y-38585087D01*
X107432778Y-38602991D01*
X107403448Y-38638729D01*
X107320186Y-38740186D01*
X107218729Y-38823448D01*
X107182991Y-38852778D01*
X107182989Y-38852779D01*
X107026467Y-38936443D01*
X106969853Y-38953616D01*
X106856627Y-38987963D01*
X106790443Y-38994481D01*
X106724260Y-39001000D01*
X106635740Y-39001000D01*
X106569557Y-38994481D01*
X106503373Y-38987963D01*
X106390147Y-38953616D01*
X106333533Y-38936443D01*
X106177011Y-38852779D01*
X106177009Y-38852778D01*
X106141271Y-38823448D01*
X106039814Y-38740186D01*
X105956552Y-38638729D01*
X105927222Y-38602991D01*
X105917652Y-38585087D01*
X105843557Y-38446467D01*
X105826384Y-38389853D01*
X105792037Y-38276627D01*
X105774641Y-38100000D01*
X105792037Y-37923373D01*
X105843557Y-37753534D01*
X105843557Y-37753533D01*
X105927221Y-37597011D01*
X105927222Y-37597009D01*
X105956552Y-37561271D01*
X106039814Y-37459814D01*
X106141271Y-37376552D01*
X106177009Y-37347222D01*
X106194913Y-37337652D01*
X106333533Y-37263557D01*
X106390147Y-37246384D01*
X106503373Y-37212037D01*
X106569558Y-37205518D01*
X106635740Y-37199000D01*
X106724260Y-37199000D01*
X106790442Y-37205518D01*
X106790442Y-37205518D01*
G37*
G36*
X63610442Y-37205518D02*
X63676627Y-37212037D01*
X63789853Y-37246384D01*
X63846467Y-37263557D01*
X63985087Y-37337652D01*
X64002991Y-37347222D01*
X64038729Y-37376552D01*
X64140186Y-37459814D01*
X64223448Y-37561271D01*
X64252778Y-37597009D01*
X64252779Y-37597011D01*
X64336443Y-37753533D01*
X64336443Y-37753534D01*
X64387963Y-37923373D01*
X64405359Y-38100000D01*
X64387963Y-38276627D01*
X64353616Y-38389853D01*
X64336443Y-38446467D01*
X64262348Y-38585087D01*
X64252778Y-38602991D01*
X64223448Y-38638729D01*
X64140186Y-38740186D01*
X64038729Y-38823448D01*
X64002991Y-38852778D01*
X64002989Y-38852779D01*
X63846467Y-38936443D01*
X63789853Y-38953616D01*
X63676627Y-38987963D01*
X63610443Y-38994481D01*
X63544260Y-39001000D01*
X63455740Y-39001000D01*
X63389557Y-38994481D01*
X63323373Y-38987963D01*
X63210147Y-38953616D01*
X63153533Y-38936443D01*
X62997011Y-38852779D01*
X62997009Y-38852778D01*
X62961271Y-38823448D01*
X62859814Y-38740186D01*
X62776552Y-38638729D01*
X62747222Y-38602991D01*
X62737652Y-38585087D01*
X62663557Y-38446467D01*
X62646384Y-38389853D01*
X62612037Y-38276627D01*
X62594641Y-38100000D01*
X62612037Y-37923373D01*
X62663557Y-37753534D01*
X62663557Y-37753533D01*
X62747221Y-37597011D01*
X62747222Y-37597009D01*
X62776552Y-37561271D01*
X62859814Y-37459814D01*
X62961271Y-37376552D01*
X62997009Y-37347222D01*
X63014913Y-37337652D01*
X63153533Y-37263557D01*
X63210147Y-37246384D01*
X63323373Y-37212037D01*
X63389558Y-37205518D01*
X63455740Y-37199000D01*
X63544260Y-37199000D01*
X63610442Y-37205518D01*
X63610442Y-37205518D01*
G37*
G36*
X73770442Y-37205518D02*
X73836627Y-37212037D01*
X73949853Y-37246384D01*
X74006467Y-37263557D01*
X74145087Y-37337652D01*
X74162991Y-37347222D01*
X74198729Y-37376552D01*
X74300186Y-37459814D01*
X74383448Y-37561271D01*
X74412778Y-37597009D01*
X74412779Y-37597011D01*
X74496443Y-37753533D01*
X74496443Y-37753534D01*
X74547963Y-37923373D01*
X74565359Y-38100000D01*
X74547963Y-38276627D01*
X74513616Y-38389853D01*
X74496443Y-38446467D01*
X74422348Y-38585087D01*
X74412778Y-38602991D01*
X74383448Y-38638729D01*
X74300186Y-38740186D01*
X74198729Y-38823448D01*
X74162991Y-38852778D01*
X74162989Y-38852779D01*
X74006467Y-38936443D01*
X73949853Y-38953616D01*
X73836627Y-38987963D01*
X73770443Y-38994481D01*
X73704260Y-39001000D01*
X73615740Y-39001000D01*
X73549557Y-38994481D01*
X73483373Y-38987963D01*
X73370147Y-38953616D01*
X73313533Y-38936443D01*
X73157011Y-38852779D01*
X73157009Y-38852778D01*
X73121271Y-38823448D01*
X73019814Y-38740186D01*
X72936552Y-38638729D01*
X72907222Y-38602991D01*
X72897652Y-38585087D01*
X72823557Y-38446467D01*
X72806384Y-38389853D01*
X72772037Y-38276627D01*
X72754641Y-38100000D01*
X72772037Y-37923373D01*
X72823557Y-37753534D01*
X72823557Y-37753533D01*
X72907221Y-37597011D01*
X72907222Y-37597009D01*
X72936552Y-37561271D01*
X73019814Y-37459814D01*
X73121271Y-37376552D01*
X73157009Y-37347222D01*
X73174913Y-37337652D01*
X73313533Y-37263557D01*
X73370147Y-37246384D01*
X73483373Y-37212037D01*
X73549558Y-37205518D01*
X73615740Y-37199000D01*
X73704260Y-37199000D01*
X73770442Y-37205518D01*
X73770442Y-37205518D01*
G37*
G36*
X53450442Y-37205518D02*
X53516627Y-37212037D01*
X53629853Y-37246384D01*
X53686467Y-37263557D01*
X53825087Y-37337652D01*
X53842991Y-37347222D01*
X53878729Y-37376552D01*
X53980186Y-37459814D01*
X54063448Y-37561271D01*
X54092778Y-37597009D01*
X54092779Y-37597011D01*
X54176443Y-37753533D01*
X54176443Y-37753534D01*
X54227963Y-37923373D01*
X54245359Y-38100000D01*
X54227963Y-38276627D01*
X54193616Y-38389853D01*
X54176443Y-38446467D01*
X54102348Y-38585087D01*
X54092778Y-38602991D01*
X54063448Y-38638729D01*
X53980186Y-38740186D01*
X53878729Y-38823448D01*
X53842991Y-38852778D01*
X53842989Y-38852779D01*
X53686467Y-38936443D01*
X53629853Y-38953616D01*
X53516627Y-38987963D01*
X53450443Y-38994481D01*
X53384260Y-39001000D01*
X53295740Y-39001000D01*
X53229557Y-38994481D01*
X53163373Y-38987963D01*
X53050147Y-38953616D01*
X52993533Y-38936443D01*
X52837011Y-38852779D01*
X52837009Y-38852778D01*
X52801271Y-38823448D01*
X52699814Y-38740186D01*
X52616552Y-38638729D01*
X52587222Y-38602991D01*
X52577652Y-38585087D01*
X52503557Y-38446467D01*
X52486384Y-38389853D01*
X52452037Y-38276627D01*
X52434641Y-38100000D01*
X52452037Y-37923373D01*
X52503557Y-37753534D01*
X52503557Y-37753533D01*
X52587221Y-37597011D01*
X52587222Y-37597009D01*
X52616552Y-37561271D01*
X52699814Y-37459814D01*
X52801271Y-37376552D01*
X52837009Y-37347222D01*
X52854913Y-37337652D01*
X52993533Y-37263557D01*
X53050147Y-37246384D01*
X53163373Y-37212037D01*
X53229558Y-37205518D01*
X53295740Y-37199000D01*
X53384260Y-37199000D01*
X53450442Y-37205518D01*
X53450442Y-37205518D01*
G37*
G36*
X96630442Y-37205518D02*
X96696627Y-37212037D01*
X96809853Y-37246384D01*
X96866467Y-37263557D01*
X97005087Y-37337652D01*
X97022991Y-37347222D01*
X97058729Y-37376552D01*
X97160186Y-37459814D01*
X97243448Y-37561271D01*
X97272778Y-37597009D01*
X97272779Y-37597011D01*
X97356443Y-37753533D01*
X97356443Y-37753534D01*
X97407963Y-37923373D01*
X97425359Y-38100000D01*
X97407963Y-38276627D01*
X97373616Y-38389853D01*
X97356443Y-38446467D01*
X97282348Y-38585087D01*
X97272778Y-38602991D01*
X97243448Y-38638729D01*
X97160186Y-38740186D01*
X97058729Y-38823448D01*
X97022991Y-38852778D01*
X97022989Y-38852779D01*
X96866467Y-38936443D01*
X96809853Y-38953616D01*
X96696627Y-38987963D01*
X96630443Y-38994481D01*
X96564260Y-39001000D01*
X96475740Y-39001000D01*
X96409557Y-38994481D01*
X96343373Y-38987963D01*
X96230147Y-38953616D01*
X96173533Y-38936443D01*
X96017011Y-38852779D01*
X96017009Y-38852778D01*
X95981271Y-38823448D01*
X95879814Y-38740186D01*
X95796552Y-38638729D01*
X95767222Y-38602991D01*
X95757652Y-38585087D01*
X95683557Y-38446467D01*
X95666384Y-38389853D01*
X95632037Y-38276627D01*
X95614641Y-38100000D01*
X95632037Y-37923373D01*
X95683557Y-37753534D01*
X95683557Y-37753533D01*
X95767221Y-37597011D01*
X95767222Y-37597009D01*
X95796552Y-37561271D01*
X95879814Y-37459814D01*
X95981271Y-37376552D01*
X96017009Y-37347222D01*
X96034913Y-37337652D01*
X96173533Y-37263557D01*
X96230147Y-37246384D01*
X96343373Y-37212037D01*
X96409558Y-37205518D01*
X96475740Y-37199000D01*
X96564260Y-37199000D01*
X96630442Y-37205518D01*
X96630442Y-37205518D01*
G37*
G36*
X40750443Y-34665519D02*
X40816627Y-34672037D01*
X40929853Y-34706384D01*
X40986467Y-34723557D01*
X41125087Y-34797652D01*
X41142991Y-34807222D01*
X41178729Y-34836552D01*
X41280186Y-34919814D01*
X41363448Y-35021271D01*
X41392778Y-35057009D01*
X41392779Y-35057011D01*
X41476443Y-35213533D01*
X41476443Y-35213534D01*
X41527963Y-35383373D01*
X41545359Y-35560000D01*
X41527963Y-35736627D01*
X41493616Y-35849853D01*
X41476443Y-35906467D01*
X41402348Y-36045087D01*
X41392778Y-36062991D01*
X41363448Y-36098729D01*
X41280186Y-36200186D01*
X41178729Y-36283448D01*
X41142991Y-36312778D01*
X41142989Y-36312779D01*
X40986467Y-36396443D01*
X40929853Y-36413616D01*
X40816627Y-36447963D01*
X40750442Y-36454482D01*
X40684260Y-36461000D01*
X40595740Y-36461000D01*
X40529558Y-36454482D01*
X40463373Y-36447963D01*
X40350147Y-36413616D01*
X40293533Y-36396443D01*
X40137011Y-36312779D01*
X40137009Y-36312778D01*
X40101271Y-36283448D01*
X39999814Y-36200186D01*
X39916552Y-36098729D01*
X39887222Y-36062991D01*
X39877652Y-36045087D01*
X39803557Y-35906467D01*
X39786384Y-35849853D01*
X39752037Y-35736627D01*
X39734641Y-35560000D01*
X39752037Y-35383373D01*
X39803557Y-35213534D01*
X39803557Y-35213533D01*
X39887221Y-35057011D01*
X39887222Y-35057009D01*
X39916552Y-35021271D01*
X39999814Y-34919814D01*
X40101271Y-34836552D01*
X40137009Y-34807222D01*
X40154913Y-34797652D01*
X40293533Y-34723557D01*
X40350147Y-34706384D01*
X40463373Y-34672037D01*
X40529557Y-34665519D01*
X40595740Y-34659000D01*
X40684260Y-34659000D01*
X40750443Y-34665519D01*
X40750443Y-34665519D01*
G37*
G36*
X86470443Y-34665519D02*
X86536627Y-34672037D01*
X86649853Y-34706384D01*
X86706467Y-34723557D01*
X86845087Y-34797652D01*
X86862991Y-34807222D01*
X86898729Y-34836552D01*
X87000186Y-34919814D01*
X87083448Y-35021271D01*
X87112778Y-35057009D01*
X87112779Y-35057011D01*
X87196443Y-35213533D01*
X87196443Y-35213534D01*
X87247963Y-35383373D01*
X87265359Y-35560000D01*
X87247963Y-35736627D01*
X87213616Y-35849853D01*
X87196443Y-35906467D01*
X87122348Y-36045087D01*
X87112778Y-36062991D01*
X87083448Y-36098729D01*
X87000186Y-36200186D01*
X86898729Y-36283448D01*
X86862991Y-36312778D01*
X86862989Y-36312779D01*
X86706467Y-36396443D01*
X86649853Y-36413616D01*
X86536627Y-36447963D01*
X86470442Y-36454482D01*
X86404260Y-36461000D01*
X86315740Y-36461000D01*
X86249558Y-36454482D01*
X86183373Y-36447963D01*
X86070147Y-36413616D01*
X86013533Y-36396443D01*
X85857011Y-36312779D01*
X85857009Y-36312778D01*
X85821271Y-36283448D01*
X85719814Y-36200186D01*
X85636552Y-36098729D01*
X85607222Y-36062991D01*
X85597652Y-36045087D01*
X85523557Y-35906467D01*
X85506384Y-35849853D01*
X85472037Y-35736627D01*
X85454641Y-35560000D01*
X85472037Y-35383373D01*
X85523557Y-35213534D01*
X85523557Y-35213533D01*
X85607221Y-35057011D01*
X85607222Y-35057009D01*
X85636552Y-35021271D01*
X85719814Y-34919814D01*
X85821271Y-34836552D01*
X85857009Y-34807222D01*
X85874913Y-34797652D01*
X86013533Y-34723557D01*
X86070147Y-34706384D01*
X86183373Y-34672037D01*
X86249557Y-34665519D01*
X86315740Y-34659000D01*
X86404260Y-34659000D01*
X86470443Y-34665519D01*
X86470443Y-34665519D01*
G37*
G36*
X53450443Y-34665519D02*
X53516627Y-34672037D01*
X53629853Y-34706384D01*
X53686467Y-34723557D01*
X53825087Y-34797652D01*
X53842991Y-34807222D01*
X53878729Y-34836552D01*
X53980186Y-34919814D01*
X54063448Y-35021271D01*
X54092778Y-35057009D01*
X54092779Y-35057011D01*
X54176443Y-35213533D01*
X54176443Y-35213534D01*
X54227963Y-35383373D01*
X54245359Y-35560000D01*
X54227963Y-35736627D01*
X54193616Y-35849853D01*
X54176443Y-35906467D01*
X54102348Y-36045087D01*
X54092778Y-36062991D01*
X54063448Y-36098729D01*
X53980186Y-36200186D01*
X53878729Y-36283448D01*
X53842991Y-36312778D01*
X53842989Y-36312779D01*
X53686467Y-36396443D01*
X53629853Y-36413616D01*
X53516627Y-36447963D01*
X53450442Y-36454482D01*
X53384260Y-36461000D01*
X53295740Y-36461000D01*
X53229558Y-36454482D01*
X53163373Y-36447963D01*
X53050147Y-36413616D01*
X52993533Y-36396443D01*
X52837011Y-36312779D01*
X52837009Y-36312778D01*
X52801271Y-36283448D01*
X52699814Y-36200186D01*
X52616552Y-36098729D01*
X52587222Y-36062991D01*
X52577652Y-36045087D01*
X52503557Y-35906467D01*
X52486384Y-35849853D01*
X52452037Y-35736627D01*
X52434641Y-35560000D01*
X52452037Y-35383373D01*
X52503557Y-35213534D01*
X52503557Y-35213533D01*
X52587221Y-35057011D01*
X52587222Y-35057009D01*
X52616552Y-35021271D01*
X52699814Y-34919814D01*
X52801271Y-34836552D01*
X52837009Y-34807222D01*
X52854913Y-34797652D01*
X52993533Y-34723557D01*
X53050147Y-34706384D01*
X53163373Y-34672037D01*
X53229557Y-34665519D01*
X53295740Y-34659000D01*
X53384260Y-34659000D01*
X53450443Y-34665519D01*
X53450443Y-34665519D01*
G37*
G36*
X63610443Y-34665519D02*
X63676627Y-34672037D01*
X63789853Y-34706384D01*
X63846467Y-34723557D01*
X63985087Y-34797652D01*
X64002991Y-34807222D01*
X64038729Y-34836552D01*
X64140186Y-34919814D01*
X64223448Y-35021271D01*
X64252778Y-35057009D01*
X64252779Y-35057011D01*
X64336443Y-35213533D01*
X64336443Y-35213534D01*
X64387963Y-35383373D01*
X64405359Y-35560000D01*
X64387963Y-35736627D01*
X64353616Y-35849853D01*
X64336443Y-35906467D01*
X64262348Y-36045087D01*
X64252778Y-36062991D01*
X64223448Y-36098729D01*
X64140186Y-36200186D01*
X64038729Y-36283448D01*
X64002991Y-36312778D01*
X64002989Y-36312779D01*
X63846467Y-36396443D01*
X63789853Y-36413616D01*
X63676627Y-36447963D01*
X63610442Y-36454482D01*
X63544260Y-36461000D01*
X63455740Y-36461000D01*
X63389558Y-36454482D01*
X63323373Y-36447963D01*
X63210147Y-36413616D01*
X63153533Y-36396443D01*
X62997011Y-36312779D01*
X62997009Y-36312778D01*
X62961271Y-36283448D01*
X62859814Y-36200186D01*
X62776552Y-36098729D01*
X62747222Y-36062991D01*
X62737652Y-36045087D01*
X62663557Y-35906467D01*
X62646384Y-35849853D01*
X62612037Y-35736627D01*
X62594641Y-35560000D01*
X62612037Y-35383373D01*
X62663557Y-35213534D01*
X62663557Y-35213533D01*
X62747221Y-35057011D01*
X62747222Y-35057009D01*
X62776552Y-35021271D01*
X62859814Y-34919814D01*
X62961271Y-34836552D01*
X62997009Y-34807222D01*
X63014913Y-34797652D01*
X63153533Y-34723557D01*
X63210147Y-34706384D01*
X63323373Y-34672037D01*
X63389557Y-34665519D01*
X63455740Y-34659000D01*
X63544260Y-34659000D01*
X63610443Y-34665519D01*
X63610443Y-34665519D01*
G37*
G36*
X106790443Y-34665519D02*
X106856627Y-34672037D01*
X106969853Y-34706384D01*
X107026467Y-34723557D01*
X107165087Y-34797652D01*
X107182991Y-34807222D01*
X107218729Y-34836552D01*
X107320186Y-34919814D01*
X107403448Y-35021271D01*
X107432778Y-35057009D01*
X107432779Y-35057011D01*
X107516443Y-35213533D01*
X107516443Y-35213534D01*
X107567963Y-35383373D01*
X107585359Y-35560000D01*
X107567963Y-35736627D01*
X107533616Y-35849853D01*
X107516443Y-35906467D01*
X107442348Y-36045087D01*
X107432778Y-36062991D01*
X107403448Y-36098729D01*
X107320186Y-36200186D01*
X107218729Y-36283448D01*
X107182991Y-36312778D01*
X107182989Y-36312779D01*
X107026467Y-36396443D01*
X106969853Y-36413616D01*
X106856627Y-36447963D01*
X106790442Y-36454482D01*
X106724260Y-36461000D01*
X106635740Y-36461000D01*
X106569558Y-36454482D01*
X106503373Y-36447963D01*
X106390147Y-36413616D01*
X106333533Y-36396443D01*
X106177011Y-36312779D01*
X106177009Y-36312778D01*
X106141271Y-36283448D01*
X106039814Y-36200186D01*
X105956552Y-36098729D01*
X105927222Y-36062991D01*
X105917652Y-36045087D01*
X105843557Y-35906467D01*
X105826384Y-35849853D01*
X105792037Y-35736627D01*
X105774641Y-35560000D01*
X105792037Y-35383373D01*
X105843557Y-35213534D01*
X105843557Y-35213533D01*
X105927221Y-35057011D01*
X105927222Y-35057009D01*
X105956552Y-35021271D01*
X106039814Y-34919814D01*
X106141271Y-34836552D01*
X106177009Y-34807222D01*
X106194913Y-34797652D01*
X106333533Y-34723557D01*
X106390147Y-34706384D01*
X106503373Y-34672037D01*
X106569557Y-34665519D01*
X106635740Y-34659000D01*
X106724260Y-34659000D01*
X106790443Y-34665519D01*
X106790443Y-34665519D01*
G37*
G36*
X30590443Y-34665519D02*
X30656627Y-34672037D01*
X30769853Y-34706384D01*
X30826467Y-34723557D01*
X30965087Y-34797652D01*
X30982991Y-34807222D01*
X31018729Y-34836552D01*
X31120186Y-34919814D01*
X31203448Y-35021271D01*
X31232778Y-35057009D01*
X31232779Y-35057011D01*
X31316443Y-35213533D01*
X31316443Y-35213534D01*
X31367963Y-35383373D01*
X31385359Y-35560000D01*
X31367963Y-35736627D01*
X31333616Y-35849853D01*
X31316443Y-35906467D01*
X31242348Y-36045087D01*
X31232778Y-36062991D01*
X31203448Y-36098729D01*
X31120186Y-36200186D01*
X31018729Y-36283448D01*
X30982991Y-36312778D01*
X30982989Y-36312779D01*
X30826467Y-36396443D01*
X30769853Y-36413616D01*
X30656627Y-36447963D01*
X30590442Y-36454482D01*
X30524260Y-36461000D01*
X30435740Y-36461000D01*
X30369558Y-36454482D01*
X30303373Y-36447963D01*
X30190147Y-36413616D01*
X30133533Y-36396443D01*
X29977011Y-36312779D01*
X29977009Y-36312778D01*
X29941271Y-36283448D01*
X29839814Y-36200186D01*
X29756552Y-36098729D01*
X29727222Y-36062991D01*
X29717652Y-36045087D01*
X29643557Y-35906467D01*
X29626384Y-35849853D01*
X29592037Y-35736627D01*
X29574641Y-35560000D01*
X29592037Y-35383373D01*
X29643557Y-35213534D01*
X29643557Y-35213533D01*
X29727221Y-35057011D01*
X29727222Y-35057009D01*
X29756552Y-35021271D01*
X29839814Y-34919814D01*
X29941271Y-34836552D01*
X29977009Y-34807222D01*
X29994913Y-34797652D01*
X30133533Y-34723557D01*
X30190147Y-34706384D01*
X30303373Y-34672037D01*
X30369557Y-34665519D01*
X30435740Y-34659000D01*
X30524260Y-34659000D01*
X30590443Y-34665519D01*
X30590443Y-34665519D01*
G37*
G36*
X96630443Y-34665519D02*
X96696627Y-34672037D01*
X96809853Y-34706384D01*
X96866467Y-34723557D01*
X97005087Y-34797652D01*
X97022991Y-34807222D01*
X97058729Y-34836552D01*
X97160186Y-34919814D01*
X97243448Y-35021271D01*
X97272778Y-35057009D01*
X97272779Y-35057011D01*
X97356443Y-35213533D01*
X97356443Y-35213534D01*
X97407963Y-35383373D01*
X97425359Y-35560000D01*
X97407963Y-35736627D01*
X97373616Y-35849853D01*
X97356443Y-35906467D01*
X97282348Y-36045087D01*
X97272778Y-36062991D01*
X97243448Y-36098729D01*
X97160186Y-36200186D01*
X97058729Y-36283448D01*
X97022991Y-36312778D01*
X97022989Y-36312779D01*
X96866467Y-36396443D01*
X96809853Y-36413616D01*
X96696627Y-36447963D01*
X96630442Y-36454482D01*
X96564260Y-36461000D01*
X96475740Y-36461000D01*
X96409558Y-36454482D01*
X96343373Y-36447963D01*
X96230147Y-36413616D01*
X96173533Y-36396443D01*
X96017011Y-36312779D01*
X96017009Y-36312778D01*
X95981271Y-36283448D01*
X95879814Y-36200186D01*
X95796552Y-36098729D01*
X95767222Y-36062991D01*
X95757652Y-36045087D01*
X95683557Y-35906467D01*
X95666384Y-35849853D01*
X95632037Y-35736627D01*
X95614641Y-35560000D01*
X95632037Y-35383373D01*
X95683557Y-35213534D01*
X95683557Y-35213533D01*
X95767221Y-35057011D01*
X95767222Y-35057009D01*
X95796552Y-35021271D01*
X95879814Y-34919814D01*
X95981271Y-34836552D01*
X96017009Y-34807222D01*
X96034913Y-34797652D01*
X96173533Y-34723557D01*
X96230147Y-34706384D01*
X96343373Y-34672037D01*
X96409557Y-34665519D01*
X96475740Y-34659000D01*
X96564260Y-34659000D01*
X96630443Y-34665519D01*
X96630443Y-34665519D01*
G37*
G36*
X73770443Y-34665519D02*
X73836627Y-34672037D01*
X73949853Y-34706384D01*
X74006467Y-34723557D01*
X74145087Y-34797652D01*
X74162991Y-34807222D01*
X74198729Y-34836552D01*
X74300186Y-34919814D01*
X74383448Y-35021271D01*
X74412778Y-35057009D01*
X74412779Y-35057011D01*
X74496443Y-35213533D01*
X74496443Y-35213534D01*
X74547963Y-35383373D01*
X74565359Y-35560000D01*
X74547963Y-35736627D01*
X74513616Y-35849853D01*
X74496443Y-35906467D01*
X74422348Y-36045087D01*
X74412778Y-36062991D01*
X74383448Y-36098729D01*
X74300186Y-36200186D01*
X74198729Y-36283448D01*
X74162991Y-36312778D01*
X74162989Y-36312779D01*
X74006467Y-36396443D01*
X73949853Y-36413616D01*
X73836627Y-36447963D01*
X73770442Y-36454482D01*
X73704260Y-36461000D01*
X73615740Y-36461000D01*
X73549558Y-36454482D01*
X73483373Y-36447963D01*
X73370147Y-36413616D01*
X73313533Y-36396443D01*
X73157011Y-36312779D01*
X73157009Y-36312778D01*
X73121271Y-36283448D01*
X73019814Y-36200186D01*
X72936552Y-36098729D01*
X72907222Y-36062991D01*
X72897652Y-36045087D01*
X72823557Y-35906467D01*
X72806384Y-35849853D01*
X72772037Y-35736627D01*
X72754641Y-35560000D01*
X72772037Y-35383373D01*
X72823557Y-35213534D01*
X72823557Y-35213533D01*
X72907221Y-35057011D01*
X72907222Y-35057009D01*
X72936552Y-35021271D01*
X73019814Y-34919814D01*
X73121271Y-34836552D01*
X73157009Y-34807222D01*
X73174913Y-34797652D01*
X73313533Y-34723557D01*
X73370147Y-34706384D01*
X73483373Y-34672037D01*
X73549557Y-34665519D01*
X73615740Y-34659000D01*
X73704260Y-34659000D01*
X73770443Y-34665519D01*
X73770443Y-34665519D01*
G37*
G36*
X20430443Y-34665519D02*
X20496627Y-34672037D01*
X20609853Y-34706384D01*
X20666467Y-34723557D01*
X20805087Y-34797652D01*
X20822991Y-34807222D01*
X20858729Y-34836552D01*
X20960186Y-34919814D01*
X21043448Y-35021271D01*
X21072778Y-35057009D01*
X21072779Y-35057011D01*
X21156443Y-35213533D01*
X21156443Y-35213534D01*
X21207963Y-35383373D01*
X21225359Y-35560000D01*
X21207963Y-35736627D01*
X21173616Y-35849853D01*
X21156443Y-35906467D01*
X21082348Y-36045087D01*
X21072778Y-36062991D01*
X21043448Y-36098729D01*
X20960186Y-36200186D01*
X20858729Y-36283448D01*
X20822991Y-36312778D01*
X20822989Y-36312779D01*
X20666467Y-36396443D01*
X20609853Y-36413616D01*
X20496627Y-36447963D01*
X20430442Y-36454482D01*
X20364260Y-36461000D01*
X20275740Y-36461000D01*
X20209558Y-36454482D01*
X20143373Y-36447963D01*
X20030147Y-36413616D01*
X19973533Y-36396443D01*
X19817011Y-36312779D01*
X19817009Y-36312778D01*
X19781271Y-36283448D01*
X19679814Y-36200186D01*
X19596552Y-36098729D01*
X19567222Y-36062991D01*
X19557652Y-36045087D01*
X19483557Y-35906467D01*
X19466384Y-35849853D01*
X19432037Y-35736627D01*
X19414641Y-35560000D01*
X19432037Y-35383373D01*
X19483557Y-35213534D01*
X19483557Y-35213533D01*
X19567221Y-35057011D01*
X19567222Y-35057009D01*
X19596552Y-35021271D01*
X19679814Y-34919814D01*
X19781271Y-34836552D01*
X19817009Y-34807222D01*
X19834913Y-34797652D01*
X19973533Y-34723557D01*
X20030147Y-34706384D01*
X20143373Y-34672037D01*
X20209557Y-34665519D01*
X20275740Y-34659000D01*
X20364260Y-34659000D01*
X20430443Y-34665519D01*
X20430443Y-34665519D01*
G37*
G36*
X73770443Y-32125519D02*
X73836627Y-32132037D01*
X73949853Y-32166384D01*
X74006467Y-32183557D01*
X74145087Y-32257652D01*
X74162991Y-32267222D01*
X74198729Y-32296552D01*
X74300186Y-32379814D01*
X74383448Y-32481271D01*
X74412778Y-32517009D01*
X74412779Y-32517011D01*
X74496443Y-32673533D01*
X74496443Y-32673534D01*
X74547963Y-32843373D01*
X74565359Y-33020000D01*
X74547963Y-33196627D01*
X74513616Y-33309853D01*
X74496443Y-33366467D01*
X74422348Y-33505087D01*
X74412778Y-33522991D01*
X74383448Y-33558729D01*
X74300186Y-33660186D01*
X74198729Y-33743448D01*
X74162991Y-33772778D01*
X74162989Y-33772779D01*
X74006467Y-33856443D01*
X73949853Y-33873616D01*
X73836627Y-33907963D01*
X73770443Y-33914481D01*
X73704260Y-33921000D01*
X73615740Y-33921000D01*
X73549557Y-33914481D01*
X73483373Y-33907963D01*
X73370147Y-33873616D01*
X73313533Y-33856443D01*
X73157011Y-33772779D01*
X73157009Y-33772778D01*
X73121271Y-33743448D01*
X73019814Y-33660186D01*
X72936552Y-33558729D01*
X72907222Y-33522991D01*
X72897652Y-33505087D01*
X72823557Y-33366467D01*
X72806384Y-33309853D01*
X72772037Y-33196627D01*
X72754641Y-33020000D01*
X72772037Y-32843373D01*
X72823557Y-32673534D01*
X72823557Y-32673533D01*
X72907221Y-32517011D01*
X72907222Y-32517009D01*
X72936552Y-32481271D01*
X73019814Y-32379814D01*
X73121271Y-32296552D01*
X73157009Y-32267222D01*
X73174913Y-32257652D01*
X73313533Y-32183557D01*
X73370147Y-32166384D01*
X73483373Y-32132037D01*
X73549557Y-32125519D01*
X73615740Y-32119000D01*
X73704260Y-32119000D01*
X73770443Y-32125519D01*
X73770443Y-32125519D01*
G37*
G36*
X20430443Y-32125519D02*
X20496627Y-32132037D01*
X20609853Y-32166384D01*
X20666467Y-32183557D01*
X20805087Y-32257652D01*
X20822991Y-32267222D01*
X20858729Y-32296552D01*
X20960186Y-32379814D01*
X21043448Y-32481271D01*
X21072778Y-32517009D01*
X21072779Y-32517011D01*
X21156443Y-32673533D01*
X21156443Y-32673534D01*
X21207963Y-32843373D01*
X21225359Y-33020000D01*
X21207963Y-33196627D01*
X21173616Y-33309853D01*
X21156443Y-33366467D01*
X21082348Y-33505087D01*
X21072778Y-33522991D01*
X21043448Y-33558729D01*
X20960186Y-33660186D01*
X20858729Y-33743448D01*
X20822991Y-33772778D01*
X20822989Y-33772779D01*
X20666467Y-33856443D01*
X20609853Y-33873616D01*
X20496627Y-33907963D01*
X20430443Y-33914481D01*
X20364260Y-33921000D01*
X20275740Y-33921000D01*
X20209557Y-33914481D01*
X20143373Y-33907963D01*
X20030147Y-33873616D01*
X19973533Y-33856443D01*
X19817011Y-33772779D01*
X19817009Y-33772778D01*
X19781271Y-33743448D01*
X19679814Y-33660186D01*
X19596552Y-33558729D01*
X19567222Y-33522991D01*
X19557652Y-33505087D01*
X19483557Y-33366467D01*
X19466384Y-33309853D01*
X19432037Y-33196627D01*
X19414641Y-33020000D01*
X19432037Y-32843373D01*
X19483557Y-32673534D01*
X19483557Y-32673533D01*
X19567221Y-32517011D01*
X19567222Y-32517009D01*
X19596552Y-32481271D01*
X19679814Y-32379814D01*
X19781271Y-32296552D01*
X19817009Y-32267222D01*
X19834913Y-32257652D01*
X19973533Y-32183557D01*
X20030147Y-32166384D01*
X20143373Y-32132037D01*
X20209557Y-32125519D01*
X20275740Y-32119000D01*
X20364260Y-32119000D01*
X20430443Y-32125519D01*
X20430443Y-32125519D01*
G37*
G36*
X30590443Y-32125519D02*
X30656627Y-32132037D01*
X30769853Y-32166384D01*
X30826467Y-32183557D01*
X30965087Y-32257652D01*
X30982991Y-32267222D01*
X31018729Y-32296552D01*
X31120186Y-32379814D01*
X31203448Y-32481271D01*
X31232778Y-32517009D01*
X31232779Y-32517011D01*
X31316443Y-32673533D01*
X31316443Y-32673534D01*
X31367963Y-32843373D01*
X31385359Y-33020000D01*
X31367963Y-33196627D01*
X31333616Y-33309853D01*
X31316443Y-33366467D01*
X31242348Y-33505087D01*
X31232778Y-33522991D01*
X31203448Y-33558729D01*
X31120186Y-33660186D01*
X31018729Y-33743448D01*
X30982991Y-33772778D01*
X30982989Y-33772779D01*
X30826467Y-33856443D01*
X30769853Y-33873616D01*
X30656627Y-33907963D01*
X30590443Y-33914481D01*
X30524260Y-33921000D01*
X30435740Y-33921000D01*
X30369557Y-33914481D01*
X30303373Y-33907963D01*
X30190147Y-33873616D01*
X30133533Y-33856443D01*
X29977011Y-33772779D01*
X29977009Y-33772778D01*
X29941271Y-33743448D01*
X29839814Y-33660186D01*
X29756552Y-33558729D01*
X29727222Y-33522991D01*
X29717652Y-33505087D01*
X29643557Y-33366467D01*
X29626384Y-33309853D01*
X29592037Y-33196627D01*
X29574641Y-33020000D01*
X29592037Y-32843373D01*
X29643557Y-32673534D01*
X29643557Y-32673533D01*
X29727221Y-32517011D01*
X29727222Y-32517009D01*
X29756552Y-32481271D01*
X29839814Y-32379814D01*
X29941271Y-32296552D01*
X29977009Y-32267222D01*
X29994913Y-32257652D01*
X30133533Y-32183557D01*
X30190147Y-32166384D01*
X30303373Y-32132037D01*
X30369557Y-32125519D01*
X30435740Y-32119000D01*
X30524260Y-32119000D01*
X30590443Y-32125519D01*
X30590443Y-32125519D01*
G37*
G36*
X86470443Y-32125519D02*
X86536627Y-32132037D01*
X86649853Y-32166384D01*
X86706467Y-32183557D01*
X86845087Y-32257652D01*
X86862991Y-32267222D01*
X86898729Y-32296552D01*
X87000186Y-32379814D01*
X87083448Y-32481271D01*
X87112778Y-32517009D01*
X87112779Y-32517011D01*
X87196443Y-32673533D01*
X87196443Y-32673534D01*
X87247963Y-32843373D01*
X87265359Y-33020000D01*
X87247963Y-33196627D01*
X87213616Y-33309853D01*
X87196443Y-33366467D01*
X87122348Y-33505087D01*
X87112778Y-33522991D01*
X87083448Y-33558729D01*
X87000186Y-33660186D01*
X86898729Y-33743448D01*
X86862991Y-33772778D01*
X86862989Y-33772779D01*
X86706467Y-33856443D01*
X86649853Y-33873616D01*
X86536627Y-33907963D01*
X86470443Y-33914481D01*
X86404260Y-33921000D01*
X86315740Y-33921000D01*
X86249557Y-33914481D01*
X86183373Y-33907963D01*
X86070147Y-33873616D01*
X86013533Y-33856443D01*
X85857011Y-33772779D01*
X85857009Y-33772778D01*
X85821271Y-33743448D01*
X85719814Y-33660186D01*
X85636552Y-33558729D01*
X85607222Y-33522991D01*
X85597652Y-33505087D01*
X85523557Y-33366467D01*
X85506384Y-33309853D01*
X85472037Y-33196627D01*
X85454641Y-33020000D01*
X85472037Y-32843373D01*
X85523557Y-32673534D01*
X85523557Y-32673533D01*
X85607221Y-32517011D01*
X85607222Y-32517009D01*
X85636552Y-32481271D01*
X85719814Y-32379814D01*
X85821271Y-32296552D01*
X85857009Y-32267222D01*
X85874913Y-32257652D01*
X86013533Y-32183557D01*
X86070147Y-32166384D01*
X86183373Y-32132037D01*
X86249557Y-32125519D01*
X86315740Y-32119000D01*
X86404260Y-32119000D01*
X86470443Y-32125519D01*
X86470443Y-32125519D01*
G37*
G36*
X96630443Y-32125519D02*
X96696627Y-32132037D01*
X96809853Y-32166384D01*
X96866467Y-32183557D01*
X97005087Y-32257652D01*
X97022991Y-32267222D01*
X97058729Y-32296552D01*
X97160186Y-32379814D01*
X97243448Y-32481271D01*
X97272778Y-32517009D01*
X97272779Y-32517011D01*
X97356443Y-32673533D01*
X97356443Y-32673534D01*
X97407963Y-32843373D01*
X97425359Y-33020000D01*
X97407963Y-33196627D01*
X97373616Y-33309853D01*
X97356443Y-33366467D01*
X97282348Y-33505087D01*
X97272778Y-33522991D01*
X97243448Y-33558729D01*
X97160186Y-33660186D01*
X97058729Y-33743448D01*
X97022991Y-33772778D01*
X97022989Y-33772779D01*
X96866467Y-33856443D01*
X96809853Y-33873616D01*
X96696627Y-33907963D01*
X96630443Y-33914481D01*
X96564260Y-33921000D01*
X96475740Y-33921000D01*
X96409557Y-33914481D01*
X96343373Y-33907963D01*
X96230147Y-33873616D01*
X96173533Y-33856443D01*
X96017011Y-33772779D01*
X96017009Y-33772778D01*
X95981271Y-33743448D01*
X95879814Y-33660186D01*
X95796552Y-33558729D01*
X95767222Y-33522991D01*
X95757652Y-33505087D01*
X95683557Y-33366467D01*
X95666384Y-33309853D01*
X95632037Y-33196627D01*
X95614641Y-33020000D01*
X95632037Y-32843373D01*
X95683557Y-32673534D01*
X95683557Y-32673533D01*
X95767221Y-32517011D01*
X95767222Y-32517009D01*
X95796552Y-32481271D01*
X95879814Y-32379814D01*
X95981271Y-32296552D01*
X96017009Y-32267222D01*
X96034913Y-32257652D01*
X96173533Y-32183557D01*
X96230147Y-32166384D01*
X96343373Y-32132037D01*
X96409557Y-32125519D01*
X96475740Y-32119000D01*
X96564260Y-32119000D01*
X96630443Y-32125519D01*
X96630443Y-32125519D01*
G37*
G36*
X106790443Y-32125519D02*
X106856627Y-32132037D01*
X106969853Y-32166384D01*
X107026467Y-32183557D01*
X107165087Y-32257652D01*
X107182991Y-32267222D01*
X107218729Y-32296552D01*
X107320186Y-32379814D01*
X107403448Y-32481271D01*
X107432778Y-32517009D01*
X107432779Y-32517011D01*
X107516443Y-32673533D01*
X107516443Y-32673534D01*
X107567963Y-32843373D01*
X107585359Y-33020000D01*
X107567963Y-33196627D01*
X107533616Y-33309853D01*
X107516443Y-33366467D01*
X107442348Y-33505087D01*
X107432778Y-33522991D01*
X107403448Y-33558729D01*
X107320186Y-33660186D01*
X107218729Y-33743448D01*
X107182991Y-33772778D01*
X107182989Y-33772779D01*
X107026467Y-33856443D01*
X106969853Y-33873616D01*
X106856627Y-33907963D01*
X106790443Y-33914481D01*
X106724260Y-33921000D01*
X106635740Y-33921000D01*
X106569557Y-33914481D01*
X106503373Y-33907963D01*
X106390147Y-33873616D01*
X106333533Y-33856443D01*
X106177011Y-33772779D01*
X106177009Y-33772778D01*
X106141271Y-33743448D01*
X106039814Y-33660186D01*
X105956552Y-33558729D01*
X105927222Y-33522991D01*
X105917652Y-33505087D01*
X105843557Y-33366467D01*
X105826384Y-33309853D01*
X105792037Y-33196627D01*
X105774641Y-33020000D01*
X105792037Y-32843373D01*
X105843557Y-32673534D01*
X105843557Y-32673533D01*
X105927221Y-32517011D01*
X105927222Y-32517009D01*
X105956552Y-32481271D01*
X106039814Y-32379814D01*
X106141271Y-32296552D01*
X106177009Y-32267222D01*
X106194913Y-32257652D01*
X106333533Y-32183557D01*
X106390147Y-32166384D01*
X106503373Y-32132037D01*
X106569557Y-32125519D01*
X106635740Y-32119000D01*
X106724260Y-32119000D01*
X106790443Y-32125519D01*
X106790443Y-32125519D01*
G37*
G36*
X53450443Y-32125519D02*
X53516627Y-32132037D01*
X53629853Y-32166384D01*
X53686467Y-32183557D01*
X53825087Y-32257652D01*
X53842991Y-32267222D01*
X53878729Y-32296552D01*
X53980186Y-32379814D01*
X54063448Y-32481271D01*
X54092778Y-32517009D01*
X54092779Y-32517011D01*
X54176443Y-32673533D01*
X54176443Y-32673534D01*
X54227963Y-32843373D01*
X54245359Y-33020000D01*
X54227963Y-33196627D01*
X54193616Y-33309853D01*
X54176443Y-33366467D01*
X54102348Y-33505087D01*
X54092778Y-33522991D01*
X54063448Y-33558729D01*
X53980186Y-33660186D01*
X53878729Y-33743448D01*
X53842991Y-33772778D01*
X53842989Y-33772779D01*
X53686467Y-33856443D01*
X53629853Y-33873616D01*
X53516627Y-33907963D01*
X53450443Y-33914481D01*
X53384260Y-33921000D01*
X53295740Y-33921000D01*
X53229557Y-33914481D01*
X53163373Y-33907963D01*
X53050147Y-33873616D01*
X52993533Y-33856443D01*
X52837011Y-33772779D01*
X52837009Y-33772778D01*
X52801271Y-33743448D01*
X52699814Y-33660186D01*
X52616552Y-33558729D01*
X52587222Y-33522991D01*
X52577652Y-33505087D01*
X52503557Y-33366467D01*
X52486384Y-33309853D01*
X52452037Y-33196627D01*
X52434641Y-33020000D01*
X52452037Y-32843373D01*
X52503557Y-32673534D01*
X52503557Y-32673533D01*
X52587221Y-32517011D01*
X52587222Y-32517009D01*
X52616552Y-32481271D01*
X52699814Y-32379814D01*
X52801271Y-32296552D01*
X52837009Y-32267222D01*
X52854913Y-32257652D01*
X52993533Y-32183557D01*
X53050147Y-32166384D01*
X53163373Y-32132037D01*
X53229557Y-32125519D01*
X53295740Y-32119000D01*
X53384260Y-32119000D01*
X53450443Y-32125519D01*
X53450443Y-32125519D01*
G37*
G36*
X63610443Y-32125519D02*
X63676627Y-32132037D01*
X63789853Y-32166384D01*
X63846467Y-32183557D01*
X63985087Y-32257652D01*
X64002991Y-32267222D01*
X64038729Y-32296552D01*
X64140186Y-32379814D01*
X64223448Y-32481271D01*
X64252778Y-32517009D01*
X64252779Y-32517011D01*
X64336443Y-32673533D01*
X64336443Y-32673534D01*
X64387963Y-32843373D01*
X64405359Y-33020000D01*
X64387963Y-33196627D01*
X64353616Y-33309853D01*
X64336443Y-33366467D01*
X64262348Y-33505087D01*
X64252778Y-33522991D01*
X64223448Y-33558729D01*
X64140186Y-33660186D01*
X64038729Y-33743448D01*
X64002991Y-33772778D01*
X64002989Y-33772779D01*
X63846467Y-33856443D01*
X63789853Y-33873616D01*
X63676627Y-33907963D01*
X63610443Y-33914481D01*
X63544260Y-33921000D01*
X63455740Y-33921000D01*
X63389557Y-33914481D01*
X63323373Y-33907963D01*
X63210147Y-33873616D01*
X63153533Y-33856443D01*
X62997011Y-33772779D01*
X62997009Y-33772778D01*
X62961271Y-33743448D01*
X62859814Y-33660186D01*
X62776552Y-33558729D01*
X62747222Y-33522991D01*
X62737652Y-33505087D01*
X62663557Y-33366467D01*
X62646384Y-33309853D01*
X62612037Y-33196627D01*
X62594641Y-33020000D01*
X62612037Y-32843373D01*
X62663557Y-32673534D01*
X62663557Y-32673533D01*
X62747221Y-32517011D01*
X62747222Y-32517009D01*
X62776552Y-32481271D01*
X62859814Y-32379814D01*
X62961271Y-32296552D01*
X62997009Y-32267222D01*
X63014913Y-32257652D01*
X63153533Y-32183557D01*
X63210147Y-32166384D01*
X63323373Y-32132037D01*
X63389557Y-32125519D01*
X63455740Y-32119000D01*
X63544260Y-32119000D01*
X63610443Y-32125519D01*
X63610443Y-32125519D01*
G37*
G36*
X40750443Y-32125519D02*
X40816627Y-32132037D01*
X40929853Y-32166384D01*
X40986467Y-32183557D01*
X41125087Y-32257652D01*
X41142991Y-32267222D01*
X41178729Y-32296552D01*
X41280186Y-32379814D01*
X41363448Y-32481271D01*
X41392778Y-32517009D01*
X41392779Y-32517011D01*
X41476443Y-32673533D01*
X41476443Y-32673534D01*
X41527963Y-32843373D01*
X41545359Y-33020000D01*
X41527963Y-33196627D01*
X41493616Y-33309853D01*
X41476443Y-33366467D01*
X41402348Y-33505087D01*
X41392778Y-33522991D01*
X41363448Y-33558729D01*
X41280186Y-33660186D01*
X41178729Y-33743448D01*
X41142991Y-33772778D01*
X41142989Y-33772779D01*
X40986467Y-33856443D01*
X40929853Y-33873616D01*
X40816627Y-33907963D01*
X40750443Y-33914481D01*
X40684260Y-33921000D01*
X40595740Y-33921000D01*
X40529557Y-33914481D01*
X40463373Y-33907963D01*
X40350147Y-33873616D01*
X40293533Y-33856443D01*
X40137011Y-33772779D01*
X40137009Y-33772778D01*
X40101271Y-33743448D01*
X39999814Y-33660186D01*
X39916552Y-33558729D01*
X39887222Y-33522991D01*
X39877652Y-33505087D01*
X39803557Y-33366467D01*
X39786384Y-33309853D01*
X39752037Y-33196627D01*
X39734641Y-33020000D01*
X39752037Y-32843373D01*
X39803557Y-32673534D01*
X39803557Y-32673533D01*
X39887221Y-32517011D01*
X39887222Y-32517009D01*
X39916552Y-32481271D01*
X39999814Y-32379814D01*
X40101271Y-32296552D01*
X40137009Y-32267222D01*
X40154913Y-32257652D01*
X40293533Y-32183557D01*
X40350147Y-32166384D01*
X40463373Y-32132037D01*
X40529557Y-32125519D01*
X40595740Y-32119000D01*
X40684260Y-32119000D01*
X40750443Y-32125519D01*
X40750443Y-32125519D01*
G37*
G36*
X63610443Y-27045519D02*
X63676627Y-27052037D01*
X63789853Y-27086384D01*
X63846467Y-27103557D01*
X63985087Y-27177652D01*
X64002991Y-27187222D01*
X64038729Y-27216552D01*
X64140186Y-27299814D01*
X64223448Y-27401271D01*
X64252778Y-27437009D01*
X64252779Y-27437011D01*
X64336443Y-27593533D01*
X64336443Y-27593534D01*
X64387963Y-27763373D01*
X64405359Y-27940000D01*
X64387963Y-28116627D01*
X64353616Y-28229853D01*
X64336443Y-28286467D01*
X64262348Y-28425087D01*
X64252778Y-28442991D01*
X64223448Y-28478729D01*
X64140186Y-28580186D01*
X64038729Y-28663448D01*
X64002991Y-28692778D01*
X64002989Y-28692779D01*
X63846467Y-28776443D01*
X63789853Y-28793616D01*
X63676627Y-28827963D01*
X63610442Y-28834482D01*
X63544260Y-28841000D01*
X63455740Y-28841000D01*
X63389558Y-28834482D01*
X63323373Y-28827963D01*
X63210147Y-28793616D01*
X63153533Y-28776443D01*
X62997011Y-28692779D01*
X62997009Y-28692778D01*
X62961271Y-28663448D01*
X62859814Y-28580186D01*
X62776552Y-28478729D01*
X62747222Y-28442991D01*
X62737652Y-28425087D01*
X62663557Y-28286467D01*
X62646384Y-28229853D01*
X62612037Y-28116627D01*
X62594641Y-27940000D01*
X62612037Y-27763373D01*
X62663557Y-27593534D01*
X62663557Y-27593533D01*
X62747221Y-27437011D01*
X62747222Y-27437009D01*
X62776552Y-27401271D01*
X62859814Y-27299814D01*
X62961271Y-27216552D01*
X62997009Y-27187222D01*
X63014913Y-27177652D01*
X63153533Y-27103557D01*
X63210147Y-27086384D01*
X63323373Y-27052037D01*
X63389557Y-27045519D01*
X63455740Y-27039000D01*
X63544260Y-27039000D01*
X63610443Y-27045519D01*
X63610443Y-27045519D01*
G37*
G36*
X20430443Y-27045519D02*
X20496627Y-27052037D01*
X20609853Y-27086384D01*
X20666467Y-27103557D01*
X20805087Y-27177652D01*
X20822991Y-27187222D01*
X20858729Y-27216552D01*
X20960186Y-27299814D01*
X21043448Y-27401271D01*
X21072778Y-27437009D01*
X21072779Y-27437011D01*
X21156443Y-27593533D01*
X21156443Y-27593534D01*
X21207963Y-27763373D01*
X21225359Y-27940000D01*
X21207963Y-28116627D01*
X21173616Y-28229853D01*
X21156443Y-28286467D01*
X21082348Y-28425087D01*
X21072778Y-28442991D01*
X21043448Y-28478729D01*
X20960186Y-28580186D01*
X20858729Y-28663448D01*
X20822991Y-28692778D01*
X20822989Y-28692779D01*
X20666467Y-28776443D01*
X20609853Y-28793616D01*
X20496627Y-28827963D01*
X20430442Y-28834482D01*
X20364260Y-28841000D01*
X20275740Y-28841000D01*
X20209558Y-28834482D01*
X20143373Y-28827963D01*
X20030147Y-28793616D01*
X19973533Y-28776443D01*
X19817011Y-28692779D01*
X19817009Y-28692778D01*
X19781271Y-28663448D01*
X19679814Y-28580186D01*
X19596552Y-28478729D01*
X19567222Y-28442991D01*
X19557652Y-28425087D01*
X19483557Y-28286467D01*
X19466384Y-28229853D01*
X19432037Y-28116627D01*
X19414641Y-27940000D01*
X19432037Y-27763373D01*
X19483557Y-27593534D01*
X19483557Y-27593533D01*
X19567221Y-27437011D01*
X19567222Y-27437009D01*
X19596552Y-27401271D01*
X19679814Y-27299814D01*
X19781271Y-27216552D01*
X19817009Y-27187222D01*
X19834913Y-27177652D01*
X19973533Y-27103557D01*
X20030147Y-27086384D01*
X20143373Y-27052037D01*
X20209557Y-27045519D01*
X20275740Y-27039000D01*
X20364260Y-27039000D01*
X20430443Y-27045519D01*
X20430443Y-27045519D01*
G37*
G36*
X30590443Y-27045519D02*
X30656627Y-27052037D01*
X30769853Y-27086384D01*
X30826467Y-27103557D01*
X30965087Y-27177652D01*
X30982991Y-27187222D01*
X31018729Y-27216552D01*
X31120186Y-27299814D01*
X31203448Y-27401271D01*
X31232778Y-27437009D01*
X31232779Y-27437011D01*
X31316443Y-27593533D01*
X31316443Y-27593534D01*
X31367963Y-27763373D01*
X31385359Y-27940000D01*
X31367963Y-28116627D01*
X31333616Y-28229853D01*
X31316443Y-28286467D01*
X31242348Y-28425087D01*
X31232778Y-28442991D01*
X31203448Y-28478729D01*
X31120186Y-28580186D01*
X31018729Y-28663448D01*
X30982991Y-28692778D01*
X30982989Y-28692779D01*
X30826467Y-28776443D01*
X30769853Y-28793616D01*
X30656627Y-28827963D01*
X30590442Y-28834482D01*
X30524260Y-28841000D01*
X30435740Y-28841000D01*
X30369558Y-28834482D01*
X30303373Y-28827963D01*
X30190147Y-28793616D01*
X30133533Y-28776443D01*
X29977011Y-28692779D01*
X29977009Y-28692778D01*
X29941271Y-28663448D01*
X29839814Y-28580186D01*
X29756552Y-28478729D01*
X29727222Y-28442991D01*
X29717652Y-28425087D01*
X29643557Y-28286467D01*
X29626384Y-28229853D01*
X29592037Y-28116627D01*
X29574641Y-27940000D01*
X29592037Y-27763373D01*
X29643557Y-27593534D01*
X29643557Y-27593533D01*
X29727221Y-27437011D01*
X29727222Y-27437009D01*
X29756552Y-27401271D01*
X29839814Y-27299814D01*
X29941271Y-27216552D01*
X29977009Y-27187222D01*
X29994913Y-27177652D01*
X30133533Y-27103557D01*
X30190147Y-27086384D01*
X30303373Y-27052037D01*
X30369557Y-27045519D01*
X30435740Y-27039000D01*
X30524260Y-27039000D01*
X30590443Y-27045519D01*
X30590443Y-27045519D01*
G37*
G36*
X96630443Y-27045519D02*
X96696627Y-27052037D01*
X96809853Y-27086384D01*
X96866467Y-27103557D01*
X97005087Y-27177652D01*
X97022991Y-27187222D01*
X97058729Y-27216552D01*
X97160186Y-27299814D01*
X97243448Y-27401271D01*
X97272778Y-27437009D01*
X97272779Y-27437011D01*
X97356443Y-27593533D01*
X97356443Y-27593534D01*
X97407963Y-27763373D01*
X97425359Y-27940000D01*
X97407963Y-28116627D01*
X97373616Y-28229853D01*
X97356443Y-28286467D01*
X97282348Y-28425087D01*
X97272778Y-28442991D01*
X97243448Y-28478729D01*
X97160186Y-28580186D01*
X97058729Y-28663448D01*
X97022991Y-28692778D01*
X97022989Y-28692779D01*
X96866467Y-28776443D01*
X96809853Y-28793616D01*
X96696627Y-28827963D01*
X96630442Y-28834482D01*
X96564260Y-28841000D01*
X96475740Y-28841000D01*
X96409558Y-28834482D01*
X96343373Y-28827963D01*
X96230147Y-28793616D01*
X96173533Y-28776443D01*
X96017011Y-28692779D01*
X96017009Y-28692778D01*
X95981271Y-28663448D01*
X95879814Y-28580186D01*
X95796552Y-28478729D01*
X95767222Y-28442991D01*
X95757652Y-28425087D01*
X95683557Y-28286467D01*
X95666384Y-28229853D01*
X95632037Y-28116627D01*
X95614641Y-27940000D01*
X95632037Y-27763373D01*
X95683557Y-27593534D01*
X95683557Y-27593533D01*
X95767221Y-27437011D01*
X95767222Y-27437009D01*
X95796552Y-27401271D01*
X95879814Y-27299814D01*
X95981271Y-27216552D01*
X96017009Y-27187222D01*
X96034913Y-27177652D01*
X96173533Y-27103557D01*
X96230147Y-27086384D01*
X96343373Y-27052037D01*
X96409557Y-27045519D01*
X96475740Y-27039000D01*
X96564260Y-27039000D01*
X96630443Y-27045519D01*
X96630443Y-27045519D01*
G37*
G36*
X53450443Y-27045519D02*
X53516627Y-27052037D01*
X53629853Y-27086384D01*
X53686467Y-27103557D01*
X53825087Y-27177652D01*
X53842991Y-27187222D01*
X53878729Y-27216552D01*
X53980186Y-27299814D01*
X54063448Y-27401271D01*
X54092778Y-27437009D01*
X54092779Y-27437011D01*
X54176443Y-27593533D01*
X54176443Y-27593534D01*
X54227963Y-27763373D01*
X54245359Y-27940000D01*
X54227963Y-28116627D01*
X54193616Y-28229853D01*
X54176443Y-28286467D01*
X54102348Y-28425087D01*
X54092778Y-28442991D01*
X54063448Y-28478729D01*
X53980186Y-28580186D01*
X53878729Y-28663448D01*
X53842991Y-28692778D01*
X53842989Y-28692779D01*
X53686467Y-28776443D01*
X53629853Y-28793616D01*
X53516627Y-28827963D01*
X53450442Y-28834482D01*
X53384260Y-28841000D01*
X53295740Y-28841000D01*
X53229558Y-28834482D01*
X53163373Y-28827963D01*
X53050147Y-28793616D01*
X52993533Y-28776443D01*
X52837011Y-28692779D01*
X52837009Y-28692778D01*
X52801271Y-28663448D01*
X52699814Y-28580186D01*
X52616552Y-28478729D01*
X52587222Y-28442991D01*
X52577652Y-28425087D01*
X52503557Y-28286467D01*
X52486384Y-28229853D01*
X52452037Y-28116627D01*
X52434641Y-27940000D01*
X52452037Y-27763373D01*
X52503557Y-27593534D01*
X52503557Y-27593533D01*
X52587221Y-27437011D01*
X52587222Y-27437009D01*
X52616552Y-27401271D01*
X52699814Y-27299814D01*
X52801271Y-27216552D01*
X52837009Y-27187222D01*
X52854913Y-27177652D01*
X52993533Y-27103557D01*
X53050147Y-27086384D01*
X53163373Y-27052037D01*
X53229557Y-27045519D01*
X53295740Y-27039000D01*
X53384260Y-27039000D01*
X53450443Y-27045519D01*
X53450443Y-27045519D01*
G37*
G36*
X86470443Y-27045519D02*
X86536627Y-27052037D01*
X86649853Y-27086384D01*
X86706467Y-27103557D01*
X86845087Y-27177652D01*
X86862991Y-27187222D01*
X86898729Y-27216552D01*
X87000186Y-27299814D01*
X87083448Y-27401271D01*
X87112778Y-27437009D01*
X87112779Y-27437011D01*
X87196443Y-27593533D01*
X87196443Y-27593534D01*
X87247963Y-27763373D01*
X87265359Y-27940000D01*
X87247963Y-28116627D01*
X87213616Y-28229853D01*
X87196443Y-28286467D01*
X87122348Y-28425087D01*
X87112778Y-28442991D01*
X87083448Y-28478729D01*
X87000186Y-28580186D01*
X86898729Y-28663448D01*
X86862991Y-28692778D01*
X86862989Y-28692779D01*
X86706467Y-28776443D01*
X86649853Y-28793616D01*
X86536627Y-28827963D01*
X86470442Y-28834482D01*
X86404260Y-28841000D01*
X86315740Y-28841000D01*
X86249558Y-28834482D01*
X86183373Y-28827963D01*
X86070147Y-28793616D01*
X86013533Y-28776443D01*
X85857011Y-28692779D01*
X85857009Y-28692778D01*
X85821271Y-28663448D01*
X85719814Y-28580186D01*
X85636552Y-28478729D01*
X85607222Y-28442991D01*
X85597652Y-28425087D01*
X85523557Y-28286467D01*
X85506384Y-28229853D01*
X85472037Y-28116627D01*
X85454641Y-27940000D01*
X85472037Y-27763373D01*
X85523557Y-27593534D01*
X85523557Y-27593533D01*
X85607221Y-27437011D01*
X85607222Y-27437009D01*
X85636552Y-27401271D01*
X85719814Y-27299814D01*
X85821271Y-27216552D01*
X85857009Y-27187222D01*
X85874913Y-27177652D01*
X86013533Y-27103557D01*
X86070147Y-27086384D01*
X86183373Y-27052037D01*
X86249557Y-27045519D01*
X86315740Y-27039000D01*
X86404260Y-27039000D01*
X86470443Y-27045519D01*
X86470443Y-27045519D01*
G37*
G36*
X40750443Y-27045519D02*
X40816627Y-27052037D01*
X40929853Y-27086384D01*
X40986467Y-27103557D01*
X41125087Y-27177652D01*
X41142991Y-27187222D01*
X41178729Y-27216552D01*
X41280186Y-27299814D01*
X41363448Y-27401271D01*
X41392778Y-27437009D01*
X41392779Y-27437011D01*
X41476443Y-27593533D01*
X41476443Y-27593534D01*
X41527963Y-27763373D01*
X41545359Y-27940000D01*
X41527963Y-28116627D01*
X41493616Y-28229853D01*
X41476443Y-28286467D01*
X41402348Y-28425087D01*
X41392778Y-28442991D01*
X41363448Y-28478729D01*
X41280186Y-28580186D01*
X41178729Y-28663448D01*
X41142991Y-28692778D01*
X41142989Y-28692779D01*
X40986467Y-28776443D01*
X40929853Y-28793616D01*
X40816627Y-28827963D01*
X40750442Y-28834482D01*
X40684260Y-28841000D01*
X40595740Y-28841000D01*
X40529558Y-28834482D01*
X40463373Y-28827963D01*
X40350147Y-28793616D01*
X40293533Y-28776443D01*
X40137011Y-28692779D01*
X40137009Y-28692778D01*
X40101271Y-28663448D01*
X39999814Y-28580186D01*
X39916552Y-28478729D01*
X39887222Y-28442991D01*
X39877652Y-28425087D01*
X39803557Y-28286467D01*
X39786384Y-28229853D01*
X39752037Y-28116627D01*
X39734641Y-27940000D01*
X39752037Y-27763373D01*
X39803557Y-27593534D01*
X39803557Y-27593533D01*
X39887221Y-27437011D01*
X39887222Y-27437009D01*
X39916552Y-27401271D01*
X39999814Y-27299814D01*
X40101271Y-27216552D01*
X40137009Y-27187222D01*
X40154913Y-27177652D01*
X40293533Y-27103557D01*
X40350147Y-27086384D01*
X40463373Y-27052037D01*
X40529557Y-27045519D01*
X40595740Y-27039000D01*
X40684260Y-27039000D01*
X40750443Y-27045519D01*
X40750443Y-27045519D01*
G37*
G36*
X73770443Y-27045519D02*
X73836627Y-27052037D01*
X73949853Y-27086384D01*
X74006467Y-27103557D01*
X74145087Y-27177652D01*
X74162991Y-27187222D01*
X74198729Y-27216552D01*
X74300186Y-27299814D01*
X74383448Y-27401271D01*
X74412778Y-27437009D01*
X74412779Y-27437011D01*
X74496443Y-27593533D01*
X74496443Y-27593534D01*
X74547963Y-27763373D01*
X74565359Y-27940000D01*
X74547963Y-28116627D01*
X74513616Y-28229853D01*
X74496443Y-28286467D01*
X74422348Y-28425087D01*
X74412778Y-28442991D01*
X74383448Y-28478729D01*
X74300186Y-28580186D01*
X74198729Y-28663448D01*
X74162991Y-28692778D01*
X74162989Y-28692779D01*
X74006467Y-28776443D01*
X73949853Y-28793616D01*
X73836627Y-28827963D01*
X73770442Y-28834482D01*
X73704260Y-28841000D01*
X73615740Y-28841000D01*
X73549558Y-28834482D01*
X73483373Y-28827963D01*
X73370147Y-28793616D01*
X73313533Y-28776443D01*
X73157011Y-28692779D01*
X73157009Y-28692778D01*
X73121271Y-28663448D01*
X73019814Y-28580186D01*
X72936552Y-28478729D01*
X72907222Y-28442991D01*
X72897652Y-28425087D01*
X72823557Y-28286467D01*
X72806384Y-28229853D01*
X72772037Y-28116627D01*
X72754641Y-27940000D01*
X72772037Y-27763373D01*
X72823557Y-27593534D01*
X72823557Y-27593533D01*
X72907221Y-27437011D01*
X72907222Y-27437009D01*
X72936552Y-27401271D01*
X73019814Y-27299814D01*
X73121271Y-27216552D01*
X73157009Y-27187222D01*
X73174913Y-27177652D01*
X73313533Y-27103557D01*
X73370147Y-27086384D01*
X73483373Y-27052037D01*
X73549557Y-27045519D01*
X73615740Y-27039000D01*
X73704260Y-27039000D01*
X73770443Y-27045519D01*
X73770443Y-27045519D01*
G37*
G36*
X106790443Y-27045519D02*
X106856627Y-27052037D01*
X106969853Y-27086384D01*
X107026467Y-27103557D01*
X107165087Y-27177652D01*
X107182991Y-27187222D01*
X107218729Y-27216552D01*
X107320186Y-27299814D01*
X107403448Y-27401271D01*
X107432778Y-27437009D01*
X107432779Y-27437011D01*
X107516443Y-27593533D01*
X107516443Y-27593534D01*
X107567963Y-27763373D01*
X107585359Y-27940000D01*
X107567963Y-28116627D01*
X107533616Y-28229853D01*
X107516443Y-28286467D01*
X107442348Y-28425087D01*
X107432778Y-28442991D01*
X107403448Y-28478729D01*
X107320186Y-28580186D01*
X107218729Y-28663448D01*
X107182991Y-28692778D01*
X107182989Y-28692779D01*
X107026467Y-28776443D01*
X106969853Y-28793616D01*
X106856627Y-28827963D01*
X106790442Y-28834482D01*
X106724260Y-28841000D01*
X106635740Y-28841000D01*
X106569558Y-28834482D01*
X106503373Y-28827963D01*
X106390147Y-28793616D01*
X106333533Y-28776443D01*
X106177011Y-28692779D01*
X106177009Y-28692778D01*
X106141271Y-28663448D01*
X106039814Y-28580186D01*
X105956552Y-28478729D01*
X105927222Y-28442991D01*
X105917652Y-28425087D01*
X105843557Y-28286467D01*
X105826384Y-28229853D01*
X105792037Y-28116627D01*
X105774641Y-27940000D01*
X105792037Y-27763373D01*
X105843557Y-27593534D01*
X105843557Y-27593533D01*
X105927221Y-27437011D01*
X105927222Y-27437009D01*
X105956552Y-27401271D01*
X106039814Y-27299814D01*
X106141271Y-27216552D01*
X106177009Y-27187222D01*
X106194913Y-27177652D01*
X106333533Y-27103557D01*
X106390147Y-27086384D01*
X106503373Y-27052037D01*
X106569557Y-27045519D01*
X106635740Y-27039000D01*
X106724260Y-27039000D01*
X106790443Y-27045519D01*
X106790443Y-27045519D01*
G37*
G36*
X20430442Y-24505518D02*
X20496627Y-24512037D01*
X20609853Y-24546384D01*
X20666467Y-24563557D01*
X20805087Y-24637652D01*
X20822991Y-24647222D01*
X20858729Y-24676552D01*
X20960186Y-24759814D01*
X21043448Y-24861271D01*
X21072778Y-24897009D01*
X21072779Y-24897011D01*
X21156443Y-25053533D01*
X21156443Y-25053534D01*
X21207963Y-25223373D01*
X21225359Y-25400000D01*
X21207963Y-25576627D01*
X21173616Y-25689853D01*
X21156443Y-25746467D01*
X21082348Y-25885087D01*
X21072778Y-25902991D01*
X21043448Y-25938729D01*
X20960186Y-26040186D01*
X20858729Y-26123448D01*
X20822991Y-26152778D01*
X20822989Y-26152779D01*
X20666467Y-26236443D01*
X20609853Y-26253616D01*
X20496627Y-26287963D01*
X20430443Y-26294481D01*
X20364260Y-26301000D01*
X20275740Y-26301000D01*
X20209557Y-26294481D01*
X20143373Y-26287963D01*
X20030147Y-26253616D01*
X19973533Y-26236443D01*
X19817011Y-26152779D01*
X19817009Y-26152778D01*
X19781271Y-26123448D01*
X19679814Y-26040186D01*
X19596552Y-25938729D01*
X19567222Y-25902991D01*
X19557652Y-25885087D01*
X19483557Y-25746467D01*
X19466384Y-25689853D01*
X19432037Y-25576627D01*
X19414641Y-25400000D01*
X19432037Y-25223373D01*
X19483557Y-25053534D01*
X19483557Y-25053533D01*
X19567221Y-24897011D01*
X19567222Y-24897009D01*
X19596552Y-24861271D01*
X19679814Y-24759814D01*
X19781271Y-24676552D01*
X19817009Y-24647222D01*
X19834913Y-24637652D01*
X19973533Y-24563557D01*
X20030147Y-24546384D01*
X20143373Y-24512037D01*
X20209557Y-24505519D01*
X20275740Y-24499000D01*
X20364260Y-24499000D01*
X20430442Y-24505518D01*
X20430442Y-24505518D01*
G37*
G36*
X53450442Y-24505518D02*
X53516627Y-24512037D01*
X53629853Y-24546384D01*
X53686467Y-24563557D01*
X53825087Y-24637652D01*
X53842991Y-24647222D01*
X53878729Y-24676552D01*
X53980186Y-24759814D01*
X54063448Y-24861271D01*
X54092778Y-24897009D01*
X54092779Y-24897011D01*
X54176443Y-25053533D01*
X54176443Y-25053534D01*
X54227963Y-25223373D01*
X54245359Y-25400000D01*
X54227963Y-25576627D01*
X54193616Y-25689853D01*
X54176443Y-25746467D01*
X54102348Y-25885087D01*
X54092778Y-25902991D01*
X54063448Y-25938729D01*
X53980186Y-26040186D01*
X53878729Y-26123448D01*
X53842991Y-26152778D01*
X53842989Y-26152779D01*
X53686467Y-26236443D01*
X53629853Y-26253616D01*
X53516627Y-26287963D01*
X53450443Y-26294481D01*
X53384260Y-26301000D01*
X53295740Y-26301000D01*
X53229557Y-26294481D01*
X53163373Y-26287963D01*
X53050147Y-26253616D01*
X52993533Y-26236443D01*
X52837011Y-26152779D01*
X52837009Y-26152778D01*
X52801271Y-26123448D01*
X52699814Y-26040186D01*
X52616552Y-25938729D01*
X52587222Y-25902991D01*
X52577652Y-25885087D01*
X52503557Y-25746467D01*
X52486384Y-25689853D01*
X52452037Y-25576627D01*
X52434641Y-25400000D01*
X52452037Y-25223373D01*
X52503557Y-25053534D01*
X52503557Y-25053533D01*
X52587221Y-24897011D01*
X52587222Y-24897009D01*
X52616552Y-24861271D01*
X52699814Y-24759814D01*
X52801271Y-24676552D01*
X52837009Y-24647222D01*
X52854913Y-24637652D01*
X52993533Y-24563557D01*
X53050147Y-24546384D01*
X53163373Y-24512037D01*
X53229557Y-24505519D01*
X53295740Y-24499000D01*
X53384260Y-24499000D01*
X53450442Y-24505518D01*
X53450442Y-24505518D01*
G37*
G36*
X106790442Y-24505518D02*
X106856627Y-24512037D01*
X106969853Y-24546384D01*
X107026467Y-24563557D01*
X107165087Y-24637652D01*
X107182991Y-24647222D01*
X107218729Y-24676552D01*
X107320186Y-24759814D01*
X107403448Y-24861271D01*
X107432778Y-24897009D01*
X107432779Y-24897011D01*
X107516443Y-25053533D01*
X107516443Y-25053534D01*
X107567963Y-25223373D01*
X107585359Y-25400000D01*
X107567963Y-25576627D01*
X107533616Y-25689853D01*
X107516443Y-25746467D01*
X107442348Y-25885087D01*
X107432778Y-25902991D01*
X107403448Y-25938729D01*
X107320186Y-26040186D01*
X107218729Y-26123448D01*
X107182991Y-26152778D01*
X107182989Y-26152779D01*
X107026467Y-26236443D01*
X106969853Y-26253616D01*
X106856627Y-26287963D01*
X106790443Y-26294481D01*
X106724260Y-26301000D01*
X106635740Y-26301000D01*
X106569557Y-26294481D01*
X106503373Y-26287963D01*
X106390147Y-26253616D01*
X106333533Y-26236443D01*
X106177011Y-26152779D01*
X106177009Y-26152778D01*
X106141271Y-26123448D01*
X106039814Y-26040186D01*
X105956552Y-25938729D01*
X105927222Y-25902991D01*
X105917652Y-25885087D01*
X105843557Y-25746467D01*
X105826384Y-25689853D01*
X105792037Y-25576627D01*
X105774641Y-25400000D01*
X105792037Y-25223373D01*
X105843557Y-25053534D01*
X105843557Y-25053533D01*
X105927221Y-24897011D01*
X105927222Y-24897009D01*
X105956552Y-24861271D01*
X106039814Y-24759814D01*
X106141271Y-24676552D01*
X106177009Y-24647222D01*
X106194913Y-24637652D01*
X106333533Y-24563557D01*
X106390147Y-24546384D01*
X106503373Y-24512037D01*
X106569557Y-24505519D01*
X106635740Y-24499000D01*
X106724260Y-24499000D01*
X106790442Y-24505518D01*
X106790442Y-24505518D01*
G37*
G36*
X96630442Y-24505518D02*
X96696627Y-24512037D01*
X96809853Y-24546384D01*
X96866467Y-24563557D01*
X97005087Y-24637652D01*
X97022991Y-24647222D01*
X97058729Y-24676552D01*
X97160186Y-24759814D01*
X97243448Y-24861271D01*
X97272778Y-24897009D01*
X97272779Y-24897011D01*
X97356443Y-25053533D01*
X97356443Y-25053534D01*
X97407963Y-25223373D01*
X97425359Y-25400000D01*
X97407963Y-25576627D01*
X97373616Y-25689853D01*
X97356443Y-25746467D01*
X97282348Y-25885087D01*
X97272778Y-25902991D01*
X97243448Y-25938729D01*
X97160186Y-26040186D01*
X97058729Y-26123448D01*
X97022991Y-26152778D01*
X97022989Y-26152779D01*
X96866467Y-26236443D01*
X96809853Y-26253616D01*
X96696627Y-26287963D01*
X96630443Y-26294481D01*
X96564260Y-26301000D01*
X96475740Y-26301000D01*
X96409557Y-26294481D01*
X96343373Y-26287963D01*
X96230147Y-26253616D01*
X96173533Y-26236443D01*
X96017011Y-26152779D01*
X96017009Y-26152778D01*
X95981271Y-26123448D01*
X95879814Y-26040186D01*
X95796552Y-25938729D01*
X95767222Y-25902991D01*
X95757652Y-25885087D01*
X95683557Y-25746467D01*
X95666384Y-25689853D01*
X95632037Y-25576627D01*
X95614641Y-25400000D01*
X95632037Y-25223373D01*
X95683557Y-25053534D01*
X95683557Y-25053533D01*
X95767221Y-24897011D01*
X95767222Y-24897009D01*
X95796552Y-24861271D01*
X95879814Y-24759814D01*
X95981271Y-24676552D01*
X96017009Y-24647222D01*
X96034913Y-24637652D01*
X96173533Y-24563557D01*
X96230147Y-24546384D01*
X96343373Y-24512037D01*
X96409557Y-24505519D01*
X96475740Y-24499000D01*
X96564260Y-24499000D01*
X96630442Y-24505518D01*
X96630442Y-24505518D01*
G37*
G36*
X40750442Y-24505518D02*
X40816627Y-24512037D01*
X40929853Y-24546384D01*
X40986467Y-24563557D01*
X41125087Y-24637652D01*
X41142991Y-24647222D01*
X41178729Y-24676552D01*
X41280186Y-24759814D01*
X41363448Y-24861271D01*
X41392778Y-24897009D01*
X41392779Y-24897011D01*
X41476443Y-25053533D01*
X41476443Y-25053534D01*
X41527963Y-25223373D01*
X41545359Y-25400000D01*
X41527963Y-25576627D01*
X41493616Y-25689853D01*
X41476443Y-25746467D01*
X41402348Y-25885087D01*
X41392778Y-25902991D01*
X41363448Y-25938729D01*
X41280186Y-26040186D01*
X41178729Y-26123448D01*
X41142991Y-26152778D01*
X41142989Y-26152779D01*
X40986467Y-26236443D01*
X40929853Y-26253616D01*
X40816627Y-26287963D01*
X40750443Y-26294481D01*
X40684260Y-26301000D01*
X40595740Y-26301000D01*
X40529557Y-26294481D01*
X40463373Y-26287963D01*
X40350147Y-26253616D01*
X40293533Y-26236443D01*
X40137011Y-26152779D01*
X40137009Y-26152778D01*
X40101271Y-26123448D01*
X39999814Y-26040186D01*
X39916552Y-25938729D01*
X39887222Y-25902991D01*
X39877652Y-25885087D01*
X39803557Y-25746467D01*
X39786384Y-25689853D01*
X39752037Y-25576627D01*
X39734641Y-25400000D01*
X39752037Y-25223373D01*
X39803557Y-25053534D01*
X39803557Y-25053533D01*
X39887221Y-24897011D01*
X39887222Y-24897009D01*
X39916552Y-24861271D01*
X39999814Y-24759814D01*
X40101271Y-24676552D01*
X40137009Y-24647222D01*
X40154913Y-24637652D01*
X40293533Y-24563557D01*
X40350147Y-24546384D01*
X40463373Y-24512037D01*
X40529557Y-24505519D01*
X40595740Y-24499000D01*
X40684260Y-24499000D01*
X40750442Y-24505518D01*
X40750442Y-24505518D01*
G37*
G36*
X86470442Y-24505518D02*
X86536627Y-24512037D01*
X86649853Y-24546384D01*
X86706467Y-24563557D01*
X86845087Y-24637652D01*
X86862991Y-24647222D01*
X86898729Y-24676552D01*
X87000186Y-24759814D01*
X87083448Y-24861271D01*
X87112778Y-24897009D01*
X87112779Y-24897011D01*
X87196443Y-25053533D01*
X87196443Y-25053534D01*
X87247963Y-25223373D01*
X87265359Y-25400000D01*
X87247963Y-25576627D01*
X87213616Y-25689853D01*
X87196443Y-25746467D01*
X87122348Y-25885087D01*
X87112778Y-25902991D01*
X87083448Y-25938729D01*
X87000186Y-26040186D01*
X86898729Y-26123448D01*
X86862991Y-26152778D01*
X86862989Y-26152779D01*
X86706467Y-26236443D01*
X86649853Y-26253616D01*
X86536627Y-26287963D01*
X86470443Y-26294481D01*
X86404260Y-26301000D01*
X86315740Y-26301000D01*
X86249557Y-26294481D01*
X86183373Y-26287963D01*
X86070147Y-26253616D01*
X86013533Y-26236443D01*
X85857011Y-26152779D01*
X85857009Y-26152778D01*
X85821271Y-26123448D01*
X85719814Y-26040186D01*
X85636552Y-25938729D01*
X85607222Y-25902991D01*
X85597652Y-25885087D01*
X85523557Y-25746467D01*
X85506384Y-25689853D01*
X85472037Y-25576627D01*
X85454641Y-25400000D01*
X85472037Y-25223373D01*
X85523557Y-25053534D01*
X85523557Y-25053533D01*
X85607221Y-24897011D01*
X85607222Y-24897009D01*
X85636552Y-24861271D01*
X85719814Y-24759814D01*
X85821271Y-24676552D01*
X85857009Y-24647222D01*
X85874913Y-24637652D01*
X86013533Y-24563557D01*
X86070147Y-24546384D01*
X86183373Y-24512037D01*
X86249557Y-24505519D01*
X86315740Y-24499000D01*
X86404260Y-24499000D01*
X86470442Y-24505518D01*
X86470442Y-24505518D01*
G37*
G36*
X63610442Y-24505518D02*
X63676627Y-24512037D01*
X63789853Y-24546384D01*
X63846467Y-24563557D01*
X63985087Y-24637652D01*
X64002991Y-24647222D01*
X64038729Y-24676552D01*
X64140186Y-24759814D01*
X64223448Y-24861271D01*
X64252778Y-24897009D01*
X64252779Y-24897011D01*
X64336443Y-25053533D01*
X64336443Y-25053534D01*
X64387963Y-25223373D01*
X64405359Y-25400000D01*
X64387963Y-25576627D01*
X64353616Y-25689853D01*
X64336443Y-25746467D01*
X64262348Y-25885087D01*
X64252778Y-25902991D01*
X64223448Y-25938729D01*
X64140186Y-26040186D01*
X64038729Y-26123448D01*
X64002991Y-26152778D01*
X64002989Y-26152779D01*
X63846467Y-26236443D01*
X63789853Y-26253616D01*
X63676627Y-26287963D01*
X63610443Y-26294481D01*
X63544260Y-26301000D01*
X63455740Y-26301000D01*
X63389557Y-26294481D01*
X63323373Y-26287963D01*
X63210147Y-26253616D01*
X63153533Y-26236443D01*
X62997011Y-26152779D01*
X62997009Y-26152778D01*
X62961271Y-26123448D01*
X62859814Y-26040186D01*
X62776552Y-25938729D01*
X62747222Y-25902991D01*
X62737652Y-25885087D01*
X62663557Y-25746467D01*
X62646384Y-25689853D01*
X62612037Y-25576627D01*
X62594641Y-25400000D01*
X62612037Y-25223373D01*
X62663557Y-25053534D01*
X62663557Y-25053533D01*
X62747221Y-24897011D01*
X62747222Y-24897009D01*
X62776552Y-24861271D01*
X62859814Y-24759814D01*
X62961271Y-24676552D01*
X62997009Y-24647222D01*
X63014913Y-24637652D01*
X63153533Y-24563557D01*
X63210147Y-24546384D01*
X63323373Y-24512037D01*
X63389557Y-24505519D01*
X63455740Y-24499000D01*
X63544260Y-24499000D01*
X63610442Y-24505518D01*
X63610442Y-24505518D01*
G37*
G36*
X30590442Y-24505518D02*
X30656627Y-24512037D01*
X30769853Y-24546384D01*
X30826467Y-24563557D01*
X30965087Y-24637652D01*
X30982991Y-24647222D01*
X31018729Y-24676552D01*
X31120186Y-24759814D01*
X31203448Y-24861271D01*
X31232778Y-24897009D01*
X31232779Y-24897011D01*
X31316443Y-25053533D01*
X31316443Y-25053534D01*
X31367963Y-25223373D01*
X31385359Y-25400000D01*
X31367963Y-25576627D01*
X31333616Y-25689853D01*
X31316443Y-25746467D01*
X31242348Y-25885087D01*
X31232778Y-25902991D01*
X31203448Y-25938729D01*
X31120186Y-26040186D01*
X31018729Y-26123448D01*
X30982991Y-26152778D01*
X30982989Y-26152779D01*
X30826467Y-26236443D01*
X30769853Y-26253616D01*
X30656627Y-26287963D01*
X30590443Y-26294481D01*
X30524260Y-26301000D01*
X30435740Y-26301000D01*
X30369557Y-26294481D01*
X30303373Y-26287963D01*
X30190147Y-26253616D01*
X30133533Y-26236443D01*
X29977011Y-26152779D01*
X29977009Y-26152778D01*
X29941271Y-26123448D01*
X29839814Y-26040186D01*
X29756552Y-25938729D01*
X29727222Y-25902991D01*
X29717652Y-25885087D01*
X29643557Y-25746467D01*
X29626384Y-25689853D01*
X29592037Y-25576627D01*
X29574641Y-25400000D01*
X29592037Y-25223373D01*
X29643557Y-25053534D01*
X29643557Y-25053533D01*
X29727221Y-24897011D01*
X29727222Y-24897009D01*
X29756552Y-24861271D01*
X29839814Y-24759814D01*
X29941271Y-24676552D01*
X29977009Y-24647222D01*
X29994913Y-24637652D01*
X30133533Y-24563557D01*
X30190147Y-24546384D01*
X30303373Y-24512037D01*
X30369557Y-24505519D01*
X30435740Y-24499000D01*
X30524260Y-24499000D01*
X30590442Y-24505518D01*
X30590442Y-24505518D01*
G37*
G36*
X73770442Y-24505518D02*
X73836627Y-24512037D01*
X73949853Y-24546384D01*
X74006467Y-24563557D01*
X74145087Y-24637652D01*
X74162991Y-24647222D01*
X74198729Y-24676552D01*
X74300186Y-24759814D01*
X74383448Y-24861271D01*
X74412778Y-24897009D01*
X74412779Y-24897011D01*
X74496443Y-25053533D01*
X74496443Y-25053534D01*
X74547963Y-25223373D01*
X74565359Y-25400000D01*
X74547963Y-25576627D01*
X74513616Y-25689853D01*
X74496443Y-25746467D01*
X74422348Y-25885087D01*
X74412778Y-25902991D01*
X74383448Y-25938729D01*
X74300186Y-26040186D01*
X74198729Y-26123448D01*
X74162991Y-26152778D01*
X74162989Y-26152779D01*
X74006467Y-26236443D01*
X73949853Y-26253616D01*
X73836627Y-26287963D01*
X73770443Y-26294481D01*
X73704260Y-26301000D01*
X73615740Y-26301000D01*
X73549557Y-26294481D01*
X73483373Y-26287963D01*
X73370147Y-26253616D01*
X73313533Y-26236443D01*
X73157011Y-26152779D01*
X73157009Y-26152778D01*
X73121271Y-26123448D01*
X73019814Y-26040186D01*
X72936552Y-25938729D01*
X72907222Y-25902991D01*
X72897652Y-25885087D01*
X72823557Y-25746467D01*
X72806384Y-25689853D01*
X72772037Y-25576627D01*
X72754641Y-25400000D01*
X72772037Y-25223373D01*
X72823557Y-25053534D01*
X72823557Y-25053533D01*
X72907221Y-24897011D01*
X72907222Y-24897009D01*
X72936552Y-24861271D01*
X73019814Y-24759814D01*
X73121271Y-24676552D01*
X73157009Y-24647222D01*
X73174913Y-24637652D01*
X73313533Y-24563557D01*
X73370147Y-24546384D01*
X73483373Y-24512037D01*
X73549557Y-24505519D01*
X73615740Y-24499000D01*
X73704260Y-24499000D01*
X73770442Y-24505518D01*
X73770442Y-24505518D01*
G37*
G36*
X63610443Y-21965519D02*
X63676627Y-21972037D01*
X63789853Y-22006384D01*
X63846467Y-22023557D01*
X63985087Y-22097652D01*
X64002991Y-22107222D01*
X64038729Y-22136552D01*
X64140186Y-22219814D01*
X64223448Y-22321271D01*
X64252778Y-22357009D01*
X64252779Y-22357011D01*
X64336443Y-22513533D01*
X64336443Y-22513534D01*
X64387963Y-22683373D01*
X64405359Y-22860000D01*
X64387963Y-23036627D01*
X64353616Y-23149853D01*
X64336443Y-23206467D01*
X64262348Y-23345087D01*
X64252778Y-23362991D01*
X64223448Y-23398729D01*
X64140186Y-23500186D01*
X64038729Y-23583448D01*
X64002991Y-23612778D01*
X64002989Y-23612779D01*
X63846467Y-23696443D01*
X63789853Y-23713616D01*
X63676627Y-23747963D01*
X63610442Y-23754482D01*
X63544260Y-23761000D01*
X63455740Y-23761000D01*
X63389558Y-23754482D01*
X63323373Y-23747963D01*
X63210147Y-23713616D01*
X63153533Y-23696443D01*
X62997011Y-23612779D01*
X62997009Y-23612778D01*
X62961271Y-23583448D01*
X62859814Y-23500186D01*
X62776552Y-23398729D01*
X62747222Y-23362991D01*
X62737652Y-23345087D01*
X62663557Y-23206467D01*
X62646384Y-23149853D01*
X62612037Y-23036627D01*
X62594641Y-22860000D01*
X62612037Y-22683373D01*
X62663557Y-22513534D01*
X62663557Y-22513533D01*
X62747221Y-22357011D01*
X62747222Y-22357009D01*
X62776552Y-22321271D01*
X62859814Y-22219814D01*
X62961271Y-22136552D01*
X62997009Y-22107222D01*
X63014913Y-22097652D01*
X63153533Y-22023557D01*
X63210147Y-22006384D01*
X63323373Y-21972037D01*
X63389557Y-21965519D01*
X63455740Y-21959000D01*
X63544260Y-21959000D01*
X63610443Y-21965519D01*
X63610443Y-21965519D01*
G37*
G36*
X20430443Y-21965519D02*
X20496627Y-21972037D01*
X20609853Y-22006384D01*
X20666467Y-22023557D01*
X20805087Y-22097652D01*
X20822991Y-22107222D01*
X20858729Y-22136552D01*
X20960186Y-22219814D01*
X21043448Y-22321271D01*
X21072778Y-22357009D01*
X21072779Y-22357011D01*
X21156443Y-22513533D01*
X21156443Y-22513534D01*
X21207963Y-22683373D01*
X21225359Y-22860000D01*
X21207963Y-23036627D01*
X21173616Y-23149853D01*
X21156443Y-23206467D01*
X21082348Y-23345087D01*
X21072778Y-23362991D01*
X21043448Y-23398729D01*
X20960186Y-23500186D01*
X20858729Y-23583448D01*
X20822991Y-23612778D01*
X20822989Y-23612779D01*
X20666467Y-23696443D01*
X20609853Y-23713616D01*
X20496627Y-23747963D01*
X20430442Y-23754482D01*
X20364260Y-23761000D01*
X20275740Y-23761000D01*
X20209558Y-23754482D01*
X20143373Y-23747963D01*
X20030147Y-23713616D01*
X19973533Y-23696443D01*
X19817011Y-23612779D01*
X19817009Y-23612778D01*
X19781271Y-23583448D01*
X19679814Y-23500186D01*
X19596552Y-23398729D01*
X19567222Y-23362991D01*
X19557652Y-23345087D01*
X19483557Y-23206467D01*
X19466384Y-23149853D01*
X19432037Y-23036627D01*
X19414641Y-22860000D01*
X19432037Y-22683373D01*
X19483557Y-22513534D01*
X19483557Y-22513533D01*
X19567221Y-22357011D01*
X19567222Y-22357009D01*
X19596552Y-22321271D01*
X19679814Y-22219814D01*
X19781271Y-22136552D01*
X19817009Y-22107222D01*
X19834913Y-22097652D01*
X19973533Y-22023557D01*
X20030147Y-22006384D01*
X20143373Y-21972037D01*
X20209557Y-21965519D01*
X20275740Y-21959000D01*
X20364260Y-21959000D01*
X20430443Y-21965519D01*
X20430443Y-21965519D01*
G37*
G36*
X30590443Y-21965519D02*
X30656627Y-21972037D01*
X30769853Y-22006384D01*
X30826467Y-22023557D01*
X30965087Y-22097652D01*
X30982991Y-22107222D01*
X31018729Y-22136552D01*
X31120186Y-22219814D01*
X31203448Y-22321271D01*
X31232778Y-22357009D01*
X31232779Y-22357011D01*
X31316443Y-22513533D01*
X31316443Y-22513534D01*
X31367963Y-22683373D01*
X31385359Y-22860000D01*
X31367963Y-23036627D01*
X31333616Y-23149853D01*
X31316443Y-23206467D01*
X31242348Y-23345087D01*
X31232778Y-23362991D01*
X31203448Y-23398729D01*
X31120186Y-23500186D01*
X31018729Y-23583448D01*
X30982991Y-23612778D01*
X30982989Y-23612779D01*
X30826467Y-23696443D01*
X30769853Y-23713616D01*
X30656627Y-23747963D01*
X30590442Y-23754482D01*
X30524260Y-23761000D01*
X30435740Y-23761000D01*
X30369558Y-23754482D01*
X30303373Y-23747963D01*
X30190147Y-23713616D01*
X30133533Y-23696443D01*
X29977011Y-23612779D01*
X29977009Y-23612778D01*
X29941271Y-23583448D01*
X29839814Y-23500186D01*
X29756552Y-23398729D01*
X29727222Y-23362991D01*
X29717652Y-23345087D01*
X29643557Y-23206467D01*
X29626384Y-23149853D01*
X29592037Y-23036627D01*
X29574641Y-22860000D01*
X29592037Y-22683373D01*
X29643557Y-22513534D01*
X29643557Y-22513533D01*
X29727221Y-22357011D01*
X29727222Y-22357009D01*
X29756552Y-22321271D01*
X29839814Y-22219814D01*
X29941271Y-22136552D01*
X29977009Y-22107222D01*
X29994913Y-22097652D01*
X30133533Y-22023557D01*
X30190147Y-22006384D01*
X30303373Y-21972037D01*
X30369557Y-21965519D01*
X30435740Y-21959000D01*
X30524260Y-21959000D01*
X30590443Y-21965519D01*
X30590443Y-21965519D01*
G37*
G36*
X53450443Y-21965519D02*
X53516627Y-21972037D01*
X53629853Y-22006384D01*
X53686467Y-22023557D01*
X53825087Y-22097652D01*
X53842991Y-22107222D01*
X53878729Y-22136552D01*
X53980186Y-22219814D01*
X54063448Y-22321271D01*
X54092778Y-22357009D01*
X54092779Y-22357011D01*
X54176443Y-22513533D01*
X54176443Y-22513534D01*
X54227963Y-22683373D01*
X54245359Y-22860000D01*
X54227963Y-23036627D01*
X54193616Y-23149853D01*
X54176443Y-23206467D01*
X54102348Y-23345087D01*
X54092778Y-23362991D01*
X54063448Y-23398729D01*
X53980186Y-23500186D01*
X53878729Y-23583448D01*
X53842991Y-23612778D01*
X53842989Y-23612779D01*
X53686467Y-23696443D01*
X53629853Y-23713616D01*
X53516627Y-23747963D01*
X53450442Y-23754482D01*
X53384260Y-23761000D01*
X53295740Y-23761000D01*
X53229558Y-23754482D01*
X53163373Y-23747963D01*
X53050147Y-23713616D01*
X52993533Y-23696443D01*
X52837011Y-23612779D01*
X52837009Y-23612778D01*
X52801271Y-23583448D01*
X52699814Y-23500186D01*
X52616552Y-23398729D01*
X52587222Y-23362991D01*
X52577652Y-23345087D01*
X52503557Y-23206467D01*
X52486384Y-23149853D01*
X52452037Y-23036627D01*
X52434641Y-22860000D01*
X52452037Y-22683373D01*
X52503557Y-22513534D01*
X52503557Y-22513533D01*
X52587221Y-22357011D01*
X52587222Y-22357009D01*
X52616552Y-22321271D01*
X52699814Y-22219814D01*
X52801271Y-22136552D01*
X52837009Y-22107222D01*
X52854913Y-22097652D01*
X52993533Y-22023557D01*
X53050147Y-22006384D01*
X53163373Y-21972037D01*
X53229557Y-21965519D01*
X53295740Y-21959000D01*
X53384260Y-21959000D01*
X53450443Y-21965519D01*
X53450443Y-21965519D01*
G37*
G36*
X73770443Y-21965519D02*
X73836627Y-21972037D01*
X73949853Y-22006384D01*
X74006467Y-22023557D01*
X74145087Y-22097652D01*
X74162991Y-22107222D01*
X74198729Y-22136552D01*
X74300186Y-22219814D01*
X74383448Y-22321271D01*
X74412778Y-22357009D01*
X74412779Y-22357011D01*
X74496443Y-22513533D01*
X74496443Y-22513534D01*
X74547963Y-22683373D01*
X74565359Y-22860000D01*
X74547963Y-23036627D01*
X74513616Y-23149853D01*
X74496443Y-23206467D01*
X74422348Y-23345087D01*
X74412778Y-23362991D01*
X74383448Y-23398729D01*
X74300186Y-23500186D01*
X74198729Y-23583448D01*
X74162991Y-23612778D01*
X74162989Y-23612779D01*
X74006467Y-23696443D01*
X73949853Y-23713616D01*
X73836627Y-23747963D01*
X73770442Y-23754482D01*
X73704260Y-23761000D01*
X73615740Y-23761000D01*
X73549558Y-23754482D01*
X73483373Y-23747963D01*
X73370147Y-23713616D01*
X73313533Y-23696443D01*
X73157011Y-23612779D01*
X73157009Y-23612778D01*
X73121271Y-23583448D01*
X73019814Y-23500186D01*
X72936552Y-23398729D01*
X72907222Y-23362991D01*
X72897652Y-23345087D01*
X72823557Y-23206467D01*
X72806384Y-23149853D01*
X72772037Y-23036627D01*
X72754641Y-22860000D01*
X72772037Y-22683373D01*
X72823557Y-22513534D01*
X72823557Y-22513533D01*
X72907221Y-22357011D01*
X72907222Y-22357009D01*
X72936552Y-22321271D01*
X73019814Y-22219814D01*
X73121271Y-22136552D01*
X73157009Y-22107222D01*
X73174913Y-22097652D01*
X73313533Y-22023557D01*
X73370147Y-22006384D01*
X73483373Y-21972037D01*
X73549557Y-21965519D01*
X73615740Y-21959000D01*
X73704260Y-21959000D01*
X73770443Y-21965519D01*
X73770443Y-21965519D01*
G37*
G36*
X106790443Y-21965519D02*
X106856627Y-21972037D01*
X106969853Y-22006384D01*
X107026467Y-22023557D01*
X107165087Y-22097652D01*
X107182991Y-22107222D01*
X107218729Y-22136552D01*
X107320186Y-22219814D01*
X107403448Y-22321271D01*
X107432778Y-22357009D01*
X107432779Y-22357011D01*
X107516443Y-22513533D01*
X107516443Y-22513534D01*
X107567963Y-22683373D01*
X107585359Y-22860000D01*
X107567963Y-23036627D01*
X107533616Y-23149853D01*
X107516443Y-23206467D01*
X107442348Y-23345087D01*
X107432778Y-23362991D01*
X107403448Y-23398729D01*
X107320186Y-23500186D01*
X107218729Y-23583448D01*
X107182991Y-23612778D01*
X107182989Y-23612779D01*
X107026467Y-23696443D01*
X106969853Y-23713616D01*
X106856627Y-23747963D01*
X106790442Y-23754482D01*
X106724260Y-23761000D01*
X106635740Y-23761000D01*
X106569558Y-23754482D01*
X106503373Y-23747963D01*
X106390147Y-23713616D01*
X106333533Y-23696443D01*
X106177011Y-23612779D01*
X106177009Y-23612778D01*
X106141271Y-23583448D01*
X106039814Y-23500186D01*
X105956552Y-23398729D01*
X105927222Y-23362991D01*
X105917652Y-23345087D01*
X105843557Y-23206467D01*
X105826384Y-23149853D01*
X105792037Y-23036627D01*
X105774641Y-22860000D01*
X105792037Y-22683373D01*
X105843557Y-22513534D01*
X105843557Y-22513533D01*
X105927221Y-22357011D01*
X105927222Y-22357009D01*
X105956552Y-22321271D01*
X106039814Y-22219814D01*
X106141271Y-22136552D01*
X106177009Y-22107222D01*
X106194913Y-22097652D01*
X106333533Y-22023557D01*
X106390147Y-22006384D01*
X106503373Y-21972037D01*
X106569557Y-21965519D01*
X106635740Y-21959000D01*
X106724260Y-21959000D01*
X106790443Y-21965519D01*
X106790443Y-21965519D01*
G37*
G36*
X96630443Y-21965519D02*
X96696627Y-21972037D01*
X96809853Y-22006384D01*
X96866467Y-22023557D01*
X97005087Y-22097652D01*
X97022991Y-22107222D01*
X97058729Y-22136552D01*
X97160186Y-22219814D01*
X97243448Y-22321271D01*
X97272778Y-22357009D01*
X97272779Y-22357011D01*
X97356443Y-22513533D01*
X97356443Y-22513534D01*
X97407963Y-22683373D01*
X97425359Y-22860000D01*
X97407963Y-23036627D01*
X97373616Y-23149853D01*
X97356443Y-23206467D01*
X97282348Y-23345087D01*
X97272778Y-23362991D01*
X97243448Y-23398729D01*
X97160186Y-23500186D01*
X97058729Y-23583448D01*
X97022991Y-23612778D01*
X97022989Y-23612779D01*
X96866467Y-23696443D01*
X96809853Y-23713616D01*
X96696627Y-23747963D01*
X96630442Y-23754482D01*
X96564260Y-23761000D01*
X96475740Y-23761000D01*
X96409558Y-23754482D01*
X96343373Y-23747963D01*
X96230147Y-23713616D01*
X96173533Y-23696443D01*
X96017011Y-23612779D01*
X96017009Y-23612778D01*
X95981271Y-23583448D01*
X95879814Y-23500186D01*
X95796552Y-23398729D01*
X95767222Y-23362991D01*
X95757652Y-23345087D01*
X95683557Y-23206467D01*
X95666384Y-23149853D01*
X95632037Y-23036627D01*
X95614641Y-22860000D01*
X95632037Y-22683373D01*
X95683557Y-22513534D01*
X95683557Y-22513533D01*
X95767221Y-22357011D01*
X95767222Y-22357009D01*
X95796552Y-22321271D01*
X95879814Y-22219814D01*
X95981271Y-22136552D01*
X96017009Y-22107222D01*
X96034913Y-22097652D01*
X96173533Y-22023557D01*
X96230147Y-22006384D01*
X96343373Y-21972037D01*
X96409557Y-21965519D01*
X96475740Y-21959000D01*
X96564260Y-21959000D01*
X96630443Y-21965519D01*
X96630443Y-21965519D01*
G37*
G36*
X40750443Y-21965519D02*
X40816627Y-21972037D01*
X40929853Y-22006384D01*
X40986467Y-22023557D01*
X41125087Y-22097652D01*
X41142991Y-22107222D01*
X41178729Y-22136552D01*
X41280186Y-22219814D01*
X41363448Y-22321271D01*
X41392778Y-22357009D01*
X41392779Y-22357011D01*
X41476443Y-22513533D01*
X41476443Y-22513534D01*
X41527963Y-22683373D01*
X41545359Y-22860000D01*
X41527963Y-23036627D01*
X41493616Y-23149853D01*
X41476443Y-23206467D01*
X41402348Y-23345087D01*
X41392778Y-23362991D01*
X41363448Y-23398729D01*
X41280186Y-23500186D01*
X41178729Y-23583448D01*
X41142991Y-23612778D01*
X41142989Y-23612779D01*
X40986467Y-23696443D01*
X40929853Y-23713616D01*
X40816627Y-23747963D01*
X40750442Y-23754482D01*
X40684260Y-23761000D01*
X40595740Y-23761000D01*
X40529558Y-23754482D01*
X40463373Y-23747963D01*
X40350147Y-23713616D01*
X40293533Y-23696443D01*
X40137011Y-23612779D01*
X40137009Y-23612778D01*
X40101271Y-23583448D01*
X39999814Y-23500186D01*
X39916552Y-23398729D01*
X39887222Y-23362991D01*
X39877652Y-23345087D01*
X39803557Y-23206467D01*
X39786384Y-23149853D01*
X39752037Y-23036627D01*
X39734641Y-22860000D01*
X39752037Y-22683373D01*
X39803557Y-22513534D01*
X39803557Y-22513533D01*
X39887221Y-22357011D01*
X39887222Y-22357009D01*
X39916552Y-22321271D01*
X39999814Y-22219814D01*
X40101271Y-22136552D01*
X40137009Y-22107222D01*
X40154913Y-22097652D01*
X40293533Y-22023557D01*
X40350147Y-22006384D01*
X40463373Y-21972037D01*
X40529557Y-21965519D01*
X40595740Y-21959000D01*
X40684260Y-21959000D01*
X40750443Y-21965519D01*
X40750443Y-21965519D01*
G37*
G36*
X86470443Y-21965519D02*
X86536627Y-21972037D01*
X86649853Y-22006384D01*
X86706467Y-22023557D01*
X86845087Y-22097652D01*
X86862991Y-22107222D01*
X86898729Y-22136552D01*
X87000186Y-22219814D01*
X87083448Y-22321271D01*
X87112778Y-22357009D01*
X87112779Y-22357011D01*
X87196443Y-22513533D01*
X87196443Y-22513534D01*
X87247963Y-22683373D01*
X87265359Y-22860000D01*
X87247963Y-23036627D01*
X87213616Y-23149853D01*
X87196443Y-23206467D01*
X87122348Y-23345087D01*
X87112778Y-23362991D01*
X87083448Y-23398729D01*
X87000186Y-23500186D01*
X86898729Y-23583448D01*
X86862991Y-23612778D01*
X86862989Y-23612779D01*
X86706467Y-23696443D01*
X86649853Y-23713616D01*
X86536627Y-23747963D01*
X86470442Y-23754482D01*
X86404260Y-23761000D01*
X86315740Y-23761000D01*
X86249558Y-23754482D01*
X86183373Y-23747963D01*
X86070147Y-23713616D01*
X86013533Y-23696443D01*
X85857011Y-23612779D01*
X85857009Y-23612778D01*
X85821271Y-23583448D01*
X85719814Y-23500186D01*
X85636552Y-23398729D01*
X85607222Y-23362991D01*
X85597652Y-23345087D01*
X85523557Y-23206467D01*
X85506384Y-23149853D01*
X85472037Y-23036627D01*
X85454641Y-22860000D01*
X85472037Y-22683373D01*
X85523557Y-22513534D01*
X85523557Y-22513533D01*
X85607221Y-22357011D01*
X85607222Y-22357009D01*
X85636552Y-22321271D01*
X85719814Y-22219814D01*
X85821271Y-22136552D01*
X85857009Y-22107222D01*
X85874913Y-22097652D01*
X86013533Y-22023557D01*
X86070147Y-22006384D01*
X86183373Y-21972037D01*
X86249557Y-21965519D01*
X86315740Y-21959000D01*
X86404260Y-21959000D01*
X86470443Y-21965519D01*
X86470443Y-21965519D01*
G37*
G36*
X53450443Y-19425519D02*
X53516627Y-19432037D01*
X53629853Y-19466384D01*
X53686467Y-19483557D01*
X53825087Y-19557652D01*
X53842991Y-19567222D01*
X53878729Y-19596552D01*
X53980186Y-19679814D01*
X54063448Y-19781271D01*
X54092778Y-19817009D01*
X54092779Y-19817011D01*
X54176443Y-19973533D01*
X54176443Y-19973534D01*
X54227963Y-20143373D01*
X54245359Y-20320000D01*
X54227963Y-20496627D01*
X54193616Y-20609853D01*
X54176443Y-20666467D01*
X54102348Y-20805087D01*
X54092778Y-20822991D01*
X54063448Y-20858729D01*
X53980186Y-20960186D01*
X53878729Y-21043448D01*
X53842991Y-21072778D01*
X53842989Y-21072779D01*
X53686467Y-21156443D01*
X53629853Y-21173616D01*
X53516627Y-21207963D01*
X53450442Y-21214482D01*
X53384260Y-21221000D01*
X53295740Y-21221000D01*
X53229558Y-21214482D01*
X53163373Y-21207963D01*
X53050147Y-21173616D01*
X52993533Y-21156443D01*
X52837011Y-21072779D01*
X52837009Y-21072778D01*
X52801271Y-21043448D01*
X52699814Y-20960186D01*
X52616552Y-20858729D01*
X52587222Y-20822991D01*
X52577652Y-20805087D01*
X52503557Y-20666467D01*
X52486384Y-20609853D01*
X52452037Y-20496627D01*
X52434641Y-20320000D01*
X52452037Y-20143373D01*
X52503557Y-19973534D01*
X52503557Y-19973533D01*
X52587221Y-19817011D01*
X52587222Y-19817009D01*
X52616552Y-19781271D01*
X52699814Y-19679814D01*
X52801271Y-19596552D01*
X52837009Y-19567222D01*
X52854913Y-19557652D01*
X52993533Y-19483557D01*
X53050147Y-19466384D01*
X53163373Y-19432037D01*
X53229557Y-19425519D01*
X53295740Y-19419000D01*
X53384260Y-19419000D01*
X53450443Y-19425519D01*
X53450443Y-19425519D01*
G37*
G36*
X86470443Y-19425519D02*
X86536627Y-19432037D01*
X86649853Y-19466384D01*
X86706467Y-19483557D01*
X86845087Y-19557652D01*
X86862991Y-19567222D01*
X86898729Y-19596552D01*
X87000186Y-19679814D01*
X87083448Y-19781271D01*
X87112778Y-19817009D01*
X87112779Y-19817011D01*
X87196443Y-19973533D01*
X87196443Y-19973534D01*
X87247963Y-20143373D01*
X87265359Y-20320000D01*
X87247963Y-20496627D01*
X87213616Y-20609853D01*
X87196443Y-20666467D01*
X87122348Y-20805087D01*
X87112778Y-20822991D01*
X87083448Y-20858729D01*
X87000186Y-20960186D01*
X86898729Y-21043448D01*
X86862991Y-21072778D01*
X86862989Y-21072779D01*
X86706467Y-21156443D01*
X86649853Y-21173616D01*
X86536627Y-21207963D01*
X86470442Y-21214482D01*
X86404260Y-21221000D01*
X86315740Y-21221000D01*
X86249558Y-21214482D01*
X86183373Y-21207963D01*
X86070147Y-21173616D01*
X86013533Y-21156443D01*
X85857011Y-21072779D01*
X85857009Y-21072778D01*
X85821271Y-21043448D01*
X85719814Y-20960186D01*
X85636552Y-20858729D01*
X85607222Y-20822991D01*
X85597652Y-20805087D01*
X85523557Y-20666467D01*
X85506384Y-20609853D01*
X85472037Y-20496627D01*
X85454641Y-20320000D01*
X85472037Y-20143373D01*
X85523557Y-19973534D01*
X85523557Y-19973533D01*
X85607221Y-19817011D01*
X85607222Y-19817009D01*
X85636552Y-19781271D01*
X85719814Y-19679814D01*
X85821271Y-19596552D01*
X85857009Y-19567222D01*
X85874913Y-19557652D01*
X86013533Y-19483557D01*
X86070147Y-19466384D01*
X86183373Y-19432037D01*
X86249558Y-19425518D01*
X86315740Y-19419000D01*
X86404260Y-19419000D01*
X86470443Y-19425519D01*
X86470443Y-19425519D01*
G37*
G36*
X73770443Y-19425519D02*
X73836627Y-19432037D01*
X73949853Y-19466384D01*
X74006467Y-19483557D01*
X74145087Y-19557652D01*
X74162991Y-19567222D01*
X74198729Y-19596552D01*
X74300186Y-19679814D01*
X74383448Y-19781271D01*
X74412778Y-19817009D01*
X74412779Y-19817011D01*
X74496443Y-19973533D01*
X74496443Y-19973534D01*
X74547963Y-20143373D01*
X74565359Y-20320000D01*
X74547963Y-20496627D01*
X74513616Y-20609853D01*
X74496443Y-20666467D01*
X74422348Y-20805087D01*
X74412778Y-20822991D01*
X74383448Y-20858729D01*
X74300186Y-20960186D01*
X74198729Y-21043448D01*
X74162991Y-21072778D01*
X74162989Y-21072779D01*
X74006467Y-21156443D01*
X73949853Y-21173616D01*
X73836627Y-21207963D01*
X73770442Y-21214482D01*
X73704260Y-21221000D01*
X73615740Y-21221000D01*
X73549558Y-21214482D01*
X73483373Y-21207963D01*
X73370147Y-21173616D01*
X73313533Y-21156443D01*
X73157011Y-21072779D01*
X73157009Y-21072778D01*
X73121271Y-21043448D01*
X73019814Y-20960186D01*
X72936552Y-20858729D01*
X72907222Y-20822991D01*
X72897652Y-20805087D01*
X72823557Y-20666467D01*
X72806384Y-20609853D01*
X72772037Y-20496627D01*
X72754641Y-20320000D01*
X72772037Y-20143373D01*
X72823557Y-19973534D01*
X72823557Y-19973533D01*
X72907221Y-19817011D01*
X72907222Y-19817009D01*
X72936552Y-19781271D01*
X73019814Y-19679814D01*
X73121271Y-19596552D01*
X73157009Y-19567222D01*
X73174913Y-19557652D01*
X73313533Y-19483557D01*
X73370147Y-19466384D01*
X73483373Y-19432037D01*
X73549558Y-19425518D01*
X73615740Y-19419000D01*
X73704260Y-19419000D01*
X73770443Y-19425519D01*
X73770443Y-19425519D01*
G37*
G36*
X63610443Y-19425519D02*
X63676627Y-19432037D01*
X63789853Y-19466384D01*
X63846467Y-19483557D01*
X63985087Y-19557652D01*
X64002991Y-19567222D01*
X64038729Y-19596552D01*
X64140186Y-19679814D01*
X64223448Y-19781271D01*
X64252778Y-19817009D01*
X64252779Y-19817011D01*
X64336443Y-19973533D01*
X64336443Y-19973534D01*
X64387963Y-20143373D01*
X64405359Y-20320000D01*
X64387963Y-20496627D01*
X64353616Y-20609853D01*
X64336443Y-20666467D01*
X64262348Y-20805087D01*
X64252778Y-20822991D01*
X64223448Y-20858729D01*
X64140186Y-20960186D01*
X64038729Y-21043448D01*
X64002991Y-21072778D01*
X64002989Y-21072779D01*
X63846467Y-21156443D01*
X63789853Y-21173616D01*
X63676627Y-21207963D01*
X63610442Y-21214482D01*
X63544260Y-21221000D01*
X63455740Y-21221000D01*
X63389558Y-21214482D01*
X63323373Y-21207963D01*
X63210147Y-21173616D01*
X63153533Y-21156443D01*
X62997011Y-21072779D01*
X62997009Y-21072778D01*
X62961271Y-21043448D01*
X62859814Y-20960186D01*
X62776552Y-20858729D01*
X62747222Y-20822991D01*
X62737652Y-20805087D01*
X62663557Y-20666467D01*
X62646384Y-20609853D01*
X62612037Y-20496627D01*
X62594641Y-20320000D01*
X62612037Y-20143373D01*
X62663557Y-19973534D01*
X62663557Y-19973533D01*
X62747221Y-19817011D01*
X62747222Y-19817009D01*
X62776552Y-19781271D01*
X62859814Y-19679814D01*
X62961271Y-19596552D01*
X62997009Y-19567222D01*
X63014913Y-19557652D01*
X63153533Y-19483557D01*
X63210147Y-19466384D01*
X63323373Y-19432037D01*
X63389557Y-19425519D01*
X63455740Y-19419000D01*
X63544260Y-19419000D01*
X63610443Y-19425519D01*
X63610443Y-19425519D01*
G37*
G36*
X40750443Y-19425519D02*
X40816627Y-19432037D01*
X40929853Y-19466384D01*
X40986467Y-19483557D01*
X41125087Y-19557652D01*
X41142991Y-19567222D01*
X41178729Y-19596552D01*
X41280186Y-19679814D01*
X41363448Y-19781271D01*
X41392778Y-19817009D01*
X41392779Y-19817011D01*
X41476443Y-19973533D01*
X41476443Y-19973534D01*
X41527963Y-20143373D01*
X41545359Y-20320000D01*
X41527963Y-20496627D01*
X41493616Y-20609853D01*
X41476443Y-20666467D01*
X41402348Y-20805087D01*
X41392778Y-20822991D01*
X41363448Y-20858729D01*
X41280186Y-20960186D01*
X41178729Y-21043448D01*
X41142991Y-21072778D01*
X41142989Y-21072779D01*
X40986467Y-21156443D01*
X40929853Y-21173616D01*
X40816627Y-21207963D01*
X40750442Y-21214482D01*
X40684260Y-21221000D01*
X40595740Y-21221000D01*
X40529558Y-21214482D01*
X40463373Y-21207963D01*
X40350147Y-21173616D01*
X40293533Y-21156443D01*
X40137011Y-21072779D01*
X40137009Y-21072778D01*
X40101271Y-21043448D01*
X39999814Y-20960186D01*
X39916552Y-20858729D01*
X39887222Y-20822991D01*
X39877652Y-20805087D01*
X39803557Y-20666467D01*
X39786384Y-20609853D01*
X39752037Y-20496627D01*
X39734641Y-20320000D01*
X39752037Y-20143373D01*
X39803557Y-19973534D01*
X39803557Y-19973533D01*
X39887221Y-19817011D01*
X39887222Y-19817009D01*
X39916552Y-19781271D01*
X39999814Y-19679814D01*
X40101271Y-19596552D01*
X40137009Y-19567222D01*
X40154913Y-19557652D01*
X40293533Y-19483557D01*
X40350147Y-19466384D01*
X40463373Y-19432037D01*
X40529557Y-19425519D01*
X40595740Y-19419000D01*
X40684260Y-19419000D01*
X40750443Y-19425519D01*
X40750443Y-19425519D01*
G37*
G36*
X20430443Y-19425519D02*
X20496627Y-19432037D01*
X20609853Y-19466384D01*
X20666467Y-19483557D01*
X20805087Y-19557652D01*
X20822991Y-19567222D01*
X20858729Y-19596552D01*
X20960186Y-19679814D01*
X21043448Y-19781271D01*
X21072778Y-19817009D01*
X21072779Y-19817011D01*
X21156443Y-19973533D01*
X21156443Y-19973534D01*
X21207963Y-20143373D01*
X21225359Y-20320000D01*
X21207963Y-20496627D01*
X21173616Y-20609853D01*
X21156443Y-20666467D01*
X21082348Y-20805087D01*
X21072778Y-20822991D01*
X21043448Y-20858729D01*
X20960186Y-20960186D01*
X20858729Y-21043448D01*
X20822991Y-21072778D01*
X20822989Y-21072779D01*
X20666467Y-21156443D01*
X20609853Y-21173616D01*
X20496627Y-21207963D01*
X20430442Y-21214482D01*
X20364260Y-21221000D01*
X20275740Y-21221000D01*
X20209558Y-21214482D01*
X20143373Y-21207963D01*
X20030147Y-21173616D01*
X19973533Y-21156443D01*
X19817011Y-21072779D01*
X19817009Y-21072778D01*
X19781271Y-21043448D01*
X19679814Y-20960186D01*
X19596552Y-20858729D01*
X19567222Y-20822991D01*
X19557652Y-20805087D01*
X19483557Y-20666467D01*
X19466384Y-20609853D01*
X19432037Y-20496627D01*
X19414641Y-20320000D01*
X19432037Y-20143373D01*
X19483557Y-19973534D01*
X19483557Y-19973533D01*
X19567221Y-19817011D01*
X19567222Y-19817009D01*
X19596552Y-19781271D01*
X19679814Y-19679814D01*
X19781271Y-19596552D01*
X19817009Y-19567222D01*
X19834913Y-19557652D01*
X19973533Y-19483557D01*
X20030147Y-19466384D01*
X20143373Y-19432037D01*
X20209557Y-19425519D01*
X20275740Y-19419000D01*
X20364260Y-19419000D01*
X20430443Y-19425519D01*
X20430443Y-19425519D01*
G37*
G36*
X30590443Y-19425519D02*
X30656627Y-19432037D01*
X30769853Y-19466384D01*
X30826467Y-19483557D01*
X30965087Y-19557652D01*
X30982991Y-19567222D01*
X31018729Y-19596552D01*
X31120186Y-19679814D01*
X31203448Y-19781271D01*
X31232778Y-19817009D01*
X31232779Y-19817011D01*
X31316443Y-19973533D01*
X31316443Y-19973534D01*
X31367963Y-20143373D01*
X31385359Y-20320000D01*
X31367963Y-20496627D01*
X31333616Y-20609853D01*
X31316443Y-20666467D01*
X31242348Y-20805087D01*
X31232778Y-20822991D01*
X31203448Y-20858729D01*
X31120186Y-20960186D01*
X31018729Y-21043448D01*
X30982991Y-21072778D01*
X30982989Y-21072779D01*
X30826467Y-21156443D01*
X30769853Y-21173616D01*
X30656627Y-21207963D01*
X30590442Y-21214482D01*
X30524260Y-21221000D01*
X30435740Y-21221000D01*
X30369558Y-21214482D01*
X30303373Y-21207963D01*
X30190147Y-21173616D01*
X30133533Y-21156443D01*
X29977011Y-21072779D01*
X29977009Y-21072778D01*
X29941271Y-21043448D01*
X29839814Y-20960186D01*
X29756552Y-20858729D01*
X29727222Y-20822991D01*
X29717652Y-20805087D01*
X29643557Y-20666467D01*
X29626384Y-20609853D01*
X29592037Y-20496627D01*
X29574641Y-20320000D01*
X29592037Y-20143373D01*
X29643557Y-19973534D01*
X29643557Y-19973533D01*
X29727221Y-19817011D01*
X29727222Y-19817009D01*
X29756552Y-19781271D01*
X29839814Y-19679814D01*
X29941271Y-19596552D01*
X29977009Y-19567222D01*
X29994913Y-19557652D01*
X30133533Y-19483557D01*
X30190147Y-19466384D01*
X30303373Y-19432037D01*
X30369557Y-19425519D01*
X30435740Y-19419000D01*
X30524260Y-19419000D01*
X30590443Y-19425519D01*
X30590443Y-19425519D01*
G37*
G36*
X106790443Y-19425519D02*
X106856627Y-19432037D01*
X106969853Y-19466384D01*
X107026467Y-19483557D01*
X107165087Y-19557652D01*
X107182991Y-19567222D01*
X107218729Y-19596552D01*
X107320186Y-19679814D01*
X107403448Y-19781271D01*
X107432778Y-19817009D01*
X107432779Y-19817011D01*
X107516443Y-19973533D01*
X107516443Y-19973534D01*
X107567963Y-20143373D01*
X107585359Y-20320000D01*
X107567963Y-20496627D01*
X107533616Y-20609853D01*
X107516443Y-20666467D01*
X107442348Y-20805087D01*
X107432778Y-20822991D01*
X107403448Y-20858729D01*
X107320186Y-20960186D01*
X107218729Y-21043448D01*
X107182991Y-21072778D01*
X107182989Y-21072779D01*
X107026467Y-21156443D01*
X106969853Y-21173616D01*
X106856627Y-21207963D01*
X106790442Y-21214482D01*
X106724260Y-21221000D01*
X106635740Y-21221000D01*
X106569558Y-21214482D01*
X106503373Y-21207963D01*
X106390147Y-21173616D01*
X106333533Y-21156443D01*
X106177011Y-21072779D01*
X106177009Y-21072778D01*
X106141271Y-21043448D01*
X106039814Y-20960186D01*
X105956552Y-20858729D01*
X105927222Y-20822991D01*
X105917652Y-20805087D01*
X105843557Y-20666467D01*
X105826384Y-20609853D01*
X105792037Y-20496627D01*
X105774641Y-20320000D01*
X105792037Y-20143373D01*
X105843557Y-19973534D01*
X105843557Y-19973533D01*
X105927221Y-19817011D01*
X105927222Y-19817009D01*
X105956552Y-19781271D01*
X106039814Y-19679814D01*
X106141271Y-19596552D01*
X106177009Y-19567222D01*
X106194913Y-19557652D01*
X106333533Y-19483557D01*
X106390147Y-19466384D01*
X106503373Y-19432037D01*
X106569558Y-19425518D01*
X106635740Y-19419000D01*
X106724260Y-19419000D01*
X106790443Y-19425519D01*
X106790443Y-19425519D01*
G37*
G36*
X96630443Y-19425519D02*
X96696627Y-19432037D01*
X96809853Y-19466384D01*
X96866467Y-19483557D01*
X97005087Y-19557652D01*
X97022991Y-19567222D01*
X97058729Y-19596552D01*
X97160186Y-19679814D01*
X97243448Y-19781271D01*
X97272778Y-19817009D01*
X97272779Y-19817011D01*
X97356443Y-19973533D01*
X97356443Y-19973534D01*
X97407963Y-20143373D01*
X97425359Y-20320000D01*
X97407963Y-20496627D01*
X97373616Y-20609853D01*
X97356443Y-20666467D01*
X97282348Y-20805087D01*
X97272778Y-20822991D01*
X97243448Y-20858729D01*
X97160186Y-20960186D01*
X97058729Y-21043448D01*
X97022991Y-21072778D01*
X97022989Y-21072779D01*
X96866467Y-21156443D01*
X96809853Y-21173616D01*
X96696627Y-21207963D01*
X96630442Y-21214482D01*
X96564260Y-21221000D01*
X96475740Y-21221000D01*
X96409558Y-21214482D01*
X96343373Y-21207963D01*
X96230147Y-21173616D01*
X96173533Y-21156443D01*
X96017011Y-21072779D01*
X96017009Y-21072778D01*
X95981271Y-21043448D01*
X95879814Y-20960186D01*
X95796552Y-20858729D01*
X95767222Y-20822991D01*
X95757652Y-20805087D01*
X95683557Y-20666467D01*
X95666384Y-20609853D01*
X95632037Y-20496627D01*
X95614641Y-20320000D01*
X95632037Y-20143373D01*
X95683557Y-19973534D01*
X95683557Y-19973533D01*
X95767221Y-19817011D01*
X95767222Y-19817009D01*
X95796552Y-19781271D01*
X95879814Y-19679814D01*
X95981271Y-19596552D01*
X96017009Y-19567222D01*
X96034913Y-19557652D01*
X96173533Y-19483557D01*
X96230147Y-19466384D01*
X96343373Y-19432037D01*
X96409558Y-19425518D01*
X96475740Y-19419000D01*
X96564260Y-19419000D01*
X96630443Y-19425519D01*
X96630443Y-19425519D01*
G37*
G36*
X21221000Y-18681000D02*
X19419000Y-18681000D01*
X19419000Y-16879000D01*
X21221000Y-16879000D01*
X21221000Y-18681000D01*
X21221000Y-18681000D01*
G37*
G36*
X54241000Y-18681000D02*
X52439000Y-18681000D01*
X52439000Y-16879000D01*
X54241000Y-16879000D01*
X54241000Y-18681000D01*
X54241000Y-18681000D01*
G37*
G36*
X64401000Y-18681000D02*
X62599000Y-18681000D01*
X62599000Y-16879000D01*
X64401000Y-16879000D01*
X64401000Y-18681000D01*
X64401000Y-18681000D01*
G37*
G36*
X74561000Y-18681000D02*
X72759000Y-18681000D01*
X72759000Y-16879000D01*
X74561000Y-16879000D01*
X74561000Y-18681000D01*
X74561000Y-18681000D01*
G37*
G36*
X31381000Y-18681000D02*
X29579000Y-18681000D01*
X29579000Y-16879000D01*
X31381000Y-16879000D01*
X31381000Y-18681000D01*
X31381000Y-18681000D01*
G37*
G36*
X107581000Y-18681000D02*
X105779000Y-18681000D01*
X105779000Y-16879000D01*
X107581000Y-16879000D01*
X107581000Y-18681000D01*
X107581000Y-18681000D01*
G37*
G36*
X87261000Y-18681000D02*
X85459000Y-18681000D01*
X85459000Y-16879000D01*
X87261000Y-16879000D01*
X87261000Y-18681000D01*
X87261000Y-18681000D01*
G37*
G36*
X97421000Y-18681000D02*
X95619000Y-18681000D01*
X95619000Y-16879000D01*
X97421000Y-16879000D01*
X97421000Y-18681000D01*
X97421000Y-18681000D01*
G37*
G36*
X41541000Y-18681000D02*
X39739000Y-18681000D01*
X39739000Y-16879000D01*
X41541000Y-16879000D01*
X41541000Y-18681000D01*
X41541000Y-18681000D01*
G37*
M02*
