M48
;DRILL file {KiCad 5.0.2+dfsg1-1} date Fri 17 Apr 2020 02:25:47 PM CEST
;FORMAT={-:-/ absolute / inch / decimal}
FMAT,2
INCH,TZ
T1C0.0197
T2C0.0315
T3C0.0354
T4C0.0394
T5C0.0400
%
G90
G05
T1
X1.7Y-2.7
X1.9677Y-1.7457
X2.0339Y-2.2707
X2.4Y-2.55
X2.4265Y-2.3259
X2.6299Y-1.3643
X2.6318Y-2.4602
X2.7462Y-2.4975
T2
X1.85Y-2.0016
X1.85Y-2.1
X3.15Y-1.9016
X3.15Y-2.
T3
X3.3Y-2.45
X3.4Y-2.45
X3.6Y-2.45
X3.7Y-2.45
X3.Y-2.45
X3.1Y-2.45
X3.9Y-2.45
X4.Y-2.45
T4
X0.8Y-0.7
X0.8Y-0.8
X0.8Y-0.9
X0.8Y-1.
X0.8Y-1.1
X0.8Y-1.3
X0.8Y-1.4
X0.8Y-1.5
X0.8Y-1.6
X0.8Y-1.7
X0.8Y-1.9
X0.8Y-2.
X0.8Y-2.1
X1.2Y-0.7
X1.2Y-0.8
X1.2Y-0.9
X1.2Y-1.
X1.2Y-1.1
X1.2Y-1.3
X1.2Y-1.4
X1.2Y-1.5
X1.2Y-1.6
X1.2Y-1.7
X1.2Y-1.9
X1.2Y-2.
X1.2Y-2.1
X3.8Y-0.7
X3.8Y-0.8
X3.8Y-0.9
X3.8Y-1.
X3.8Y-1.1
X3.8Y-1.3
X3.8Y-1.4
X3.8Y-1.5
X3.8Y-1.6
X3.8Y-1.7
X3.8Y-1.9
X3.8Y-2.
X3.8Y-2.1
X3.4Y-0.7
X3.4Y-0.8
X3.4Y-0.9
X3.4Y-1.
X3.4Y-1.1
X3.4Y-1.3
X3.4Y-1.4
X3.4Y-1.5
X3.4Y-1.6
X3.4Y-1.7
X3.4Y-1.9
X3.4Y-2.
X3.4Y-2.1
X1.6Y-0.7
X1.6Y-0.8
X1.6Y-0.9
X1.6Y-1.
X1.6Y-1.1
X1.6Y-1.3
X1.6Y-1.4
X1.6Y-1.5
X1.6Y-1.6
X1.6Y-1.7
X1.6Y-1.9
X1.6Y-2.
X1.6Y-2.1
X2.1Y-0.7
X2.1Y-0.8
X2.1Y-0.9
X2.1Y-1.
X2.1Y-1.1
X2.1Y-1.3
X2.1Y-1.4
X2.1Y-1.5
X2.1Y-1.6
X2.1Y-1.7
X2.1Y-1.9
X2.1Y-2.
X2.1Y-2.1
X4.2Y-0.7
X4.2Y-0.8
X4.2Y-0.9
X4.2Y-1.
X4.2Y-1.1
X4.2Y-1.3
X4.2Y-1.4
X4.2Y-1.5
X4.2Y-1.6
X4.2Y-1.7
X4.2Y-1.9
X4.2Y-2.
X4.2Y-2.1
X2.5Y-0.7
X2.5Y-0.8
X2.5Y-0.9
X2.5Y-1.
X2.5Y-1.1
X2.5Y-1.3
X2.5Y-1.4
X2.5Y-1.5
X2.5Y-1.6
X2.5Y-1.7
X2.5Y-1.9
X2.5Y-2.
X2.5Y-2.1
X2.9Y-0.7
X2.9Y-0.8
X2.9Y-0.9
X2.9Y-1.
X2.9Y-1.1
X2.9Y-1.3
X2.9Y-1.4
X2.9Y-1.5
X2.9Y-1.6
X2.9Y-1.7
X2.9Y-1.9
X2.9Y-2.
X2.9Y-2.1
T5
X1.1Y-2.45
X1.1Y-2.55
X1.2Y-2.45
X1.2Y-2.55
X1.3Y-2.45
X1.3Y-2.55
X1.4Y-2.45
X1.4Y-2.55
X1.5Y-2.45
X1.5Y-2.55
X1.6Y-2.45
X1.6Y-2.55
T0
M30
